<?xml version="1.0" encoding="UTF-8" standalone="no"?>
<svg xmlns="http://www.w3.org/2000/svg" width="200" height="200" viewBox="0 0 200 200">
  <g fill="none" stroke="black" stroke-width="1.0">
    <path d="M 100.965 136.174 L 104.165 136.174 L 100.965 140.174 L 104.165 140.174" />
    <path d="M 103.082 59.8636 L 106.282 59.8636 L 103.082 63.8636 L 106.282 63.8636" />
    <path d="M 69.8091 130.318 L 73.0091 130.318 L 69.8091 134.318 L 73.0091 134.318" />
    <path d="M 20.1143 110.429 L 23.3143 110.429 L 20.1143 114.429 L 23.3143 114.429" />
    <path d="M 81.3048 92.2857 L 84.5048 92.2857 L 81.3048 96.2857 L 84.5048 96.2857" />
    <path d="M 20.4 23.5 L 23.6 23.5 L 20.4 27.5 L 23.6 27.5" />
    <path d="M 179.9 94.5 L 183.1 94.5 L 179.9 98.5 L 183.1 98.5" />
    <path d="M 91.6222 76.5 L 94.8222 76.5 L 91.6222 80.5 L 94.8222 80.5" />
    <path d="M 87.8 51.4 L 91 51.4 L 87.8 55.4 L 91 55.4" />
    <path d="M 135.775 113.938 L 138.975 113.938 L 135.775 117.938 L 138.975 117.938" />
    <path d="M 21.15 19.5625 L 24.35 19.5625 L 21.15 23.5625 L 24.35 23.5625" />
    <path d="M 178.3 125.2 L 181.5 125.2 L 178.3 129.2 L 181.5 129.2" />
    <path d="M 117.295 176.579 L 120.495 176.579 L 117.295 180.579 L 120.495 180.579" />
    <path d="M 28.9 16.7778 L 32.1 16.7778 L 28.9 20.7778 L 32.1 20.7778" />
    <path d="M 87.3375 179.875 L 90.5375 179.875 L 87.3375 183.875 L 90.5375 183.875" />
    <path d="M 70.5667 113.917 L 73.7667 113.917 L 70.5667 117.917 L 73.7667 117.917" />
    <path d="M 112.4 113 L 115.6 113 L 112.4 117 L 115.6 117" />
    <path d="M 99.1 16.25 L 102.3 16.25 L 99.1 20.25 L 102.3 20.25" />
    <path d="M 128.4 16.5 L 131.6 16.5 L 128.4 20.5 L 131.6 20.5" />
    <path d="M 180.169 100.385 L 183.369 100.385 L 180.169 104.385 L 183.369 104.385" />
    <path d="M 115.9 87.2 L 119.1 87.2 L 115.9 91.2 L 119.1 91.2" />
    <path d="M 72.6 16.7 L 75.8 16.7 L 72.6 20.7 L 75.8 20.7" />
    <path d="M 34.9 179.714 L 38.1 179.714 L 34.9 183.714 L 38.1 183.714" />
    <path d="M 93.2947 66.4211 L 96.4947 66.4211 L 93.2947 70.4211 L 96.4947 70.4211" />
    <path d="M 87.6 20.1 L 90.8 20.1 L 87.6 24.1 L 90.8 24.1" />
    <path d="M 81.7571 112.786 L 84.9571 112.786 L 81.7571 116.786 L 84.9571 116.786" />
    <path d="M 105.282 84.7647 L 108.482 84.7647 L 105.282 88.7647 L 108.482 88.7647" />
    <path d="M 143.289 179.444 L 146.489 179.444 L 143.289 183.444 L 146.489 183.444" />
    <path d="M 143.686 93.7857 L 146.886 93.7857 L 143.686 97.7857 L 146.886 97.7857" />
    <path d="M 89.8286 144.714 L 93.0286 144.714 L 89.8286 148.714 L 93.0286 148.714" />
    <path d="M 61.5875 118.188 L 64.7875 118.188 L 61.5875 122.188 L 64.7875 122.188" />
    <path d="M 176.233 94.4167 L 179.433 94.4167 L 176.233 98.4167 L 179.433 98.4167" />
    <path d="M 173.169 15.8462 L 176.369 15.8462 L 173.169 19.8462 L 176.369 19.8462" />
    <path d="M 159.779 177.862 L 162.979 177.862 L 159.779 181.862 L 162.979 181.862" />
    <path d="M 99.4833 109.083 L 102.683 109.083 L 99.4833 113.083 L 102.683 113.083" />
    <path d="M 142.785 88.3846 L 145.985 88.3846 L 142.785 92.3846 L 145.985 92.3846" />
    <path d="M 43 16.4 L 46.2 16.4 L 43 20.4 L 46.2 20.4" />
    <path d="M 72.4588 64.4118 L 75.6588 64.4118 L 72.4588 68.4118 L 75.6588 68.4118" />
    <path d="M 99.2947 70.579 L 102.495 70.579 L 99.2947 74.579 L 102.495 74.579" />
    <path d="M 96.0111 120.722 L 99.2111 120.722 L 96.0111 124.722 L 99.2111 124.722" />
    <path d="M 92.275 112.687 L 95.475 112.687 L 92.275 116.687 L 95.475 116.687" />
    <path d="M 73.4625 139.125 L 76.6625 139.125 L 73.4625 143.125 L 76.6625 143.125" />
    <path d="M 180.067 57.619 L 183.267 57.619 L 180.067 61.619 L 183.267 61.619" />
    <path d="M 108.27 87.8261 L 111.47 87.8261 L 108.27 91.8261 L 111.47 91.8261" />
    <path d="M 89.4714 62.1429 L 92.6714 62.1429 L 89.4714 66.1429 L 92.6714 66.1429" />
    <path d="M 16.65 129.25 L 19.85 129.25 L 16.65 133.25 L 19.85 133.25" />
    <path d="M 119.862 91.1539 L 123.062 91.1539 L 119.862 95.1539 L 123.062 95.1539" />
    <path d="M 67.3445 62.2222 L 70.5444 62.2222 L 67.3445 66.2222 L 70.5444 66.2222" />
    <path d="M 176.2 106.7 L 179.4 106.7 L 176.2 110.7 L 179.4 110.7" />
    <path d="M 59 16.4 L 62.2 16.4 L 59 20.4 L 62.2 20.4" />
    <path d="M 109.933 144.933 L 113.133 144.933 L 109.933 148.933 L 113.133 148.933" />
    <path d="M 139.775 93.5625 L 142.975 93.5625 L 139.775 97.5625 L 142.975 97.5625" />
    <path d="M 20.9 87 L 24.1 87 L 20.9 91 L 24.1 91" />
    <path d="M 145.862 176.154 L 149.062 176.154 L 145.862 180.154 L 149.062 180.154" />
    <path d="M 106.867 124.667 L 110.067 124.667 L 106.867 128.667 L 110.067 128.667" />
    <path d="M 110.9 78 L 114.1 78 L 110.9 82 L 114.1 82" />
    <path d="M 70.8667 106.667 L 74.0667 106.667 L 70.8667 110.667 L 74.0667 110.667" />
    <path d="M 103.471 101.429 L 106.671 101.429 L 103.471 105.429 L 106.671 105.429" />
    <path d="M 51.7529 180.059 L 54.9529 180.059 L 51.7529 184.059 L 54.9529 184.059" />
    <path d="M 20.9 143 L 24.1 143 L 20.9 147 L 24.1 147" />
    <path d="M 20.1143 127.5 L 23.3143 127.5 L 20.1143 131.5 L 23.3143 131.5" />
    <path d="M 19.9 105.2 L 23.1 105.2 L 19.9 109.2 L 23.1 109.2" />
    <path d="M 178.686 109 L 181.886 109 L 178.686 113 L 181.886 113" />
    <path d="M 98.9 176.714 L 102.1 176.714 L 98.9 180.714 L 102.1 180.714" />
    <path d="M 56.4526 112.421 L 59.6526 112.421 L 56.4526 116.421 L 59.6526 116.421" />
    <path d="M 127.15 72.75 L 130.35 72.75 L 127.15 76.75 L 130.35 76.75" />
    <path d="M 65.4 73.6923 L 68.6 73.6923 L 65.4 77.6923 L 68.6 77.6923" />
    <path d="M 107.92 56.08 L 111.12 56.08 L 107.92 60.08 L 111.12 60.08" />
    <path d="M 38.6941 16.2941 L 41.8941 16.2941 L 38.6941 20.2941 L 41.8941 20.2941" />
    <path d="M 92.7077 88.6923 L 95.9077 88.6923 L 92.7077 92.6923 L 95.9077 92.6923" />
    <path d="M 18.275 87.125 L 21.475 87.125 L 18.275 91.125 L 21.475 91.125" />
    <path d="M 134.4 73.3529 L 137.6 73.3529 L 134.4 77.3529 L 137.6 77.3529" />
    <path d="M 19.6857 16.1429 L 22.8857 16.1429 L 19.6857 20.1429 L 22.8857 20.1429" />
    <path d="M 127.924 60.3809 L 131.124 60.3809 L 127.924 64.3809 L 131.124 64.3809" />
    <path d="M 120.471 122.286 L 123.671 122.286 L 120.471 126.286 L 123.671 126.286" />
    <path d="M 110.459 133.765 L 113.659 133.765 L 110.459 137.765 L 113.659 137.765" />
    <path d="M 16.2333 113.417 L 19.4333 113.417 L 16.2333 117.417 L 19.4333 117.417" />
    <path d="M 140.4 175.5 L 143.6 175.5 L 140.4 179.5 L 143.6 179.5" />
    <path d="M 140.067 115.333 L 143.267 115.333 L 140.067 119.333 L 143.267 119.333" />
    <path d="M 172.8 176.4 L 176 176.4 L 172.8 180.4 L 176 180.4" />
    <path d="M 81.2 143.4 L 84.4 143.4 L 81.2 147.4 L 84.4 147.4" />
    <path d="M 135.4 93.9412 L 138.6 93.9412 L 135.4 97.9412 L 138.6 97.9412" />
    <path d="M 144.9 20 L 148.1 20 L 144.9 24 L 148.1 24" />
    <path d="M 16.4 84 L 19.6 84 L 16.4 88 L 19.6 88" />
    <path d="M 131.267 117.533 L 134.467 117.533 L 131.267 121.533 L 134.467 121.533" />
    <path d="M 99.3286 118 L 102.529 118 L 99.3286 122 L 102.529 122" />
    <path d="M 95.6857 110.786 L 98.8857 110.786 L 95.6857 114.786 L 98.8857 114.786" />
    <path d="M 111.213 73.6875 L 114.412 73.6875 L 111.213 77.6875 L 114.412 77.6875" />
    <path d="M 74.6 108 L 77.8 108 L 74.6 112 L 77.8 112" />
    <path d="M 114.178 85.1111 L 117.378 85.1111 L 114.178 89.1111 L 117.378 89.1111" />
    <path d="M 174.459 179.765 L 177.659 179.765 L 174.459 183.765 L 177.659 183.765" />
    <path d="M 180.052 140.217 L 183.252 140.217 L 180.052 144.217 L 183.252 144.217" />
    <path d="M 175.844 124.222 L 179.044 124.222 L 175.844 128.222 L 179.044 128.222" />
    <path d="M 131.036 63.6364 L 134.236 63.6364 L 131.036 67.6364 L 134.236 67.6364" />
    <path d="M 88.8118 66.7647 L 92.0118 66.7647 L 88.8118 70.7647 L 92.0118 70.7647" />
    <path d="M 166.448 16.0952 L 169.648 16.0952 L 166.448 20.0952 L 169.648 20.0952" />
    <path d="M 110.9 123 L 114.1 123 L 110.9 127 L 114.1 127" />
    <path d="M 18.0923 31.6538 L 21.2923 31.6538 L 18.0923 35.6538 L 21.2923 35.6538" />
    <path d="M 105.162 91.619 L 108.362 91.619 L 105.162 95.619 L 108.362 95.619" />
    <path d="M 75.6727 61.4545 L 78.8727 61.4545 L 75.6727 65.4545 L 78.8727 65.4545" />
    <path d="M 18.7667 169.933 L 21.9667 169.933 L 18.7667 173.933 L 21.9667 173.933" />
    <path d="M 142.329 96.8571 L 145.529 96.8571 L 142.329 100.857 L 145.529 100.857" />
    <path d="M 97.2 107.7 L 100.4 107.7 L 97.2 111.7 L 100.4 111.7" />
    <path d="M 136.4 122.8 L 139.6 122.8 L 136.4 126.8 L 139.6 126.8" />
    <path d="M 99.8286 50.8572 L 103.029 50.8572 L 99.8286 54.8572 L 103.029 54.8572" />
    <path d="M 139.95 111.3 L 143.15 111.3 L 139.95 115.3 L 143.15 115.3" />
    <path d="M 52.08 102.08 L 55.28 102.08 L 52.08 106.08 L 55.28 106.08" />
    <path d="M 92.9 62.5 L 96.1 62.5 L 92.9 66.5 L 96.1 66.5" />
    <path d="M 168.178 176.167 L 171.378 176.167 L 168.178 180.167 L 171.378 180.167" />
    <path d="M 72.2 110.5 L 75.4 110.5 L 72.2 114.5 L 75.4 114.5" />
    <path d="M 126.753 120.529 L 129.953 120.529 L 126.753 124.529 L 129.953 124.529" />
    <path d="M 20.5875 157.125 L 23.7875 157.125 L 20.5875 161.125 L 23.7875 161.125" />
    <path d="M 179.733 113.222 L 182.933 113.222 L 179.733 117.222 L 182.933 117.222" />
    <path d="M 57.6632 73.4211 L 60.8632 73.4211 L 57.6632 77.4211 L 60.8632 77.4211" />
    <path d="M 179.692 27.5833 L 182.892 27.5833 L 179.692 31.5833 L 182.892 31.5833" />
    <path d="M 121.764 94.0909 L 124.964 94.0909 L 121.764 98.0909 L 124.964 98.0909" />
    <path d="M 104.4 64.375 L 107.6 64.375 L 104.4 68.375 L 107.6 68.375" />
    <path d="M 113.945 90.5455 L 117.145 90.5455 L 113.945 94.5455 L 117.145 94.5455" />
    <path d="M 177.21 156.857 L 180.41 156.857 L 177.21 160.857 L 180.41 160.857" />
    <path d="M 87.4625 76.6875 L 90.6625 76.6875 L 87.4625 80.6875 L 90.6625 80.6875" />
    <path d="M 178.109 39.3044 L 181.752 39.3044 L 178.109 43.8584 L 181.752 43.8584" />
    <path d="M 143.2 78.7 L 146.4 78.7 L 143.2 82.7 L 146.4 82.7" />
    <path d="M 78.1368 176.158 L 81.3368 176.158 L 78.1368 180.158 L 81.3368 180.158" />
    <path d="M 81.8 70.6 L 85 70.6 L 81.8 74.6 L 85 74.6" />
    <path d="M 99.6667 114.533 L 102.867 114.533 L 99.6667 118.533 L 102.867 118.533" />
    <path d="M 24.3412 16.2353 L 27.5412 16.2353 L 24.3412 20.2353 L 27.5412 20.2353" />
    <path d="M 101.27 80.0335 L 104.587 80.0335 L 101.27 84.1808 L 104.587 84.1808" />
    <path d="M 62.0667 75.3333 L 65.2667 75.3333 L 62.0667 79.3333 L 65.2667 79.3333" />
    <path d="M 100.4 56.1176 L 103.6 56.1176 L 100.4 60.1176 L 103.6 60.1176" />
    <path d="M 85.8286 103.714 L 89.0286 103.714 L 85.8286 107.714 L 89.0286 107.714" />
    <path d="M 176.686 98.5 L 179.886 98.5 L 176.686 102.5 L 179.886 102.5" />
    <path d="M 99.5579 122.263 L 102.758 122.263 L 99.5579 126.263 L 102.758 126.263" />
    <path d="M 16.8 72.4 L 20 72.4 L 16.8 76.4 L 20 76.4" />
    <path d="M 136.092 67.6923 L 139.292 67.6923 L 136.092 71.6923 L 139.292 71.6923" />
    <path d="M 73.1647 56.8235 L 76.3647 56.8235 L 73.1647 60.8235 L 76.3647 60.8235" />
    <path d="M 107.533 64.9333 L 110.733 64.9333 L 107.533 68.9333 L 110.733 68.9333" />
    <path d="M 178.525 105.875 L 181.725 105.875 L 178.525 109.875 L 181.725 109.875" />
    <path d="M 52.0087 89.5652 L 55.2087 89.5652 L 52.0087 93.5652 L 55.2087 93.5652" />
    <path d="M 118.567 20.1111 L 121.767 20.1111 L 118.567 24.1111 L 121.767 24.1111" />
    <path d="M 62.4 69 L 65.6 69 L 62.4 73 L 65.6 73" />
    <path d="M 74.4667 68.4 L 77.6667 68.4 L 74.4667 72.4 L 77.6667 72.4" />
    <path d="M 176.329 118.857 L 179.529 118.857 L 176.329 122.857 L 179.529 122.857" />
    <path d="M 130.543 121.714 L 133.743 121.714 L 130.543 125.714 L 133.743 125.714" />
    <path d="M 93.9 54.3333 L 97.1 54.3333 L 93.9 58.3333 L 97.1 58.3333" />
    <path d="M 155.622 179.833 L 158.822 179.833 L 155.622 183.833 L 158.822 183.833" />
    <path d="M 117.663 71.6316 L 120.863 71.6316 L 117.663 75.6316 L 120.863 75.6316" />
    <path d="M 66.1778 179.833 L 69.3778 179.833 L 66.1778 183.833 L 69.3778 183.833" />
    <path d="M 176.127 88.9091 L 179.327 88.9091 L 176.127 92.9091 L 179.327 92.9091" />
    <path d="M 79.9 18.2 L 83.1 18.2 L 79.9 22.2 L 83.1 22.2" />
    <path d="M 120.4 75.8889 L 123.6 75.8889 L 120.4 79.8889 L 123.6 79.8889" />
    <path d="M 19.9 116.5 L 23.1 116.5 L 19.9 120.5 L 23.1 120.5" />
    <path d="M 64.7571 121.214 L 67.9571 121.214 L 64.7571 125.214 L 67.9571 125.214" />
    <path d="M 146.275 104.375 L 149.475 104.375 L 146.275 108.375 L 149.475 108.375" />
    <path d="M 116.4 93 L 119.6 93 L 116.4 97 L 119.6 97" />
    <path d="M 91.275 105.875 L 94.475 105.875 L 91.275 109.875 L 94.475 109.875" />
    <path d="M 110.764 108.455 L 113.964 108.455 L 110.764 112.455 L 113.964 112.455" />
    <path d="M 137.862 20 L 141.062 20 L 137.862 24 L 141.062 24" />
    <path d="M 141.543 81.7143 L 144.743 81.7143 L 141.543 85.7143 L 144.743 85.7143" />
    <path d="M 112.337 64.875 L 115.537 64.875 L 112.337 68.875 L 115.537 68.875" />
    <path d="M 95.5765 135.235 L 98.7765 135.235 L 95.5765 139.235 L 98.7765 139.235" />
    <path d="M 77.7636 94.0909 L 80.9636 94.0909 L 77.7636 98.0909 L 80.9636 98.0909" />
    <path d="M 147.6 179.3 L 150.8 179.3 L 147.6 183.3 L 150.8 183.3" />
    <path d="M 99.7636 87.8182 L 102.964 87.8182 L 99.7636 91.8182 L 102.964 91.8182" />
    <path d="M 90.6143 134.643 L 93.8143 134.643 L 90.6143 138.643 L 93.8143 138.643" />
    <path d="M 121.25 134 L 124.45 134 L 121.25 138 L 124.45 138" />
    <path d="M 179.44 52.48 L 182.64 52.48 L 179.44 56.48 L 182.64 56.48" />
    <path d="M 128.979 99.1052 L 132.179 99.1052 L 128.979 103.105 L 132.179 103.105" />
    <path d="M 138.15 120 L 141.35 120 L 138.15 124 L 141.35 124" />
    <path d="M 178.786 146.608 L 181.992 146.608 L 178.786 150.615 L 181.992 150.615" />
    <path d="M 106.669 77.6538 L 109.869 77.6538 L 106.669 81.6538 L 109.869 81.6538" />
    <path d="M 124.874 64.7368 L 128.074 64.7368 L 124.874 68.7368 L 128.074 68.7368" />
    <path d="M 117.4 122.5 L 120.6 122.5 L 117.4 126.5 L 120.6 126.5" />
    <path d="M 86.5765 137.059 L 89.7765 137.059 L 86.5765 141.059 L 89.7765 141.059" />
    <path d="M 54.3167 79.25 L 57.5167 79.25 L 54.3167 83.25 L 57.5167 83.25" />
    <path d="M 155.242 19.8421 L 158.442 19.8421 L 155.242 23.8421 L 158.442 23.8421" />
    <path d="M 140.733 179.444 L 143.933 179.444 L 140.733 183.444 L 143.933 183.444" />
    <path d="M 83.15 86.1 L 86.35 86.1 L 83.15 90.1 L 86.35 90.1" />
    <path d="M 145.518 100.529 L 148.718 100.529 L 145.518 104.529 L 148.718 104.529" />
    <path d="M 123.7 138.75 L 126.9 138.75 L 123.7 142.75 L 126.9 142.75" />
    <path d="M 111.186 117.714 L 114.386 117.714 L 111.186 121.714 L 114.386 121.714" />
    <path d="M 102.933 126.733 L 106.133 126.733 L 102.933 130.733 L 106.133 130.733" />
    <path d="M 79.7 63.4 L 82.9 63.4 L 79.7 67.4 L 82.9 67.4" />
    <path d="M 65.4 104.85 L 68.6 104.85 L 65.4 108.85 L 68.6 108.85" />
    <path d="M 140.4 121.333 L 143.6 121.333 L 140.4 125.333 L 143.6 125.333" />
    <path d="M 133.511 63.8889 L 136.711 63.8889 L 133.511 67.8889 L 136.711 67.8889" />
    <path d="M 78.8667 57.7333 L 82.0667 57.7333 L 78.8667 61.7333 L 82.0667 61.7333" />
    <path d="M 132.9 178.5 L 136.1 178.5 L 132.9 182.5 L 136.1 182.5" />
    <path d="M 132.9 99 L 136.1 99 L 132.9 103 L 136.1 103" />
    <path d="M 178.6 69.3 L 181.8 69.3 L 178.6 73.3 L 181.8 73.3" />
    <path d="M 135.4 180 L 138.6 180 L 135.4 184 L 138.6 184" />
    <path d="M 103.067 176.167 L 106.267 176.167 L 103.067 180.167 L 106.267 180.167" />
    <path d="M 180.9 107 L 184.1 107 L 180.9 111 L 184.1 111" />
    <path d="M 18.48 161.68 L 21.68 161.68 L 18.48 165.68 L 21.68 165.68" />
    <path d="M 85.7333 60.9167 L 88.9333 60.9167 L 85.7333 64.9167 L 88.9333 64.9167" />
    <path d="M 61.9 72 L 65.1 72 L 61.9 76 L 65.1 76" />
    <path d="M 92.2333 122.167 L 95.4333 122.167 L 92.2333 126.167 L 95.4333 126.167" />
    <path d="M 100.4 140.895 L 103.6 140.895 L 100.4 144.895 L 103.6 144.895" />
    <path d="M 99.5579 145.737 L 102.758 145.737 L 99.5579 149.737 L 102.758 149.737" />
    <path d="M 60.7243 88 L 63.9243 88 L 60.7243 92 L 63.9243 92" />
    <path d="M 176.246 166 L 179.446 166 L 176.246 170 L 179.446 170" />
    <path d="M 91.1143 142.143 L 94.3143 142.143 L 91.1143 146.143 L 94.3143 146.143" />
    <path d="M 83.55 176.55 L 86.75 176.55 L 83.55 180.55 L 86.75 180.55" />
    <path d="M 179.9 132.318 L 183.1 132.318 L 179.9 136.318 L 183.1 136.318" />
    <path d="M 137.5 117.7 L 140.7 117.7 L 137.5 121.7 L 140.7 121.7" />
    <path d="M 80.525 108.875 L 83.725 108.875 L 80.525 112.875 L 83.725 112.875" />
    <path d="M 64.3655 85.6552 L 67.5655 85.6552 L 64.3655 89.6552 L 67.5655 89.6552" />
    <path d="M 134.169 176.231 L 137.369 176.231 L 134.169 180.231 L 137.369 180.231" />
    <path d="M 31 179.6 L 34.2 179.6 L 31 183.6 L 34.2 183.6" />
    <path d="M 122.55 72.55 L 125.75 72.55 L 122.55 76.55 L 125.75 76.55" />
    <path d="M 71.6857 75.5 L 74.8857 75.5 L 71.6857 79.5 L 74.8857 79.5" />
    <path d="M 20.775 98.625 L 23.975 98.625 L 20.775 102.625 L 23.975 102.625" />
    <path d="M 123.785 91.5385 L 126.985 91.5385 L 123.785 95.5385 L 126.985 95.5385" />
    <path d="M 111.127 180.273 L 114.327 180.273 L 111.127 184.273 L 114.327 184.273" />
    <path d="M 92.4 58.2105 L 95.6 58.2105 L 92.4 62.2105 L 95.6 62.2105" />
    <path d="M 66.5818 16.2727 L 69.7818 16.2727 L 66.5818 20.2727 L 69.7818 20.2727" />
    <path d="M 15.8 98.2 L 19 98.2 L 15.8 102.2 L 19 102.2" />
    <path d="M 122.6 58.6 L 125.8 58.6 L 122.6 62.6 L 125.8 62.6" />
    <path d="M 16.9385 80.8461 L 20.1385 80.8461 L 16.9385 84.8461 L 20.1385 84.8461" />
    <path d="M 113.036 125.091 L 116.236 125.091 L 113.036 129.091 L 116.236 129.091" />
    <path d="M 133.169 124.308 L 136.369 124.308 L 133.169 128.308 L 136.369 128.308" />
    <path d="M 103 74.95 L 106.2 74.95 L 103 78.95 L 106.2 78.95" />
    <path d="M 80.275 105.875 L 83.475 105.875 L 80.275 109.875 L 83.475 109.875" />
    <path d="M 137.344 97.7222 L 140.544 97.7222 L 137.344 101.722 L 140.544 101.722" />
    <path d="M 72.0667 116.75 L 75.2667 116.75 L 72.0667 120.75 L 75.2667 120.75" />
    <path d="M 117.015 67.4615 L 120.215 67.4615 L 117.015 71.4615 L 120.215 71.4615" />
    <path d="M 76.9 109.875 L 80.1 109.875 L 76.9 113.875 L 80.1 113.875" />
    <path d="M 92.7889 179.944 L 95.9889 179.944 L 92.7889 183.944 L 95.9889 183.944" />
    <path d="M 65.0296 93.3704 L 68.2296 93.3704 L 65.0296 97.3704 L 68.2296 97.3704" />
    <path d="M 67.5667 176.333 L 70.7667 176.333 L 67.5667 180.333 L 70.7667 180.333" />
    <path d="M 136 90.4 L 139.2 90.4 L 136 94.4 L 139.2 94.4" />
    <path d="M 71.0364 79.0909 L 74.2364 79.0909 L 71.0364 83.0909 L 74.2364 83.0909" />
    <path d="M 67.2462 116.308 L 70.4462 116.308 L 67.2462 120.308 L 70.4462 120.308" />
    <path d="M 134.6 117.5 L 137.8 117.5 L 134.6 121.5 L 137.8 121.5" />
    <path d="M 94.9 146.2 L 98.1 146.2 L 94.9 150.2 L 98.1 150.2" />
    <path d="M 62.3167 66.25 L 65.5167 66.25 L 62.3167 70.25 L 65.5167 70.25" />
    <path d="M 118.9 99 L 122.1 99 L 118.9 103 L 122.1 103" />
    <path d="M 90.4909 109.364 L 93.6909 109.364 L 90.4909 113.364 L 93.6909 113.364" />
    <path d="M 118.15 130.75 L 121.35 130.75 L 118.15 134.75 L 121.35 134.75" />
    <path d="M 35.5429 18.9286 L 38.7429 18.9286 L 35.5429 22.9286 L 38.7429 22.9286" />
    <path d="M 116.9 180 L 120.1 180 L 116.9 184 L 120.1 184" />
    <path d="M 71.2667 96.3333 L 74.4667 96.3333 L 71.2667 100.333 L 74.4667 100.333" />
    <path d="M 70.9 71.3 L 74.1 71.3 L 70.9 75.3 L 74.1 75.3" />
    <path d="M 180.333 159.2 L 183.533 159.2 L 180.333 163.2 L 183.533 163.2" />
    <path d="M 61.4 129.357 L 64.6 129.357 L 61.4 133.357 L 64.6 133.357" />
    <path d="M 121.4 180 L 124.6 180 L 121.4 184 L 124.6 184" />
    <path d="M 59.4 78.5263 L 62.6 78.5263 L 59.4 82.5263 L 62.6 82.5263" />
    <path d="M 86.5 107.2 L 89.7 107.2 L 86.5 111.2 L 89.7 111.2" />
    <path d="M 93.4833 107.417 L 96.6833 107.417 L 93.4833 111.417 L 96.6833 111.417" />
    <path d="M 108.092 177.577 L 111.292 177.577 L 108.092 181.577 L 111.292 181.577" />
    <path d="M 73.4 20 L 76.6 20 L 73.4 24 L 76.6 24" />
    <path d="M 76.0667 75.2667 L 79.2667 75.2667 L 76.0667 79.2667 L 79.2667 79.2667" />
    <path d="M 111.518 59.4706 L 114.718 59.4706 L 111.518 63.4706 L 114.718 63.4706" />
    <path d="M 137.043 70.4286 L 140.243 70.4286 L 137.043 74.4286 L 140.243 74.4286" />
    <path d="M 17.5667 97.6667 L 20.7667 97.6667 L 17.5667 101.667 L 20.7667 101.667" />
    <path d="M 75.4 84.5 L 78.6 84.5 L 75.4 88.5 L 78.6 88.5" />
    <path d="M 15.8286 87.2857 L 19.0286 87.2857 L 15.8286 91.2857 L 19.0286 91.2857" />
    <path d="M 16.3286 145.857 L 19.5286 145.857 L 16.3286 149.857 L 19.5286 149.857" />
    <path d="M 17.4476 173.857 L 20.6476 173.857 L 17.4476 177.857 L 20.6476 177.857" />
    <path d="M 17.0154 18.3077 L 20.2154 18.3077 L 17.0154 22.3077 L 20.2154 22.3077" />
    <path d="M 76.7077 65.5385 L 79.9077 65.5385 L 76.7077 69.5385 L 79.9077 69.5385" />
    <path d="M 56.9 116.5 L 60.1 116.5 L 56.9 120.5 L 60.1 120.5" />
    <path d="M 95.1778 84.5555 L 98.3778 84.5555 L 95.1778 88.5555 L 98.3778 88.5555" />
    <path d="M 65.3091 69.6364 L 68.5091 69.6364 L 65.3091 73.6364 L 68.5091 73.6364" />
    <path d="M 20.3333 72.9333 L 23.5333 72.9333 L 20.3333 76.9333 L 23.5333 76.9333" />
    <path d="M 63.9333 78.6667 L 67.1333 78.6667 L 63.9333 82.6667 L 67.1333 82.6667" />
    <path d="M 176.5 141.9 L 179.7 141.9 L 176.5 145.9 L 179.7 145.9" />
    <path d="M 110.829 52.0357 L 114.029 52.0357 L 110.829 56.0357 L 114.029 56.0357" />
    <path d="M 87.9 123.778 L 91.1 123.778 L 87.9 127.778 L 91.1 127.778" />
    <path d="M 88.9 107 L 92.1 107 L 88.9 111 L 92.1 111" />
    <path d="M 68.4 74.5 L 71.6 74.5 L 68.4 78.5 L 71.6 78.5" />
    <path d="M 179.829 89.8571 L 183.029 89.8571 L 179.829 93.8571 L 183.029 93.8571" />
    <path d="M 90.4909 70.9091 L 93.6909 70.9091 L 90.4909 74.9091 L 93.6909 74.9091" />
    <path d="M 108.855 110.818 L 112.055 110.818 L 108.855 114.818 L 112.055 114.818" />
    <path d="M 149.4 20 L 152.6 20 L 149.4 24 L 152.6 24" />
    <path d="M 78.0667 15.7778 L 81.2667 15.7778 L 78.0667 19.7778 L 81.2667 19.7778" />
    <path d="M 84.4 115.158 L 87.6 115.158 L 84.4 119.158 L 87.6 119.158" />
    <path d="M 69.8445 59.8889 L 73.0445 59.8889 L 69.8445 63.8889 L 73.0445 63.8889" />
    <path d="M 25.9 19.8889 L 29.1 19.8889 L 25.9 23.8889 L 29.1 23.8889" />
    <path d="M 75.2462 86.9231 L 78.4462 86.9231 L 75.2462 90.9231 L 78.4462 90.9231" />
    <path d="M 118.4 16.3333 L 121.6 16.3333 L 118.4 20.3333 L 121.6 20.3333" />
    <path d="M 179.467 163.2 L 182.667 163.2 L 179.467 167.2 L 182.667 167.2" />
    <path d="M 179.275 16.875 L 182.475 16.875 L 179.275 20.875 L 182.475 20.875" />
    <path d="M 60.7158 106.368 L 63.9158 106.368 L 60.7158 110.368 L 63.9158 110.368" />
    <path d="M 84.8706 91 L 88.0706 91 L 84.8706 95 L 88.0706 95" />
    <path d="M 66.9714 119.143 L 70.1714 119.143 L 66.9714 123.143 L 70.1714 123.143" />
    <path d="M 130.15 75.7 L 133.35 75.7 L 130.15 79.7 L 133.35 79.7" />
    <path d="M 116.137 53.1579 L 119.337 53.1579 L 116.137 57.1579 L 119.337 57.1579" />
    <path d="M 125.764 179.909 L 128.964 179.909 L 125.764 183.909 L 128.964 183.909" />
    <path d="M 20.4909 139.636 L 23.6909 139.636 L 20.4909 143.636 L 23.6909 143.636" />
    <path d="M 96.3286 143.357 L 99.5286 143.357 L 96.3286 147.357 L 99.5286 147.357" />
    <path d="M 114.218 68.4546 L 117.418 68.4546 L 114.218 72.4546 L 117.418 72.4546" />
    <path d="M 144.753 16.5294 L 147.953 16.5294 L 144.753 20.5294 L 147.953 20.5294" />
    <path d="M 180.525 74.5 L 183.725 74.5 L 180.525 78.5 L 183.725 78.5" />
    <path d="M 129 103.4 L 132.2 103.4 L 129 107.4 L 132.2 107.4" />
    <path d="M 115.463 74.8125 L 118.662 74.8125 L 115.463 78.8125 L 118.662 78.8125" />
    <path d="M 77.4 140.5 L 80.6 140.5 L 77.4 144.5 L 80.6 144.5" />
    <path d="M 77.8118 71.1177 L 81.0118 71.1177 L 77.8118 75.1177 L 81.0118 75.1177" />
    <path d="M 99.0471 180.059 L 102.247 180.059 L 99.0471 184.059 L 102.247 184.059" />
    <path d="M 131.789 94.4445 L 134.989 94.4445 L 131.789 98.4445 L 134.989 98.4445" />
    <path d="M 105.733 138.056 L 108.933 138.056 L 105.733 142.056 L 108.933 142.056" />
    <path d="M 73.4833 60.25 L 76.6833 60.25 L 73.4833 64.25 L 76.6833 64.25" />
    <path d="M 181 87.8 L 184.2 87.8 L 181 91.8 L 184.2 91.8" />
    <path d="M 81.2095 120.381 L 84.4095 120.381 L 81.2095 124.381 L 84.4095 124.381" />
    <path d="M 84.1333 51.9333 L 87.3333 51.9333 L 84.1333 55.9333 L 87.3333 55.9333" />
    <path d="M 104.977 50.6923 L 108.177 50.6923 L 104.977 54.6923 L 108.177 54.6923" />
    <path d="M 149.9 176.286 L 153.1 176.286 L 149.9 180.286 L 153.1 180.286" />
    <path d="M 57.2333 123.5 L 60.4333 123.5 L 57.2333 127.5 L 60.4333 127.5" />
    <path d="M 171.9 18.625 L 175.1 18.625 L 171.9 22.625 L 175.1 22.625" />
    <path d="M 103.133 87.3333 L 106.333 87.3333 L 103.133 91.3333 L 106.333 91.3333" />
    <path d="M 126.9 90.6667 L 130.1 90.6667 L 126.9 94.6667 L 130.1 94.6667" />
    <path d="M 109.317 126.667 L 112.517 126.667 L 109.317 130.667 L 112.517 130.667" />
    <path d="M 122.114 68.5238 L 125.314 68.5238 L 122.114 72.5238 L 125.314 72.5238" />
    <path d="M 114.21 56.6667 L 117.41 56.6667 L 114.21 60.6667 L 117.41 60.6667" />
    <path d="M 141.4 19.5 L 144.6 19.5 L 141.4 23.5 L 144.6 23.5" />
    <path d="M 16.1778 91.8889 L 19.3778 91.8889 L 16.1778 95.8889 L 19.3778 95.8889" />
    <path d="M 55.2182 120.091 L 58.4182 120.091 L 55.2182 124.091 L 58.4182 124.091" />
    <path d="M 42.3375 19.875 L 45.5375 19.875 L 42.3375 23.875 L 45.5375 23.875" />
    <path d="M 179 174.1 L 182.2 174.1 L 179 178.1 L 182.2 178.1" />
    <path d="M 145.956 90.8889 L 149.156 90.8889 L 145.956 94.8889 L 149.156 94.8889" />
    <path d="M 83.7333 66.8667 L 86.9333 66.8667 L 83.7333 70.8667 L 86.9333 70.8667" />
    <path d="M 125.047 20.0588 L 128.247 20.0588 L 125.047 24.0588 L 128.247 24.0588" />
    <path d="M 96.9625 59.25 L 100.163 59.25 L 96.9625 63.25 L 100.163 63.25" />
    <path d="M 72.4588 176.235 L 75.6588 176.235 L 72.4588 180.235 L 75.6588 180.235" />
    <path d="M 95.8445 114.889 L 99.0445 114.889 L 95.8445 118.889 L 99.0445 118.889" />
    <path d="M 136.15 101.25 L 139.35 101.25 L 136.15 105.25 L 139.35 105.25" />
    <path d="M 103.8 115.6 L 107 115.6 L 103.8 119.6 L 107 119.6" />
    <path d="M 177.525 91.875 L 180.725 91.875 L 177.525 95.875 L 180.725 95.875" />
    <path d="M 137.246 127 L 140.446 127 L 137.246 131 L 140.446 131" />
    <path d="M 84.4909 16.6364 L 87.6909 16.6364 L 84.4909 20.6364 L 87.6909 20.6364" />
    <path d="M 130.9 107.286 L 134.1 107.286 L 130.9 111.286 L 134.1 111.286" />
    <path d="M 96.9 55.1875 L 100.1 55.1875 L 96.9 59.1875 L 100.1 59.1875" />
    <path d="M 17.1727 40.7727 L 20.3727 40.7727 L 17.1727 44.7727 L 20.3727 44.7727" />
    <path d="M 84.4556 81.2778 L 87.6556 81.2778 L 84.4556 85.2778 L 87.6556 85.2778" />
    <path d="M 103.4 20 L 106.6 20 L 103.4 24 L 106.6 24" />
    <path d="M 130.576 19.9412 L 133.776 19.9412 L 130.576 23.9412 L 133.776 23.9412" />
    <path d="M 140.785 75.6154 L 143.985 75.6154 L 140.785 79.6154 L 143.985 79.6154" />
    <path d="M 104.282 179.706 L 107.482 179.706 L 104.282 183.706 L 107.482 183.706" />
    <path d="M 83.3 57.05 L 86.5 57.05 L 83.3 61.05 L 86.5 61.05" />
    <path d="M 55 16.4 L 58.2 16.4 L 55 20.4 L 58.2 20.4" />
    <path d="M 20.4909 131.364 L 23.6909 131.364 L 20.4909 135.364 L 23.6909 135.364" />
    <path d="M 16.4 135.3 L 19.6 135.3 L 16.4 139.3 L 19.6 139.3" />
    <path d="M 134.631 78 L 137.831 78 L 134.631 82 L 137.831 82" />
    <path d="M 118.65 95.6667 L 121.85 95.6667 L 118.65 99.6667 L 121.85 99.6667" />
    <path d="M 122.25 115.55 L 125.45 115.55 L 122.25 119.55 L 125.45 119.55" />
    <path d="M 87.8 16.4 L 91 16.4 L 87.8 20.4 L 91 20.4" />
    <path d="M 76.25 179.45 L 79.45 179.45 L 76.25 183.45 L 79.45 183.45" />
    <path d="M 176.4 161.154 L 179.6 161.154 L 176.4 165.154 L 179.6 165.154" />
    <path d="M 180.9 69 L 184.1 69 L 180.9 73 L 184.1 73" />
    <path d="M 33.2667 16.0667 L 36.4667 16.0667 L 33.2667 20.0667 L 36.4667 20.0667" />
    <path d="M 57.7 179.75 L 60.9 179.75 L 57.7 183.75 L 60.9 183.75" />
    <path d="M 141.567 99.5833 L 144.767 99.5833 L 141.567 103.583 L 144.767 103.583" />
    <path d="M 16.1778 104.333 L 19.3778 104.333 L 16.1778 108.333 L 19.3778 108.333" />
    <path d="M 103.114 119.5 L 106.314 119.5 L 103.114 123.5 L 106.314 123.5" />
    <path d="M 20.6222 113.333 L 23.8222 113.333 L 20.6222 117.333 L 23.8222 117.333" />
    <path d="M 180.673 176.273 L 183.873 176.273 L 180.673 180.273 L 183.873 180.273" />
    <path d="M 16.8667 177.933 L 20.0667 177.933 L 16.8667 181.933 L 20.0667 181.933" />
    <path d="M 92.4 144.714 L 95.6 144.714 L 92.4 148.714 L 95.6 148.714" />
    <path d="M 75.0154 115.462 L 78.2154 115.462 L 75.0154 119.462 L 78.2154 119.462" />
    <path d="M 67.2333 134.5 L 70.4333 134.5 L 67.2333 138.5 L 70.4333 138.5" />
    <path d="M 127.352 116.19 L 130.552 116.19 L 127.352 120.19 L 130.552 120.19" />
    <path d="M 105.4 108.917 L 108.6 108.917 L 105.4 112.917 L 108.6 112.917" />
    <path d="M 16.65 46.3 L 19.85 46.3 L 16.65 50.3 L 19.85 50.3" />
    <path d="M 110.673 137.682 L 113.873 137.682 L 110.673 141.682 L 113.873 141.682" />
    <path d="M 20.4909 135.364 L 23.6909 135.364 L 20.4909 139.364 L 23.6909 139.364" />
    <path d="M 61.2333 114.667 L 64.4333 114.667 L 61.2333 118.667 L 64.4333 118.667" />
    <path d="M 18.15 137.25 L 21.35 137.25 L 18.15 141.25 L 21.35 141.25" />
    <path d="M 144.032 113.684 L 147.232 113.684 L 144.032 117.684 L 147.232 117.684" />
    <path d="M 177.032 61.7368 L 180.232 61.7368 L 177.032 65.7368 L 180.232 65.7368" />
    <path d="M 104.233 70.5 L 107.433 70.5 L 104.233 74.5 L 107.433 74.5" />
    <path d="M 20.525 62.75 L 23.725 62.75 L 20.525 66.75 L 23.725 66.75" />
    <path d="M 139.127 85.7273 L 142.327 85.7273 L 139.127 89.7273 L 142.327 89.7273" />
    <path d="M 148.4 16.5 L 151.6 16.5 L 148.4 20.5 L 151.6 20.5" />
    <path d="M 77.9 113.5 L 81.1 113.5 L 77.9 117.5 L 81.1 117.5" />
    <path d="M 125.067 77.1429 L 128.267 77.1429 L 125.067 81.1429 L 128.267 81.1429" />
    <path d="M 85.4556 119 L 88.6555 119 L 85.4556 123 L 88.6555 123" />
    <path d="M 142.525 85.125 L 145.725 85.125 L 142.525 89.125 L 145.725 89.125" />
    <path d="M 75.8 119.8 L 79 119.8 L 75.8 123.8 L 79 123.8" />
    <path d="M 66.5667 80.6667 L 69.7667 80.6667 L 66.5667 84.6667 L 69.7667 84.6667" />
    <path d="M 176.178 70.3333 L 179.378 70.3333 L 176.178 74.3333 L 179.378 74.3333" />
    <path d="M 73.25 99.75 L 76.45 99.75 L 73.25 103.75 L 76.45 103.75" />
    <path d="M 106.329 120.143 L 109.529 120.143 L 106.329 124.143 L 109.529 124.143" />
    <path d="M 20.4 81 L 23.6 81 L 20.4 85 L 23.6 85" />
    <path d="M 95.6 176.733 L 98.8 176.733 L 95.6 180.733 L 98.8 180.733" />
    <path d="M 151.477 16.6923 L 154.677 16.6923 L 151.477 20.6923 L 154.677 20.6923" />
    <path d="M 132.275 88.875 L 135.475 88.875 L 132.275 92.875 L 135.475 92.875" />
    <path d="M 125.9 176.5 L 129.1 176.5 L 125.9 180.5 L 129.1 180.5" />
    <path d="M 142.622 105.5 L 145.822 105.5 L 142.622 109.5 L 145.822 109.5" />
    <path d="M 95.6857 87.0714 L 98.8857 87.0714 L 95.6857 91.0714 L 98.8857 91.0714" />
    <path d="M 19.9 108 L 23.1 108 L 19.9 112 L 23.1 112" />
    <path d="M 134.817 107.083 L 138.017 107.083 L 134.817 111.083 L 138.017 111.083" />
    <path d="M 62.7846 124.923 L 65.9846 124.923 L 62.7846 128.923 L 65.9846 128.923" />
    <path d="M 20.2889 42.8333 L 23.4889 42.8333 L 20.2889 46.8333 L 23.4889 46.8333" />
    <path d="M 109.282 67.8824 L 112.482 67.8824 L 109.282 71.8824 L 112.482 71.8824" />
    <path d="M 77.6 106.5 L 80.8 106.5 L 77.6 110.5 L 80.8 110.5" />
    <path d="M 87.2889 145.222 L 90.4889 145.222 L 87.2889 149.222 L 90.4889 149.222" />
    <path d="M 82.8286 106.857 L 86.0286 106.857 L 82.8286 110.857 L 86.0286 110.857" />
    <path d="M 70.4 67.2143 L 73.6 67.2143 L 70.4 71.2143 L 73.6 71.2143" />
    <path d="M 53.3231 116.077 L 56.5231 116.077 L 53.3231 120.077 L 56.5231 120.077" />
    <path d="M 65.0667 127.733 L 68.2667 127.733 L 65.0667 131.733 L 68.2667 131.733" />
    <path d="M 67.0154 66.3846 L 70.2154 66.3846 L 67.0154 70.3846 L 70.2154 70.3846" />
    <path d="M 145.567 86.1667 L 148.767 86.1667 L 145.567 90.1667 L 148.767 90.1667" />
    <path d="M 92.0429 100 L 95.2429 100 L 92.0429 104 L 95.2429 104" />
    <path d="M 78.4 100 L 81.6 100 L 78.4 104 L 81.6 104" />
    <path d="M 90.5111 85.8889 L 93.7111 85.8889 L 90.5111 89.8889 L 93.7111 89.8889" />
    <path d="M 81.0842 74.3158 L 84.2842 74.3158 L 81.0842 78.3158 L 84.2842 78.3158" />
    <path d="M 17.4833 23.3333 L 20.6833 23.3333 L 17.4833 27.3333 L 20.6833 27.3333" />
    <path d="M 154.8 16.4 L 158 16.4 L 154.8 20.4 L 158 20.4" />
    <path d="M 20.4625 179.812 L 23.6625 179.812 L 20.4625 183.812 L 23.6625 183.812" />
    <path d="M 103.8 141.867 L 107 141.867 L 103.8 145.867 L 107 145.867" />
    <path d="M 126.733 80.8333 L 129.933 80.8333 L 126.733 84.8333 L 129.933 84.8333" />
    <path d="M 164.021 178.138 L 167.221 178.138 L 164.021 182.138 L 167.221 182.138" />
    <path d="M 122.459 119.235 L 125.659 119.235 L 122.459 123.235 L 125.659 123.235" />
    <path d="M 125.036 99.0909 L 128.236 99.0909 L 125.036 103.091 L 128.236 103.091" />
    <path d="M 146.6 96.2667 L 149.8 96.2667 L 146.6 100.267 L 149.8 100.267" />
    <path d="M 168.933 19.5333 L 172.133 19.5333 L 168.933 23.5333 L 172.133 23.5333" />
    <path d="M 98.6143 19.9286 L 101.814 19.9286 L 98.6143 23.9286 L 101.814 23.9286" />
    <path d="M 116.323 111.538 L 119.523 111.538 L 116.323 115.538 L 119.523 115.538" />
    <path d="M 100.169 104.615 L 103.369 104.615 L 100.169 108.615 L 103.369 108.615" />
    <path d="M 122.267 62.0667 L 125.467 62.0667 L 122.267 66.0667 L 125.467 66.0667" />
    <path d="M 42.9 179.5 L 46.1 179.5 L 42.9 183.5 L 46.1 183.5" />
    <path d="M 87.95 132.05 L 91.15 132.05 L 87.95 136.05 L 91.15 136.05" />
    <path d="M 20.5111 36.1667 L 23.7111 36.1667 L 20.5111 40.1667 L 23.7111 40.1667" />
    <path d="M 28.775 176.563 L 31.975 176.563 L 28.775 180.563 L 31.975 180.563" />
    <path d="M 39.025 179.437 L 42.225 179.437 L 39.025 183.437 L 42.225 183.437" />
    <path d="M 131.686 180.571 L 134.886 180.571 L 131.686 184.571 L 134.886 184.571" />
    <path d="M 180.218 19.3636 L 183.418 19.3636 L 180.218 23.3636 L 183.418 23.3636" />
    <path d="M 123.9 124 L 127.1 124 L 123.9 128 L 127.1 128" />
    <path d="M 118.956 106.111 L 122.156 106.111 L 118.956 110.111 L 122.156 110.111" />
    <path d="M 20.2462 123.538 L 23.4462 123.538 L 20.2462 127.538 L 23.4462 127.538" />
    <path d="M 138.275 180.125 L 141.475 180.125 L 138.275 184.125 L 141.475 184.125" />
    <path d="M 16.525 118 L 19.725 118 L 16.525 122 L 19.725 122" />
    <path d="M 115.686 140.095 L 118.886 140.095 L 115.686 144.095 L 118.886 144.095" />
    <path d="M 19.8667 149 L 23.0667 149 L 19.8667 153 L 23.0667 153" />
    <path d="M 16.275 142.125 L 19.475 142.125 L 16.275 146.125 L 19.475 146.125" />
    <path d="M 129.4 89.4667 L 132.6 89.4667 L 129.4 93.4667 L 132.6 93.4667" />
    <path d="M 64.2182 63.8182 L 67.4182 63.8182 L 64.2182 67.8182 L 67.4182 67.8182" />
    <path d="M 71.9385 88.8462 L 75.1385 88.8462 L 71.9385 92.8462 L 75.1385 92.8462" />
    <path d="M 18.2333 165.667 L 21.4333 165.667 L 18.2333 169.667 L 21.4333 169.667" />
    <path d="M 80.5875 53.3125 L 83.7875 53.3125 L 80.5875 57.3125 L 83.7875 57.3125" />
    <path d="M 82.9 100.5 L 86.1 100.5 L 82.9 104.5 L 86.1 104.5" />
    <path d="M 100.65 63.5 L 103.85 63.5 L 100.65 67.5 L 103.85 67.5" />
    <path d="M 88.0154 112.077 L 91.2154 112.077 L 88.0154 116.077 L 91.2154 116.077" />
    <path d="M 20.0364 145.909 L 23.2364 145.909 L 20.0364 149.909 L 23.2364 149.909" />
    <path d="M 16.6941 157.882 L 19.8941 157.882 L 16.6941 161.882 L 19.8941 161.882" />
    <path d="M 178.582 65.8182 L 181.782 65.8182 L 178.582 69.8182 L 181.782 69.8182" />
    <path d="M 88 176.4 L 91.2 176.4 L 88 180.4 L 91.2 180.4" />
    <path d="M 101.733 111.733 L 104.933 111.733 L 101.733 115.733 L 104.933 115.733" />
    <path d="M 74.4833 78.75 L 77.6833 78.75 L 74.4833 82.75 L 77.6833 82.75" />
    <path d="M 83.775 123.5 L 86.975 123.5 L 83.775 127.5 L 86.975 127.5" />
    <path d="M 114.8 99.4 L 118 99.4 L 114.8 103.4 L 118 103.4" />
    <path d="M 178.7 82.3 L 181.9 82.3 L 178.7 86.3 L 181.9 86.3" />
    <path d="M 178.218 121.818 L 181.418 121.818 L 178.218 125.818 L 181.418 125.818" />
    <path d="M 95.025 70.25 L 98.225 70.25 L 95.025 74.25 L 98.225 74.25" />
    <path d="M 19 76.7 L 22.2 76.7 L 19 80.7 L 22.2 80.7" />
    <path d="M 139.867 89.7333 L 143.067 89.7333 L 139.867 93.7333 L 143.067 93.7333" />
    <path d="M 59.0429 69.3572 L 62.2429 69.3572 L 59.0429 73.3572 L 62.2429 73.3572" />
    <path d="M 77.0428 89.5714 L 80.2428 89.5714 L 77.0428 93.5714 L 80.2428 93.5714" />
    <path d="M 83.4 109.25 L 86.6 109.25 L 83.4 113.25 L 86.6 113.25" />
    <path d="M 73.2421 126.684 L 76.4421 126.684 L 73.2421 130.684 L 76.4421 130.684" />
    <path d="M 102.032 130.789 L 105.232 130.789 L 102.032 134.789 L 105.232 134.789" />
    <path d="M 89.9 138.667 L 93.1 138.667 L 89.9 142.667 L 93.1 142.667" />
    <path d="M 112.764 127.909 L 115.964 127.909 L 112.764 131.909 L 115.964 131.909" />
    <path d="M 70.5333 119.933 L 73.7333 119.933 L 70.5333 123.933 L 73.7333 123.933" />
    <path d="M 20.1647 67.9412 L 23.3647 67.9412 L 20.1647 71.9412 L 23.3647 71.9412" />
    <path d="M 123.4 84.2857 L 126.6 84.2857 L 123.4 88.2857 L 126.6 88.2857" />
    <path d="M 60.2889 93.7778 L 63.4889 93.7778 L 60.2889 97.7778 L 63.4889 97.7778" />
    <path d="M 164.712 19.4375 L 167.913 19.4375 L 164.712 23.4375 L 167.913 23.4375" />
    <path d="M 115.467 103.267 L 118.667 103.267 L 115.467 107.267 L 118.667 107.267" />
    <path d="M 19.9 93 L 23.1 93 L 19.9 97 L 23.1 97" />
    <path d="M 83.3524 134.19 L 86.5524 134.19 L 83.3524 138.19 L 86.5524 138.19" />
    <path d="M 81.6632 179.842 L 84.8632 179.842 L 81.6632 183.842 L 84.8632 183.842" />
    <path d="M 127.067 106.333 L 130.267 106.333 L 127.067 110.333 L 130.267 110.333" />
    <path d="M 67.9385 77.1538 L 71.1385 77.1538 L 67.9385 81.1538 L 71.1385 81.1538" />
    <path d="M 31.5875 19.8125 L 34.7875 19.8125 L 31.5875 23.8125 L 34.7875 23.8125" />
    <path d="M 122.1 177.2 L 125.3 177.2 L 122.1 181.2 L 125.3 181.2" />
    <path d="M 54.5429 176.714 L 57.7429 176.714 L 54.5429 180.714 L 57.7429 180.714" />
    <path d="M 16.7636 69.0909 L 19.9636 69.0909 L 16.7636 73.0909 L 19.9636 73.0909" />
    <path d="M 133.855 120.636 L 137.055 120.636 L 133.855 124.636 L 137.055 124.636" />
    <path d="M 79.9 20.5 L 83.1 20.5 L 79.9 24.5 L 83.1 24.5" />
    <path d="M 119.829 55.7619 L 123.029 55.7619 L 119.829 59.7619 L 123.029 59.7619" />
    <path d="M 85.7571 64.1429 L 88.9571 64.1429 L 85.7571 68.1429 L 88.9571 68.1429" />
    <path d="M 177.233 73 L 180.433 73 L 177.233 77 L 180.433 77" />
    <path d="M 128.567 180.333 L 131.767 180.333 L 128.567 184.333 L 131.767 184.333" />
    <path d="M 20.0364 119.909 L 23.2364 119.909 L 20.0364 123.909 L 23.2364 123.909" />
    <path d="M 128.35 84.9 L 131.55 84.9 L 128.35 88.9 L 131.55 88.9" />
    <path d="M 125.829 127.571 L 129.029 127.571 L 125.829 131.571 L 129.029 131.571" />
    <path d="M 176.582 176.273 L 179.782 176.273 L 176.582 180.273 L 179.782 180.273" />
    <path d="M 21.5053 175.895 L 24.7053 175.895 L 21.5053 179.895 L 24.7053 179.895" />
    <path d="M 38.2 20.1 L 41.4 20.1 L 38.2 24.1 L 41.4 24.1" />
    <path d="M 180.6 84.5 L 183.8 84.5 L 180.6 88.5 L 183.8 88.5" />
    <path d="M 180.257 33.5238 L 183.457 33.5238 L 180.257 37.5238 L 183.457 37.5238" />
    <path d="M 115.178 78.3889 L 118.378 78.3889 L 115.178 82.3889 L 118.378 82.3889" />
    <path d="M 86.7846 55.3846 L 89.9846 55.3846 L 86.7846 59.3846 L 89.9846 59.3846" />
    <path d="M 89.2824 115.588 L 92.4824 115.588 L 89.2824 119.588 L 92.4824 119.588" />
    <path d="M 71.3091 85.3636 L 74.5091 85.3636 L 71.3091 89.3636 L 74.5091 89.3636" />
    <path d="M 16.8 65.4 L 20 65.4 L 16.8 69.4 L 20 69.4" />
    <path d="M 107.511 72 L 110.711 72 L 107.511 76 L 110.711 76" />
    <path d="M 133.2 82.1 L 136.4 82.1 L 133.2 86.1 L 136.4 86.1" />
    <path d="M 131.4 70.6471 L 134.6 70.6471 L 131.4 74.6471 L 134.6 74.6471" />
    <path d="M 74.5333 95.5333 L 77.7333 95.5333 L 74.5333 99.5333 L 77.7333 99.5333" />
    <path d="M 68.2 19.3 L 71.4 19.3 L 68.2 23.3 L 71.4 23.3" />
    <path d="M 73.8286 72 L 77.0286 72 L 73.8286 76 L 77.0286 76" />
    <path d="M 178.4 86.2857 L 181.6 86.2857 L 178.4 90.2857 L 181.6 90.2857" />
    <path d="M 119.178 113.111 L 122.378 113.111 L 119.178 117.111 L 122.378 117.111" />
    <path d="M 68.275 69.875 L 71.475 69.875 L 68.275 73.875 L 71.475 73.875" />
    <path d="M 178.836 45.5128 L 182.036 45.5128 L 178.836 49.5128 L 182.036 49.5128" />
    <path d="M 83.9 20 L 87.1 20 L 83.9 24 L 87.1 24" />
    <path d="M 139.2 177.4 L 142.4 177.4 L 139.2 181.4 L 142.4 181.4" />
    <path d="M 116.525 89.875 L 119.725 89.875 L 116.525 93.875 L 119.725 93.875" />
    <path d="M 85.5818 110.455 L 88.7818 110.455 L 85.5818 114.455 L 88.7818 114.455" />
    <path d="M 58.4714 176 L 61.6714 176 L 58.4714 180 L 61.6714 180" />
    <path d="M 160.505 19.5789 L 163.705 19.5789 L 160.505 23.5789 L 163.705 23.5789" />
    <path d="M 17.9789 154 L 21.1789 154 L 17.9789 158 L 21.1789 158" />
    <path d="M 74.4 105.375 L 77.6 105.375 L 74.4 109.375 L 77.6 109.375" />
    <path d="M 103.812 54.8823 L 107.012 54.8823 L 103.812 58.8823 L 107.012 58.8823" />
    <path d="M 178.4 88.25 L 181.6 88.25 L 178.4 92.25 L 181.6 92.25" />
    <path d="M 133.862 130.846 L 137.062 130.846 L 133.862 134.846 L 137.062 134.846" />
    <path d="M 94.3474 95.9474 L 97.5474 95.9474 L 94.3474 99.9474 L 97.5474 99.9474" />
    <path d="M 169.137 179.842 L 172.337 179.842 L 169.137 183.842 L 172.337 183.842" />
    <path d="M 132.983 84.8333 L 136.183 84.8333 L 132.983 88.8333 L 136.183 88.8333" />
    <path d="M 81.1368 130.632 L 84.3368 130.632 L 81.1368 134.632 L 84.3368 134.632" />
    <path d="M 135.9 86.7143 L 139.1 86.7143 L 135.9 90.7143 L 139.1 90.7143" />
    <path d="M 96.9 139.286 L 100.1 139.286 L 96.9 143.286 L 100.1 143.286" />
    <path d="M 55.4385 106.5 L 58.6385 106.5 L 55.4385 110.5 L 58.6385 110.5" />
    <path d="M 103.753 16.5882 L 106.953 16.5882 L 103.753 20.5882 L 106.953 20.5882" />
    <path d="M 122.2 16.9333 L 125.4 16.9333 L 122.2 20.9333 L 125.4 20.9333" />
    <path d="M 17.7667 52.3333 L 20.9667 52.3333 L 17.7667 56.3333 L 20.9667 56.3333" />
    <path d="M 176.764 16.3636 L 179.964 16.3636 L 176.764 20.3636 L 179.964 20.3636" />
    <path d="M 76.5 19.8 L 79.7 19.8 L 76.5 23.8 L 79.7 23.8" />
    <path d="M 89.2667 119.667 L 92.4667 119.667 L 89.2667 123.667 L 92.4667 123.667" />
    <path d="M 88.4 104.5 L 91.6 104.5 L 88.4 108.5 L 91.6 108.5" />
    <path d="M 85.6 128.45 L 88.8 128.45 L 85.6 132.45 L 88.8 132.45" />
    <path d="M 154.663 176.158 L 157.863 176.158 L 154.663 180.158 L 157.863 180.158" />
    <path d="M 133.8 110.4 L 137 110.4 L 133.8 114.4 L 137 114.4" />
    <path d="M 95.2889 126.611 L 98.4889 126.611 L 95.2889 130.611 L 98.4889 130.611" />
    <path d="M 77.1222 130.889 L 80.3222 130.889 L 77.1222 134.889 L 80.3222 134.889" />
    <path d="M 176.15 84.0833 L 179.35 84.0833 L 176.15 88.0833 L 179.35 88.0833" />
    <path d="M 102.257 67.5 L 105.457 67.5 L 102.257 71.5 L 105.457 71.5" />
    <path d="M 118.15 59.875 L 121.35 59.875 L 118.15 63.875 L 121.35 63.875" />
    <path d="M 127.282 68.5882 L 130.482 68.5882 L 127.282 72.5882 L 130.482 72.5882" />
    <path d="M 112.4 70.6429 L 115.6 70.6429 L 112.4 74.6429 L 115.6 74.6429" />
    <path d="M 17.3333 61.6667 L 20.5333 61.6667 L 17.3333 65.6667 L 20.5333 65.6667" />
    <path d="M 176.558 151.526 L 179.758 151.526 L 176.558 155.526 L 179.758 155.526" />
    <path d="M 73.6857 130.357 L 76.8857 130.357 L 73.6857 134.357 L 76.8857 134.357" />
    <path d="M 75.3091 16.6364 L 78.5091 16.6364 L 75.3091 20.6364 L 78.5091 20.6364" />
    <path d="M 139.246 72.6923 L 142.446 72.6923 L 139.246 76.6923 L 142.446 76.6923" />
    <path d="M 113.733 17.7 L 116.933 17.7 L 113.733 21.7 L 116.933 21.7" />
    <path d="M 103.495 96.7143 L 106.695 96.7143 L 103.495 100.714 L 106.695 100.714" />
    <path d="M 180.036 96.9091 L 183.236 96.9091 L 180.036 100.909 L 183.236 100.909" />
    <path d="M 119.463 141.562 L 122.663 141.562 L 119.463 145.562 L 122.663 145.562" />
    <path d="M 98.979 74.8947 L 102.179 74.8947 L 98.979 78.8947 L 102.179 78.8947" />
    <path d="M 93.0154 137.615 L 96.2154 137.615 L 93.0154 141.615 L 96.2154 141.615" />
    <path d="M 129.9 176 L 133.1 176 L 129.9 180 L 133.1 180" />
    <path d="M 61.7333 19.9167 L 64.9333 19.9167 L 61.7333 23.9167 L 64.9333 23.9167" />
    <path d="M 126.733 132.238 L 129.933 132.238 L 126.733 136.238 L 129.933 136.238" />
    <path d="M 79.2333 110.833 L 82.4333 110.833 L 79.2333 114.833 L 82.4333 114.833" />
    <path d="M 89.65 97.4375 L 92.85 97.4375 L 89.65 101.438 L 92.85 101.438" />
    <path d="M 20.4 90 L 23.6 90 L 20.4 94 L 23.6 94" />
    <path d="M 130.716 133.158 L 133.916 133.158 L 130.716 137.158 L 133.916 137.158" />
    <path d="M 107.582 116.455 L 110.782 116.455 L 107.582 120.455 L 110.782 120.455" />
    <path d="M 115.352 135.19 L 118.552 135.19 L 115.352 139.19 L 118.552 139.19" />
    <path d="M 32.9385 176.154 L 36.1385 176.154 L 32.9385 180.154 L 36.1385 180.154" />
    <path d="M 65.6857 113.786 L 68.8857 113.786 L 65.6857 117.786 L 68.8857 117.786" />
    <path d="M 113.491 178.818 L 116.691 178.818 L 113.491 182.818 L 116.691 182.818" />
    <path d="M 68.9833 111.25 L 72.1833 111.25 L 68.9833 115.25 L 72.1833 115.25" />
    <path d="M 79.2823 116.824 L 82.4823 116.824 L 79.2823 120.824 L 82.4823 120.824" />
    <path d="M 111.855 105.182 L 115.055 105.182 L 111.855 109.182 L 115.055 109.182" />
    <path d="M 94.9263 18.8421 L 98.1263 18.8421 L 94.9263 22.8421 L 98.1263 22.8421" />
    <path d="M 98.8211 126.895 L 102.021 126.895 L 98.8211 130.895 L 102.021 130.895" />
    <path d="M 138.938 105.385 L 142.138 105.385 L 138.938 109.385 L 142.138 109.385" />
    <path d="M 180.525 92.125 L 183.725 92.125 L 180.525 96.125 L 183.725 96.125" />
    <path d="M 121.257 175.286 L 124.457 175.286 L 121.257 179.286 L 124.457 179.286" />
    <path d="M 86.5176 73.7059 L 89.7176 73.7059 L 86.5176 77.7059 L 89.7176 77.7059" />
    <path d="M 139.971 102.071 L 143.171 102.071 L 139.971 106.071 L 143.171 106.071" />
    <path d="M 60.9833 122.25 L 64.1833 122.25 L 60.9833 126.25 L 64.1833 126.25" />
    <path d="M 98.1143 132.095 L 101.314 132.095 L 98.1143 136.095 L 101.314 136.095" />
    <path d="M 16.4 95 L 19.6 95 L 16.4 99 L 19.6 99" />
    <path d="M 108.242 141.579 L 111.442 141.579 L 108.242 145.579 L 111.442 145.579" />
    <path d="M 123.122 130.111 L 126.322 130.111 L 123.122 134.111 L 126.322 134.111" />
    <path d="M 135.264 17.8636 L 138.464 17.8636 L 135.264 21.8636 L 138.464 21.8636" />
    <path d="M 65.15 19.5833 L 68.35 19.5833 L 65.15 23.5833 L 68.35 23.5833" />
    <path d="M 109.2 114 L 112.4 114 L 109.2 118 L 112.4 118" />
    <path d="M 176.8 79.4 L 180 79.4 L 176.8 83.4 L 180 83.4" />
    <path d="M 82.0875 61.375 L 85.2875 61.375 L 82.0875 65.375 L 85.2875 65.375" />
    <path d="M 67.9 107.667 L 71.1 107.667 L 67.9 111.667 L 71.1 111.667" />
    <path d="M 78.275 78.4375 L 81.475 78.4375 L 78.275 82.4375 L 81.475 82.4375" />
    <path d="M 132.4 103.5 L 135.6 103.5 L 132.4 107.5 L 135.6 107.5" />
    <path d="M 51.4385 97.9231 L 54.6385 97.9231 L 51.4385 101.923 L 54.6385 101.923" />
    <path d="M 128.459 110.765 L 131.659 110.765 L 128.459 114.765 L 131.659 114.765" />
    <path d="M 121.6 87.3 L 124.8 87.3 L 121.6 91.3 L 124.8 91.3" />
    <path d="M 58.5818 120.182 L 61.7818 120.182 L 58.5818 124.182 L 61.7818 124.182" />
    <path d="M 19.9455 56.5909 L 23.1455 56.5909 L 19.9455 60.5909 L 23.1455 60.5909" />
    <path d="M 180.686 120 L 183.886 120 L 180.686 124 L 183.886 124" />
    <path d="M 17.525 89.875 L 20.725 89.875 L 17.525 93.875 L 20.725 93.875" />
    <path d="M 17.5053 150.842 L 20.7053 150.842 L 17.5053 154.842 L 20.7053 154.842" />
    <path d="M 118.4 101.545 L 121.6 101.545 L 118.4 105.545 L 121.6 105.545" />
    <path d="M 25.7529 180.059 L 28.9529 180.059 L 25.7529 184.059 L 28.9529 184.059" />
    <path d="M 105.785 112.385 L 108.985 112.385 L 105.785 116.385 L 108.985 116.385" />
    <path d="M 80 66.8667 L 83.2 66.8667 L 80 70.8667 L 83.2 70.8667" />
    <path d="M 78.5818 135.682 L 81.7818 135.682 L 78.5818 139.682 L 81.7818 139.682" />
    <path d="M 119.246 79.2308 L 122.446 79.2308 L 119.246 83.2308 L 122.446 83.2308" />
    <path d="M 180.567 79.5833 L 183.767 79.5833 L 180.567 83.5833 L 183.767 83.5833" />
    <path d="M 62.9 16.2857 L 66.1 16.2857 L 62.9 20.2857 L 66.1 20.2857" />
    <path d="M 180.9 104 L 184.1 104 L 180.9 108 L 184.1 108" />
    <path d="M 96.1778 105.444 L 99.3778 105.444 L 96.1778 109.444 L 99.3778 109.444" />
    <path d="M 139.983 79.25 L 143.183 79.25 L 139.983 83.25 L 143.183 83.25" />
    <path d="M 180 166.6 L 183.2 166.6 L 180 170.6 L 183.2 170.6" />
    <path d="M 20.1 48.4 L 23.3 48.4 L 20.1 52.4 L 23.3 52.4" />
    <path d="M 16.3286 76.8571 L 19.5286 76.8571 L 16.3286 80.8571 L 19.5286 80.8571" />
    <path d="M 55.6143 76.4286 L 58.8143 76.4286 L 55.6143 80.4286 L 58.8143 80.4286" />
    <path d="M 109.162 19.8571 L 112.362 19.8571 L 109.162 23.8571 L 112.362 23.8571" />
    <path d="M 107.945 94.8182 L 111.145 94.8182 L 107.945 98.8182 L 111.145 98.8182" />
    <path d="M 179.567 117.5 L 182.767 117.5 L 179.567 121.5 L 182.767 121.5" />
    <path d="M 60.5429 102.524 L 63.7428 102.524 L 60.5429 106.524 L 63.7428 106.524" />
    <path d="M 76.9 55 L 80.1 55 L 76.9 59 L 80.1 59" />
    <path d="M 140.257 83.2857 L 143.457 83.2857 L 140.257 87.2857 L 143.457 87.2857" />
    <path d="M 46.9 16 L 50.1 16 L 46.9 20 L 50.1 20" />
    <path d="M 104.781 145.667 L 107.981 145.667 L 104.781 149.667 L 107.981 149.667" />
    <path d="M 16.025 21.25 L 19.225 21.25 L 16.025 25.25 L 19.225 25.25" />
    <path d="M 52.4 111.364 L 55.6 111.364 L 52.4 115.364 L 55.6 115.364" />
    <path d="M 178.631 179.385 L 181.831 179.385 L 178.631 183.385 L 181.831 183.385" />
    <path d="M 125.067 102.533 L 128.267 102.533 L 125.067 106.533 L 128.267 106.533" />
    <path d="M 112.4 175.846 L 115.6 175.846 L 112.4 179.846 L 115.6 179.846" />
    <path d="M 132.471 67.1429 L 135.671 67.1429 L 132.471 71.1429 L 135.671 71.1429" />
    <path d="M 106.114 129.5 L 109.314 129.5 L 106.114 133.5 L 109.314 133.5" />
    <path d="M 176.309 102.364 L 179.509 102.364 L 176.309 106.364 L 179.509 106.364" />
    <path d="M 127.785 124.385 L 130.985 124.385 L 127.785 128.385 L 130.985 128.385" />
    <path d="M 90.9 19.5 L 94.1 19.5 L 90.9 23.5 L 94.1 23.5" />
    <path d="M 90.15 54.5833 L 93.35 54.5833 L 90.15 58.5833 L 93.35 58.5833" />
    <path d="M 176.611 49.7895 L 179.811 49.7895 L 176.611 53.7895 L 179.811 53.7895" />
    <path d="M 142.186 118.286 L 145.386 118.286 L 142.186 122.286 L 145.386 122.286" />
    <path d="M 18.9 143 L 22.1 143 L 18.9 147 L 22.1 147" />
    <path d="M 82.1857 126.714 L 85.3857 126.714 L 82.1857 130.714 L 85.3857 130.714" />
    <path d="M 46.6857 19.3571 L 49.8857 19.3571 L 46.6857 23.3571 L 49.8857 23.3571" />
    <path d="M 91 146.8 L 94.2 146.8 L 91 150.8 L 94.2 150.8" />
    <path d="M 122.212 81.25 L 125.412 81.25 L 122.212 85.25 L 125.412 85.25" />
    <path d="M 79.75 86.6 L 82.95 86.6 L 79.75 90.6 L 82.95 90.6" />
    <path d="M 20.2125 27.9375 L 23.4125 27.9375 L 20.2125 31.9375 L 23.4125 31.9375" />
    <path d="M 130.011 127.722 L 133.211 127.722 L 130.011 131.722 L 133.211 131.722" />
    <path d="M 88.0667 58.5 L 91.2667 58.5 L 88.0667 62.5 L 91.2667 62.5" />
    <path d="M 107.9 106.286 L 111.1 106.286 L 107.9 110.286 L 111.1 110.286" />
    <path d="M 93.5818 141.182 L 96.7818 141.182 L 93.5818 145.182 L 96.7818 145.182" />
    <path d="M 70.5111 19.8889 L 73.7111 19.8889 L 70.5111 23.8889 L 73.7111 23.8889" />
    <path d="M 108.015 102.846 L 111.215 102.846 L 108.015 106.846 L 111.215 106.846" />
    <path d="M 97.8 66.6 L 101 66.6 L 97.8 70.6 L 101 70.6" />
    <path d="M 95.7044 78.7391 L 98.9044 78.7391 L 95.7044 82.7391 L 98.9044 82.7391" />
    <path d="M 125.323 95.7692 L 128.523 95.7692 L 125.323 99.7692 L 128.523 99.7692" />
    <path d="M 130.317 80.8333 L 133.517 80.8333 L 130.317 84.8333 L 133.517 84.8333" />
    <path d="M 114.525 115.938 L 117.725 115.938 L 114.525 119.938 L 117.725 119.938" />
    <path d="M 84.1895 96.9474 L 87.3895 96.9474 L 84.1895 100.947 L 87.3895 100.947" />
    <path d="M 120.812 109.353 L 124.012 109.353 L 120.812 113.353 L 124.012 113.353" />
    <path d="M 120.667 126.667 L 123.867 126.667 L 120.667 130.667 L 123.867 130.667" />
    <path d="M 144.733 109.143 L 147.933 109.143 L 144.733 113.143 L 147.933 113.143" />
    <path d="M 176.025 110.25 L 179.225 110.25 L 176.025 114.25 L 179.225 114.25" />
    <path d="M 114.862 106.846 L 118.062 106.846 L 114.862 110.846 L 118.062 110.846" />
    <path d="M 19.1143 84.5714 L 22.3143 84.5714 L 19.1143 88.5714 L 22.3143 88.5714" />
    <path d="M 137.257 76.6428 L 140.457 76.6428 L 137.257 80.6428 L 140.457 80.6428" />
    <path d="M 176.938 169.846 L 180.138 169.846 L 176.938 173.846 L 180.138 173.846" />
    <path d="M 62.7571 111.214 L 65.9571 111.214 L 62.7571 115.214 L 65.9571 115.214" />
    <path d="M 175.844 66.2222 L 179.044 66.2222 L 175.844 70.2222 L 179.044 70.2222" />
    <path d="M 107.518 99.4118 L 110.718 99.4118 L 107.518 103.412 L 110.718 103.412" />
    <path d="M 20.775 77.875 L 23.975 77.875 L 20.775 81.875 L 23.975 81.875" />
    <path d="M 62.437 177.667 L 65.637 177.667 L 62.437 181.667 L 65.637 181.667" />
    <path d="M 108.4 16.2632 L 111.6 16.2632 L 108.4 20.2632 L 111.6 20.2632" />
    <path d="M 97.15 62.5 L 100.35 62.5 L 97.15 66.5 L 100.35 66.5" />
    <path d="M 144.491 82.3636 L 147.691 82.3636 L 144.491 86.3636 L 147.691 86.3636" />
    <path d="M 79.4 96.8824 L 82.6 96.8824 L 79.4 100.882 L 82.6 100.882" />
    <path d="M 87.9 141.333 L 91.1 141.333 L 87.9 145.333 L 91.1 145.333" />
    <path d="M 57.8615 19.8462 L 61.0615 19.8462 L 57.8615 23.8462 L 61.0615 23.8462" />
    <path d="M 126.979 136.316 L 130.179 136.316 L 126.979 140.316 L 130.179 140.316" />
    <path d="M 175.713 20.1875 L 178.913 20.1875 L 175.713 24.1875 L 178.913 24.1875" />
    <path d="M 113.445 143 L 116.645 143 L 113.445 147 L 116.645 147" />
    <path d="M 132.067 16.2 L 135.267 16.2 L 132.067 20.2 L 135.267 20.2" />
    <path d="M 69.9 15.8 L 73.1 15.8 L 69.9 19.8 L 73.1 19.8" />
    <path d="M 16.9 122 L 20.1 122 L 16.9 126 L 20.1 126" />
    <path d="M 145.4 180.286 L 148.6 180.286 L 145.4 184.286 L 148.6 184.286" />
    <path d="M 180.329 170.786 L 183.529 170.786 L 180.329 174.786 L 183.529 174.786" />
    <path d="M 137.971 108.571 L 141.171 108.571 L 137.971 112.571 L 141.171 112.571" />
    <path d="M 37.2125 176.188 L 40.4125 176.188 L 37.2125 180.188 L 40.4125 180.188" />
    <path d="M 81.8 16 L 85 16 L 81.8 20 L 85 20" />
    <path d="M 46.7889 179.222 L 49.9889 179.222 L 46.7889 183.222 L 49.9889 183.222" />
    <path d="M 121.9 97.8571 L 125.1 97.8571 L 121.9 101.857 L 125.1 101.857" />
    <path d="M 59.15 126.333 L 62.35 126.333 L 59.15 130.333 L 62.35 130.333" />
    <path d="M 70.2824 136.647 L 73.4824 136.647 L 70.2824 140.647 L 73.4824 140.647" />
    <path d="M 103.477 123.385 L 106.677 123.385 L 103.477 127.385 L 106.677 127.385" />
    <path d="M 104.169 104.615 L 107.369 104.615 L 104.169 108.615 L 107.369 108.615" />
    <path d="M 19.9 95.8 L 23.1 95.8 L 19.9 99.8 L 23.1 99.8" />
    <path d="M 15.9 139 L 19.1 139 L 15.9 143 L 19.1 143" />
    <path d="M 114.233 61.75 L 117.433 61.75 L 114.233 65.75 L 117.433 65.75" />
    <path d="M 130.114 178.429 L 133.314 178.429 L 130.114 182.429 L 133.314 182.429" />
    <path d="M 114.329 121.643 L 117.529 121.643 L 114.329 125.643 L 117.529 125.643" />
    <path d="M 176.341 56.6471 L 179.541 56.6471 L 176.341 60.6471 L 179.541 60.6471" />
    <path d="M 116.9 126.5 L 120.1 126.5 L 116.9 130.5 L 120.1 130.5" />
    <path d="M 135.4 104 L 138.6 104 L 135.4 108 L 138.6 108" />
    <path d="M 72.5176 122.941 L 75.7176 122.941 L 72.5176 126.941 L 75.7176 126.941" />
    <path d="M 109.631 130.385 L 112.831 130.385 L 109.631 134.385 L 112.831 134.385" />
    <path d="M 49.9833 19.9167 L 53.1833 19.9167 L 49.9833 23.9167 L 53.1833 23.9167" />
    <path d="M 96.5111 98.8889 L 99.7111 98.8889 L 96.5111 102.889 L 99.7111 102.889" />
    <path d="M 42.4 176 L 45.6 176 L 42.4 180 L 45.6 180" />
    <path d="M 177.092 76.0769 L 180.292 76.0769 L 177.092 80.0769 L 180.292 80.0769" />
    <path d="M 124.768 112 L 127.968 112 L 124.768 116 L 127.968 116" />
    <path d="M 136.9 82 L 140.1 82 L 136.9 86 L 140.1 86" />
    <path d="M 86.6308 94.6923 L 89.8308 94.6923 L 86.6308 98.6923 L 89.8308 98.6923" />
    <path d="M 178.686 103.143 L 181.886 103.143 L 178.686 107.143 L 181.886 107.143" />
    <path d="M 16.4 108 L 19.6 108 L 16.4 112 L 19.6 112" />
    <path d="M 78.1778 61.1111 L 81.3778 61.1111 L 78.1778 65.1111 L 81.3778 65.1111" />
    <path d="M 109.785 120.462 L 112.985 120.462 L 109.785 124.462 L 112.985 124.462" />
    <path d="M 53.8615 19.8462 L 57.0615 19.8462 L 53.8615 23.8462 L 57.0615 23.8462" />
    <path d="M 91.6222 49.4444 L 94.8222 49.4444 L 91.6222 53.4444 L 94.8222 53.4444" />
    <path d="M 51 16.4 L 54.2 16.4 L 51 20.4 L 54.2 20.4" />
    <path d="M 16.8211 36.1053 L 20.0211 36.1053 L 16.8211 40.1053 L 20.0211 40.1053" />
    <path d="M 114.757 95.7143 L 117.957 95.7143 L 114.757 99.7143 L 117.957 99.7143" />
    <path d="M 17.9556 111.778 L 21.1556 111.778 L 17.9556 115.778 L 21.1556 115.778" />
    <path d="M 74 134.7 L 77.2 134.7 L 74 138.7 L 77.2 138.7" />
    <path d="M 176.72 32.92 L 179.92 32.92 L 176.72 36.92 L 179.92 36.92" />
    <path d="M 84.9 143 L 88.1 143 L 84.9 147 L 88.1 147" />
    <path d="M 134 127.6 L 137.2 127.6 L 134 131.6 L 137.2 131.6" />
    <path d="M 119.275 88.125 L 122.475 88.125 L 119.275 92.125 L 122.475 92.125" />
    <path d="M 51.4909 176.636 L 54.6909 176.636 L 51.4909 180.636 L 54.6909 180.636" />
    <path d="M 71.3412 179.765 L 74.5412 179.765 L 71.3412 183.765 L 74.5412 183.765" />
    <path d="M 116.785 63.4615 L 119.985 63.4615 L 116.785 67.4615 L 119.985 67.4615" />
    <path d="M 52.4 85.5 L 55.6 85.5 L 52.4 89.5 L 55.6 89.5" />
    <path d="M 142.65 176.375 L 145.85 176.375 L 142.65 180.375 L 145.85 180.375" />
    <path d="M 139.582 124.091 L 142.782 124.091 L 139.582 128.091 L 142.782 128.091" />
    <path d="M 92.4625 16 L 95.6625 16 L 92.4625 20 L 95.6625 20" />
    <path d="M 93.5579 131.158 L 96.7579 131.158 L 93.5579 135.158 L 96.7579 135.158" />
    <path d="M 82.3091 139.091 L 85.5091 139.091 L 82.3091 143.091 L 85.5091 143.091" />
    <path d="M 90.2421 128.158 L 93.4421 128.158 L 90.2421 132.158 L 93.4421 132.158" />
    <path d="M 177.507 135.821 L 180.707 135.821 L 177.507 139.821 L 180.707 139.821" />
    <path d="M 119.341 137.353 L 122.541 137.353 L 119.341 141.353 L 122.541 141.353" />
    <path d="M 16.4 58 L 19.6 58 L 16.4 62 L 19.6 62" />
    <path d="M 128.477 64.6923 L 131.677 64.6923 L 128.477 68.6923 L 131.677 68.6923" />
    <path d="M 180.686 115 L 183.886 115 L 180.686 119 L 183.886 119" />
    <path d="M 91.8 176.4 L 95 176.4 L 91.8 180.4 L 95 180.4" />
    <path d="M 94.6222 74.1667 L 97.8222 74.1667 L 94.6222 78.1667 L 97.8222 78.1667" />
    <path d="M 59.275 109.875 L 62.475 109.875 L 59.275 113.875 L 62.475 113.875" />
    <path d="M 93.0471 118 L 96.2471 118 L 93.0471 122 L 96.2471 122" />
    <path d="M 52.0539 93.6923 L 55.2539 93.6923 L 52.0539 97.6923 L 55.2539 97.6923" />
    <path d="M 180.9 123.5 L 184.1 123.5 L 180.9 127.5 L 184.1 127.5" />
    <path d="M 176.275 172.875 L 179.475 172.875 L 176.275 176.875 L 179.475 176.875" />
    <path d="M 176.309 114.636 L 179.509 114.636 L 176.309 118.636 L 179.509 118.636" />
    <path d="M 20.9714 102.286 L 24.1714 102.286 L 20.9714 106.286 L 24.1714 106.286" />
    <path d="M 90.0429 93.6429 L 93.2429 93.6429 L 90.0429 97.6429 L 93.2429 97.6429" />
    <path d="M 180.9 110 L 184.1 110 L 180.9 114 L 184.1 114" />
    <path d="M 132.178 78.6667 L 135.378 78.6667 L 132.178 82.6667 L 135.378 82.6667" />
    <path d="M 118.471 84.7143 L 121.671 84.7143 L 118.471 88.7143 L 121.671 88.7143" />
    <path d="M 18.4 102.714 L 21.6 102.714 L 18.4 106.714 L 21.6 106.714" />
    <path d="M 139.871 16 L 143.071 16 L 139.871 20 L 143.071 20" />
    <path d="M 180.614 63.2143 L 183.814 63.2143 L 180.614 67.2143 L 183.814 67.2143" />
    <path d="M 83.6222 104.333 L 86.8222 104.333 L 83.6222 108.333 L 86.8222 108.333" />
    <path d="M 101.212 91.8125 L 104.412 91.8125 L 101.212 95.8125 L 104.412 95.8125" />
    <path d="M 82.4 77.8421 L 85.6 77.8421 L 82.4 81.8421 L 85.6 81.8421" />
    <path d="M 180.169 127.615 L 183.369 127.615 L 180.169 131.615 L 183.369 131.615" />
    <path d="M 117.4 118.2 L 120.6 118.2 L 117.4 122.2 L 120.6 122.2" />
    <path d="M 125.15 57.0833 L 128.35 57.0833 L 125.15 61.0833 L 128.35 61.0833" />
    <path d="M 180.183 152.87 L 183.383 152.87 L 180.183 156.87 L 183.383 156.87" />
    <path d="M 64.64 99.6 L 67.84 99.6 L 64.64 103.6 L 67.84 103.6" />
    <path d="M 78.6353 126.176 L 81.8353 126.176 L 78.6353 130.176 L 81.8353 130.176" />
    <path d="M 102.582 107.727 L 105.782 107.727 L 102.582 111.727 L 105.782 111.727" />
    <path d="M 151.043 179.714 L 154.243 179.714 L 151.043 183.714 L 154.243 183.714" />
    <path d="M 114.025 131 L 117.225 131 L 114.025 135 L 117.225 135" />
    <path d="M 67.96 124.68 L 71.16 124.68 L 67.96 128.68 L 71.16 128.68" />
    <path d="M 17.3286 132.429 L 20.5286 132.429 L 17.3286 136.429 L 20.5286 136.429" />
    <path d="M 91.9 51.8 L 95.1 51.8 L 91.9 55.8 L 95.1 55.8" />
    <path d="M 108.189 61.0526 L 111.389 61.0526 L 108.189 65.0526 L 111.389 65.0526" />
    <path d="M 16.6857 125.5 L 19.8857 125.5 L 16.6857 129.5 L 19.8857 129.5" />
    <path d="M 18.6857 100 L 21.8857 100 L 18.6857 104 L 21.8857 104" />
    <path d="M 176.511 129.5 L 179.711 129.5 L 176.511 133.5 L 179.711 133.5" />
    <path d="M 176.347 25.8421 L 179.547 25.8421 L 176.347 29.8421 L 179.547 29.8421" />
    <path d="M 121.929 103.353 L 125.129 103.353 L 121.929 107.353 L 125.129 107.353" />
    <path d="M 20.7333 83.6667 L 23.9333 83.6667 L 20.7333 87.6667 L 23.9333 87.6667" />
    <path d="M 128.114 94.3571 L 131.314 94.3571 L 128.114 98.3571 L 131.314 98.3571" />
    <path d="M 131.4 113.353 L 134.6 113.353 L 131.4 117.353 L 134.6 117.353" />
    <path d="M 16.1143 101 L 19.3143 101 L 16.1143 105 L 19.3143 105" />
    <path d="M 50.9 106.556 L 54.1 106.556 L 50.9 110.556 L 54.1 110.556" />
    <path d="M 60.1778 98.3889 L 63.3778 98.3889 L 60.1778 102.389 L 63.3778 102.389" />
    <path d="M 124.785 87.6154 L 127.985 87.6154 L 124.785 91.6154 L 127.985 91.6154" />
    <path d="M 65.2333 131.333 L 68.4333 131.333 L 65.2333 135.333 L 68.4333 135.333" />
    <path d="M 159.821 16.1053 L 163.021 16.1053 L 159.821 20.1053 L 163.021 20.1053" />
    <path d="M 65.2462 109.385 L 68.4462 109.385 L 65.2462 113.385 L 68.4462 113.385" />
    <path d="M 124.471 107.714 L 127.671 107.714 L 124.471 111.714 L 127.671 111.714" />
    <path d="M 77.0667 123.467 L 80.2667 123.467 L 77.0667 127.467 L 80.2667 127.467" />
    <path d="M 74.7 111.9 L 77.9 111.9 L 74.7 115.9 L 77.9 115.9" />
    <path d="M 17.9 140 L 21.1 140 L 17.9 144 L 21.1 144" />
    <path d="M 25.2462 176.615 L 28.4462 176.615 L 25.2462 180.615 L 28.4462 180.615" />
    <path d="M 88.6667 79.7333 L 91.8667 79.7333 L 88.6667 83.7333 L 91.8667 83.7333" />
    <path d="M 119.867 65.1333 L 123.067 65.1333 L 119.867 69.1333 L 123.067 69.1333" />
    <path d="M 97.3286 90.3571 L 100.529 90.3571 L 97.3286 94.3571 L 100.529 94.3571" />
    <path d="M 68.4 72.5 L 71.6 72.5 L 68.4 76.5 L 71.6 76.5" />
    <path d="M 178.025 111.75 L 181.225 111.75 L 178.025 115.75 L 181.225 115.75" />
    <path d="M 137.2 176.3 L 140.4 176.3 L 137.2 180.3 L 140.4 180.3" />
    <path d="M 95.9 50.5 L 99.1 50.5 L 95.9 54.5 L 99.1 54.5" />
    <path d="M 179.518 22.5882 L 182.718 22.5882 L 179.518 26.5882 L 182.718 26.5882" />
    <path d="M 85.8 70.1333 L 89 70.1333 L 85.8 74.1333 L 89 74.1333" />
    <path d="M 92.2462 125 L 95.4462 125 L 92.2462 129 L 95.4462 129" />
    <path d="M 114.127 109.727 L 117.327 109.727 L 114.127 113.727 L 117.327 113.727" />
    <path d="M 16.5875 27.0625 L 19.7875 27.0625 L 16.5875 31.0625 L 19.7875 31.0625" />
    <path d="M 47.9333 175.933 L 51.1333 175.933 L 47.9333 179.933 L 51.1333 179.933" />
    <path d="M 105.448 133.81 L 108.648 133.81 L 105.448 137.81 L 108.648 137.81" />
    <path d="M 125.4 16.5 L 128.6 16.5 L 125.4 20.5 L 128.6 20.5" />
  </g>
</svg>
