<?xml version="1.0" encoding="UTF-8" standalone="no"?>
<svg xmlns="http://www.w3.org/2000/svg" width="200" height="200" viewBox="0 0 200 200">
  <g fill="none" stroke="black" stroke-width="1.0">
    <path d="M 17 20 L 19 20 L 22 20 L 24 20 L 27 20 L 27 17 L 24 17 L 22 17" />
    <path d="M 34 17 L 32 17 L 29 17 L 29 20 L 32 20 L 34 20 L 37 20 L 39 20 L 42 20 L 42 17 L 39 17 L 37 17" />
    <path d="M 49 17 L 47 17 L 44 17 L 44 20 L 47 20 L 49 20 L 52 20 L 54 20 L 57 20 L 57 17 L 54 17 L 52 17" />
    <path d="M 64 17 L 62 17 L 59 17 L 59 20 L 62 20 L 64 20 L 64 22 L 62 22 L 59 22" />
    <path d="M 57 22 L 54 22 L 52 22 L 49 22 L 47 22 L 44 22" />
    <path d="M 22 42 L 22 40" />
    <path d="M 22 37 L 22 35" />
    <path d="M 22 32 L 22 30" />
    <path d="M 42 22 L 39 22 L 37 22 L 34 22 L 32 22 L 29 22" />
    <path d="M 22 27 L 22 25" />
    <path d="M 27 22 L 24 22 L 22 22 L 19 22 L 17 22" />
    <path d="M 17 25 L 19 25 L 19 27 L 17 27" />
    <path d="M 17 30 L 20 30 L 20 32 L 17 32" />
    <path d="M 17 35 L 20 35 L 20 37 L 17 37" />
    <path d="M 17 40 L 20 40 L 20 42 L 17 42" />
    <path d="M 17 45 L 20 45 L 20 47 L 17 47" />
    <path d="M 17 50 L 20 50 L 20 52 L 17 52" />
    <path d="M 17 55 L 20 55 L 20 57 L 17 57" />
    <path d="M 17 60 L 20 60 L 20 62 L 17 62" />
    <path d="M 17 65 L 20 65 L 22 65" />
    <path d="M 22 62 L 22 60" />
    <path d="M 22 57 L 22 55" />
    <path d="M 22 52 L 22 50" />
    <path d="M 22 47 L 22 45" />
    <path d="M 65 65 L 67 65 L 70 65 L 72 65 L 72 62 L 70 62" />
    <path d="M 70 60 L 72 60 L 75 60 L 77 60 L 79 60 L 79 62 L 77 62 L 75 62 L 75 65 L 77 65 L 79 65 L 82 65 L 85 65 L 87 65 L 87 62 L 85 62 L 82 62 L 82 60 L 85 60 L 87 60 L 87 57 L 85 57 L 82 57 L 82 55 L 85 55 L 87 55 L 87 52" />
    <path d="M 79 55 L 79 57 L 77 57 L 75 57" />
    <path d="M 109 52 L 107 52 L 104 52 L 104 55 L 107 55 L 109 55 L 109 57 L 107 57 L 104 57 L 102 57 L 99 57 L 97 57 L 97 55 L 99 55 L 102 55 L 102 52 L 99 52 L 97 52 L 94 52 L 92 52 L 90 52 L 90 55 L 92 55 L 94 55 L 94 57 L 92 57 L 90 57 L 90 60 L 92 60 L 94 60 L 94 62 L 92 62 L 90 62 L 90 65 L 92 65 L 94 65 L 97 65 L 99 65 L 102 65 L 102 62 L 99 62 L 97 62 L 97 60 L 99 60 L 102 60 L 104 60 L 107 60 L 109 60 L 109 62 L 107 62 L 104 62 L 104 65 L 107 65 L 109 65 L 112 65 L 114 65 L 117 65 L 117 62 L 114 62 L 112 62 L 112 60 L 114 60 L 117 60 L 119 60 L 122 60 L 124 60 L 124 62 L 122 62 L 119 62 L 119 65 L 122 65 L 124 65 L 127 65 L 129 65 L 132 65 L 132 62 L 129 62 L 127 62 L 127 60 L 129 60" />
    <path d="M 124 57 L 122 57 L 119 57 L 117 57 L 114 57 L 112 57 L 112 55 L 114 55 L 117 55" />
    <path d="M 114 52 L 112 52" />
    <path d="M 132 22 L 129 22 L 127 22 L 124 22 L 122 22 L 119 22" />
    <path d="M 117 22 L 114 22 L 112 22 L 109 22 L 107 22 L 104 22" />
    <path d="M 102 22 L 99 22 L 97 22 L 94 22 L 92 22 L 90 22" />
    <path d="M 87 22 L 85 22 L 82 22 L 79 22 L 77 22 L 75 22" />
    <path d="M 72 22 L 70 22 L 67 22 L 67 20 L 70 20 L 72 20 L 72 17 L 70 17 L 67 17" />
    <path d="M 79 17 L 77 17 L 75 17 L 75 20 L 77 20 L 79 20 L 82 20 L 85 20 L 87 20 L 87 17 L 85 17 L 82 17" />
    <path d="M 94 17 L 92 17 L 90 17 L 90 20 L 92 20 L 94 20 L 97 20 L 99 20 L 102 20 L 102 17 L 99 17 L 97 17" />
    <path d="M 109 17 L 107 17 L 104 17 L 104 20 L 107 20 L 109 20 L 112 20 L 114 20 L 117 20 L 117 17 L 114 17 L 112 17" />
    <path d="M 124 17 L 122 17 L 119 17 L 119 20 L 122 20 L 124 20 L 127 20 L 129 20 L 132 20 L 132 17 L 129 17 L 127 17" />
    <path d="M 139 17 L 137 17 L 134 17 L 134 20 L 137 20 L 139 20 L 142 20 L 144 20 L 147 20 L 147 17 L 144 17 L 142 17" />
    <path d="M 154 17 L 152 17 L 149 17 L 149 20 L 152 20 L 154 20 L 157 20 L 159 20 L 162 20 L 162 17 L 159 17 L 157 17" />
    <path d="M 169 17 L 167 17 L 164 17 L 164 20 L 167 20 L 169 20 L 172 20 L 174 20 L 177 20 L 177 17 L 174 17 L 172 17" />
    <path d="M 179 17 L 179 20 L 182 20" />
    <path d="M 182 22 L 179 22 L 179 25 L 182 25" />
    <path d="M 182 27 L 179 27 L 179 30 L 182 30" />
    <path d="M 182 32 L 179 32 L 179 35 L 182 35" />
    <path d="M 182 37 L 179 37 L 179 40 L 182 40" />
    <path d="M 182 42 L 179 42 L 177 42" />
    <path d="M 177 40 L 177 37" />
    <path d="M 177 35 L 177 32" />
    <path d="M 177 30 L 177 27" />
    <path d="M 177 25 L 177 22 L 174 22 L 172 22 L 169 22 L 167 22 L 164 22" />
    <path d="M 162 22 L 159 22 L 157 22 L 154 22 L 152 22 L 149 22" />
    <path d="M 147 22 L 144 22 L 142 22 L 139 22 L 137 22 L 134 22" />
    <path d="M 177 65 L 177 62" />
    <path d="M 177 60 L 177 57" />
    <path d="M 177 55 L 177 52" />
    <path d="M 177 50 L 177 47" />
    <path d="M 177 45 L 179 45 L 182 45" />
    <path d="M 182 47 L 179 47 L 179 50 L 182 50" />
    <path d="M 182 52 L 179 52 L 179 55 L 182 55" />
    <path d="M 182 57 L 179 57 L 179 60 L 182 60" />
    <path d="M 182 62 L 179 62 L 179 65 L 182 65" />
    <path d="M 182 67 L 179 67 L 179 70 L 182 70" />
    <path d="M 182 72 L 179 72 L 179 75 L 182 75" />
    <path d="M 182 77 L 179 77 L 179 80 L 182 80" />
    <path d="M 182 82 L 179 82 L 179 85 L 182 85" />
    <path d="M 182 87 L 179 87 L 177 87" />
    <path d="M 177 85 L 177 82" />
    <path d="M 177 79 L 177 77" />
    <path d="M 177 75 L 177 72" />
    <path d="M 177 70 L 177 67" />
    <path d="M 137 67 L 134 67 L 134 70 L 137 70 L 139 70 L 139 72 L 137 72 L 134 72 L 134 75 L 137 75 L 139 75 L 139 77 L 137 77 L 134 77 L 134 79 L 137 79 L 139 79 L 142 79 L 144 79" />
    <path d="M 144 77 L 142 77 L 142 75" />
    <path d="M 147 87 L 144 87 L 142 87 L 142 85 L 144 85 L 147 85" />
    <path d="M 144 82 L 142 82 L 139 82 L 137 82 L 134 82 L 134 85 L 137 85 L 139 85 L 139 87 L 137 87 L 134 87 L 134 90 L 137 90 L 139 90 L 139 92 L 137 92 L 134 92 L 134 95 L 137 95 L 139 95 L 142 95 L 144 95 L 147 95 L 147 92 L 144 92 L 142 92 L 142 90 L 144 90 L 147 90" />
    <path d="M 149 92 L 149 95" />
    <path d="M 149 97 L 149 100" />
    <path d="M 149 102 L 147 102 L 144 102 L 142 102 L 142 100 L 144 100 L 147 100 L 147 97 L 144 97 L 142 97 L 139 97 L 137 97 L 134 97 L 134 100 L 137 100 L 139 100 L 139 102 L 137 102 L 134 102 L 134 104 L 137 104 L 139 104 L 139 107 L 137 107 L 134 107 L 134 110 L 137 110 L 139 110 L 142 110 L 144 110 L 147 110 L 147 107 L 144 107 L 142 107 L 142 104 L 144 104 L 147 104 L 149 104" />
    <path d="M 177 110 L 177 107" />
    <path d="M 177 104 L 177 102" />
    <path d="M 177 100 L 177 97" />
    <path d="M 177 95 L 177 92" />
    <path d="M 177 90 L 179 90 L 182 90" />
    <path d="M 182 92 L 179 92 L 179 95 L 182 95" />
    <path d="M 182 97 L 179 97 L 179 100 L 182 100" />
    <path d="M 182 102 L 179 102 L 179 104 L 182 104" />
    <path d="M 182 107 L 179 107 L 179 110 L 182 110" />
    <path d="M 182 112 L 179 112 L 179 115 L 182 115" />
    <path d="M 182 117 L 179 117 L 179 119 L 182 119" />
    <path d="M 182 122 L 179 122 L 179 125 L 182 125" />
    <path d="M 182 127 L 179 127 L 179 130 L 182 130" />
    <path d="M 182 132 L 179 132 L 177 132" />
    <path d="M 177 130 L 177 127" />
    <path d="M 177 125 L 177 122" />
    <path d="M 177 119 L 177 117" />
    <path d="M 177 115 L 177 112" />
    <path d="M 147 117 L 144 117 L 142 117 L 142 115 L 144 115 L 147 115 L 147 112 L 144 112 L 142 112 L 139 112 L 137 112 L 134 112 L 134 115 L 137 115 L 139 115 L 139 117 L 137 117 L 134 117 L 134 119 L 137 119 L 139 119 L 139 122 L 137 122 L 134 122 L 134 125 L 137 125 L 139 125 L 142 125" />
    <path d="M 144 122 L 142 122 L 142 119 L 144 119" />
    <path d="M 142 127 L 139 127 L 137 127 L 134 127 L 134 130 L 137 130 L 139 130" />
    <path d="M 137 132 L 134 132 L 132 132 L 129 132 L 127 132 L 127 130 L 129 130 L 132 130 L 132 127 L 129 127 L 127 127 L 124 127 L 122 127 L 119 127 L 119 130 L 122 130 L 124 130 L 124 132 L 122 132 L 119 132 L 117 132 L 114 132 L 112 132 L 112 130 L 114 130 L 117 130 L 117 127 L 114 127 L 112 127 L 112 125 L 114 125 L 117 125 L 117 122 L 114 122 L 112 122 L 112 119 L 114 119 L 117 119 L 119 119 L 122 119 L 124 119 L 124 122 L 122 122 L 119 122 L 119 125 L 122 125 L 124 125 L 127 125 L 129 125 L 132 125 L 132 122 L 129 122 L 127 122 L 127 119 L 129 119 L 132 119 L 132 117 L 129 117 L 127 117 L 127 115 L 129 115 L 132 115 L 132 112 L 129 112 L 127 112 L 124 112 L 122 112 L 119 112 L 119 115 L 122 115 L 124 115 L 124 117 L 122 117 L 119 117 L 117 117 L 114 117 L 112 117 L 112 115 L 114 115 L 117 115 L 117 112 L 114 112 L 112 112 L 109 112 L 107 112 L 104 112 L 104 115 L 107 115 L 109 115 L 109 117 L 107 117 L 104 117 L 102 117 L 99 117 L 97 117 L 97 115 L 99 115 L 102 115 L 102 112 L 99 112 L 97 112 L 94 112 L 92 112 L 89 112 L 89 115 L 92 115 L 94 115 L 94 117 L 92 117 L 89 117 L 89 119 L 92 119 L 94 119 L 94 122 L 92 122 L 89 122 L 89 125 L 92 125 L 94 125 L 97 125 L 99 125 L 102 125 L 102 122 L 99 122 L 97 122 L 97 119 L 99 119 L 102 119 L 104 119 L 107 119 L 109 119 L 109 122 L 107 122 L 104 122 L 104 125 L 107 125 L 109 125 L 109 127 L 107 127 L 104 127 L 104 130 L 107 130 L 109 130 L 109 132 L 107 132 L 104 132 L 102 132 L 99 132 L 97 132 L 97 130 L 99 130 L 102 130 L 102 127 L 99 127 L 97 127 L 94 127 L 92 127 L 89 127 L 89 130 L 92 130 L 94 130 L 94 132 L 92 132 L 89 132 L 87 132 L 84 132 L 82 132 L 82 130 L 84 130 L 87 130 L 87 127 L 84 127 L 82 127 L 79 127 L 77 127 L 74 127 L 74 130 L 77 130 L 79 130 L 79 132 L 77 132 L 74 132 L 72 132 L 69 132 L 67 132 L 67 130 L 69 130 L 72 130 L 72 127 L 69 127 L 67 127 L 67 125 L 69 125 L 72 125 L 72 122 L 69 122 L 67 122 L 67 119 L 69 119 L 72 119 L 74 119 L 77 119 L 79 119 L 79 122 L 77 122 L 74 122 L 74 125 L 77 125 L 79 125 L 82 125 L 84 125 L 87 125 L 87 122 L 84 122 L 82 122 L 82 119 L 84 119 L 87 119 L 87 117 L 84 117 L 82 117 L 82 115 L 84 115 L 87 115 L 87 112 L 84 112 L 82 112 L 79 112 L 77 112 L 74 112 L 74 115 L 77 115 L 79 115 L 79 117 L 77 117 L 74 117 L 72 117 L 69 117 L 67 117 L 67 115 L 69 115 L 72 115 L 72 112 L 69 112 L 67 112 L 67 110 L 69 110 L 72 110 L 72 107 L 69 107 L 67 107 L 67 104" />
    <path d="M 79 107 L 77 107 L 74 107 L 74 110 L 77 110 L 79 110 L 82 110 L 84 110 L 87 110 L 87 107 L 84 107 L 82 107" />
    <path d="M 84 104 L 87 104" />
    <path d="M 84 102 L 82 102 L 82 100 L 84 100 L 87 100 L 87 97 L 84 97 L 82 97 L 79 97 L 77 97 L 74 97 L 74 100 L 77 100 L 79 100 L 79 102 L 77 102 L 74 102 L 72 102" />
    <path d="M 67 102 L 67 100" />
    <path d="M 72 100 L 72 97" />
    <path d="M 67 97 L 67 95" />
    <path d="M 67 92 L 67 90" />
    <path d="M 72 90 L 74 90 L 77 90 L 79 90 L 79 92 L 77 92 L 74 92" />
    <path d="M 79 95 L 82 95 L 84 95 L 87 95 L 87 92 L 84 92 L 82 92 L 82 90 L 84 90 L 87 90" />
    <path d="M 92 90 L 94 90 L 94 92" />
    <path d="M 89 95 L 92 95" />
    <path d="M 102 95 L 102 92 L 99 92 L 97 92 L 97 90 L 99 90 L 102 90 L 104 90 L 107 90 L 109 90 L 109 92 L 107 92 L 104 92 L 104 95 L 107 95 L 109 95 L 109 97 L 107 97 L 104 97 L 104 100 L 107 100 L 109 100 L 109 102 L 107 102 L 104 102" />
    <path d="M 99 102 L 97 102 L 97 100 L 99 100" />
    <path d="M 97 97 L 94 97 L 92 97 L 89 97 L 89 100 L 92 100 L 94 100 L 94 102 L 92 102" />
    <path d="M 94 107 L 92 107 L 89 107 L 89 110 L 92 110 L 94 110 L 97 110 L 99 110 L 102 110 L 102 107 L 99 107 L 97 107" />
    <path d="M 104 104 L 107 104 L 109 104 L 109 107 L 107 107 L 104 107 L 104 110 L 107 110 L 109 110 L 112 110 L 114 110 L 117 110 L 117 107 L 114 107 L 112 107" />
    <path d="M 117 104 L 119 104 L 122 104 L 124 104 L 124 107 L 122 107 L 119 107 L 119 110 L 122 110 L 124 110 L 127 110 L 129 110 L 132 110 L 132 107 L 129 107 L 127 107 L 127 104 L 129 104 L 132 104 L 132 102 L 129 102 L 127 102 L 127 100 L 129 100 L 132 100 L 132 97 L 129 97 L 127 97 L 124 97 L 122 97 L 119 97 L 119 100 L 122 100 L 124 100 L 124 102 L 122 102 L 119 102 L 117 102" />
    <path d="M 117 100 L 117 97" />
    <path d="M 117 95 L 117 92" />
    <path d="M 117 90 L 119 90 L 122 90 L 124 90 L 124 92 L 122 92 L 119 92 L 119 95 L 122 95 L 124 95 L 127 95 L 129 95 L 132 95 L 132 92 L 129 92 L 127 92 L 127 90 L 129 90 L 132 90 L 132 87 L 129 87 L 127 87 L 127 85 L 129 85 L 132 85 L 132 82 L 129 82 L 127 82 L 124 82 L 122 82 L 119 82" />
    <path d="M 122 85 L 124 85 L 124 87 L 122 87 L 119 87 L 117 87" />
    <path d="M 117 82 L 114 82 L 112 82 L 112 79 L 114 79 L 117 79 L 117 77 L 114 77 L 112 77 L 112 75 L 114 75 L 117 75 L 119 75 L 122 75 L 124 75 L 124 77 L 122 77 L 119 77 L 119 79 L 122 79 L 124 79 L 127 79 L 129 79 L 132 79 L 132 77 L 129 77 L 127 77 L 127 75 L 129 75 L 132 75 L 132 72 L 129 72 L 127 72 L 127 70 L 129 70 L 132 70 L 132 67 L 129 67 L 127 67 L 124 67 L 122 67 L 119 67 L 119 70 L 122 70 L 124 70 L 124 72 L 122 72 L 119 72 L 117 72 L 114 72 L 112 72 L 112 70 L 114 70 L 117 70 L 117 67 L 114 67 L 112 67 L 109 67 L 107 67 L 104 67 L 104 70 L 107 70 L 109 70 L 109 72 L 107 72 L 104 72 L 102 72 L 99 72 L 97 72 L 97 70 L 99 70 L 102 70 L 102 67 L 99 67 L 97 67 L 94 67 L 92 67 L 89 67 L 89 70 L 92 70 L 94 70 L 94 72 L 92 72 L 89 72 L 89 75 L 92 75 L 94 75 L 94 77 L 92 77 L 89 77 L 89 79 L 92 79 L 94 79 L 97 79 L 99 79 L 102 79 L 102 77 L 99 77 L 97 77 L 97 75 L 99 75 L 102 75 L 104 75 L 107 75 L 109 75 L 109 77 L 107 77 L 104 77 L 104 79 L 107 79 L 109 79 L 109 82 L 107 82 L 104 82 L 104 85" />
    <path d="M 109 87 L 107 87 L 104 87" />
    <path d="M 99 87 L 97 87" />
    <path d="M 102 82 L 99 82 L 97 82 L 94 82 L 92 82 L 89 82" />
    <path d="M 94 87 L 92 87" />
    <path d="M 84 87 L 82 87" />
    <path d="M 84 85 L 87 85 L 87 82 L 84 82 L 82 82 L 79 82 L 77 82 L 74 82" />
    <path d="M 79 87 L 77 87 L 74 87 L 72 87" />
    <path d="M 67 87 L 67 85" />
    <path d="M 72 82 L 69 82 L 67 82 L 67 79 L 69 79 L 72 79 L 72 77 L 69 77 L 67 77 L 67 75 L 69 75 L 72 75 L 74 75 L 77 75 L 79 75 L 79 77 L 77 77 L 74 77 L 74 79 L 77 79 L 79 79 L 82 79 L 84 79 L 87 79 L 87 77 L 84 77 L 82 77 L 82 75 L 84 75 L 87 75 L 87 72 L 84 72 L 82 72 L 82 70 L 84 70 L 87 70 L 87 67 L 84 67 L 82 67 L 79 67 L 77 67 L 74 67 L 74 70 L 77 70 L 79 70 L 79 72 L 77 72 L 74 72 L 72 72 L 69 72 L 67 72 L 67 70 L 69 70 L 72 70 L 72 67 L 69 67 L 67 67 L 64 67" />
    <path d="M 62 70 L 64 70 L 64 72 L 62 72 L 59 72" />
    <path d="M 57 79 L 57 77" />
    <path d="M 57 75 L 59 75 L 62 75 L 64 75 L 64 77 L 62 77 L 59 77 L 59 79 L 62 79 L 64 79 L 64 82 L 62 82 L 59 82" />
    <path d="M 64 87 L 62 87" />
    <path d="M 54 87 L 52 87" />
    <path d="M 57 82 L 54 82" />
    <path d="M 22 87 L 22 85" />
    <path d="M 22 82 L 22 79" />
    <path d="M 22 77 L 22 75" />
    <path d="M 22 72 L 22 70" />
    <path d="M 22 67 L 19 67 L 17 67" />
    <path d="M 17 70 L 19 70 L 19 72 L 17 72" />
    <path d="M 17 75 L 20 75 L 20 77 L 17 77" />
    <path d="M 17 79 L 20 79 L 20 82 L 17 82" />
    <path d="M 17 85 L 20 85 L 20 87 L 17 87" />
    <path d="M 17 90 L 20 90 L 20 92 L 17 92" />
    <path d="M 17 95 L 20 95 L 20 97 L 17 97" />
    <path d="M 17 100 L 20 100 L 20 102 L 17 102" />
    <path d="M 17 104 L 20 104 L 20 107 L 17 107" />
    <path d="M 17 110 L 20 110 L 22 110" />
    <path d="M 22 107 L 22 104" />
    <path d="M 22 102 L 22 100" />
    <path d="M 22 97 L 22 95" />
    <path d="M 22 92 L 22 90" />
    <path d="M 52 95 L 55 95" />
    <path d="M 55 92 L 52 92 L 52 90 L 55 90" />
    <path d="M 60 90 L 62 90 L 65 90 L 65 92 L 62 92 L 60 92 L 60 95 L 62 95 L 65 95 L 65 97 L 62 97 L 60 97 L 60 100 L 62 100 L 65 100 L 65 102 L 62 102 L 60 102" />
    <path d="M 55 102 L 52 102 L 52 100 L 55 100" />
    <path d="M 55 97 L 52 97" />
    <path d="M 52 110 L 55 110 L 57 110 L 57 107 L 55 107 L 52 107 L 52 104 L 55 104" />
    <path d="M 60 104 L 62 104 L 65 104 L 65 107 L 62 107 L 60 107 L 60 110 L 62 110 L 65 110 L 65 112 L 62 112 L 60 112 L 60 115 L 62 115 L 65 115 L 65 117 L 62 117 L 60 117 L 57 117 L 55 117" />
    <path d="M 55 115 L 57 115 L 57 112 L 55 112 L 52 112" />
    <path d="M 57 125 L 57 122" />
    <path d="M 55 119 L 57 119 L 60 119 L 62 119 L 65 119 L 65 122 L 62 122 L 60 122 L 60 125 L 62 125 L 65 125 L 65 127 L 62 127 L 60 127 L 60 130 L 62 130 L 65 130 L 65 132 L 62 132" />
    <path d="M 22 132 L 22 130" />
    <path d="M 22 127 L 22 125" />
    <path d="M 22 122 L 22 119" />
    <path d="M 22 117 L 22 115" />
    <path d="M 22 112 L 20 112 L 17 112" />
    <path d="M 17 115 L 20 115 L 20 117 L 17 117" />
    <path d="M 17 119 L 20 119 L 20 122 L 17 122" />
    <path d="M 17 125 L 20 125 L 20 127 L 17 127" />
    <path d="M 17 130 L 20 130 L 20 132 L 17 132" />
    <path d="M 17 135 L 20 135 L 20 137 L 17 137" />
    <path d="M 17 140 L 20 140 L 20 142 L 17 142" />
    <path d="M 17 145 L 20 145 L 20 147 L 17 147" />
    <path d="M 17 150 L 20 150 L 20 152 L 17 152" />
    <path d="M 17 155 L 20 155 L 22 155" />
    <path d="M 22 152 L 22 150" />
    <path d="M 22 147 L 22 145" />
    <path d="M 22 142 L 22 140" />
    <path d="M 22 137 L 22 135" />
    <path d="M 65 177 L 62 177 L 60 177 L 57 177 L 55 177 L 52 177" />
    <path d="M 50 177 L 47 177 L 45 177 L 42 177 L 40 177 L 37 177" />
    <path d="M 35 177 L 32 177 L 30 177 L 27 177 L 25 177 L 22 177 L 22 175" />
    <path d="M 22 172 L 22 170" />
    <path d="M 22 167 L 22 165" />
    <path d="M 22 162 L 22 160" />
    <path d="M 22 157 L 20 157 L 17 157" />
    <path d="M 17 160 L 20 160 L 20 162 L 17 162" />
    <path d="M 17 165 L 20 165 L 20 167 L 17 167" />
    <path d="M 17 170 L 20 170 L 20 172 L 17 172" />
    <path d="M 17 175 L 20 175 L 20 177 L 17 177" />
    <path d="M 17 180 L 20 180 L 20 182" />
    <path d="M 27 182 L 25 182 L 22 182 L 22 180 L 25 180 L 27 180 L 30 180 L 32 180 L 35 180 L 35 182 L 32 182 L 30 182" />
    <path d="M 42 182 L 40 182 L 37 182 L 37 180 L 40 180 L 42 180 L 45 180 L 47 180 L 50 180 L 50 182 L 47 182 L 45 182" />
    <path d="M 57 182 L 55 182 L 52 182 L 52 180 L 55 180 L 57 180 L 60 180 L 62 180 L 65 180 L 65 182 L 62 182 L 60 182" />
    <path d="M 72 182 L 70 182 L 67 182 L 67 180 L 70 180 L 72 180 L 75 180 L 77 180 L 80 180 L 80 182 L 77 182 L 75 182" />
    <path d="M 87 182 L 85 182 L 82 182 L 82 180 L 85 180 L 87 180 L 90 180 L 92 180 L 95 180 L 95 182 L 92 182 L 90 182" />
    <path d="M 102 182 L 100 182 L 97 182 L 97 180 L 100 180 L 102 180 L 105 180 L 107 180 L 110 180 L 110 182 L 107 182 L 105 182" />
    <path d="M 117 182 L 115 182 L 112 182 L 112 180 L 115 180 L 117 180 L 120 180 L 122 180 L 125 180 L 125 182 L 122 182 L 120 182" />
    <path d="M 132 182 L 130 182 L 127 182 L 127 180 L 130 180 L 132 180 L 132 177 L 130 177 L 127 177" />
    <path d="M 125 177 L 122 177 L 120 177 L 117 177 L 115 177 L 112 177" />
    <path d="M 110 177 L 107 177 L 105 177 L 102 177 L 100 177 L 97 177" />
    <path d="M 95 177 L 92 177 L 90 177 L 87 177 L 85 177 L 82 177" />
    <path d="M 80 177 L 77 177 L 75 177 L 72 177 L 70 177 L 67 177" />
    <path d="M 87 147 L 85 147" />
    <path d="M 82 145 L 85 145 L 87 145 L 87 142 L 85 142 L 82 142 L 80 142 L 77 142 L 75 142" />
    <path d="M 70 140 L 72 140 L 72 137 L 70 137 L 67 137 L 67 135 L 70 135 L 72 135 L 75 135 L 77 135 L 80 135 L 80 137 L 77 137 L 75 137 L 75 140 L 77 140 L 80 140 L 82 140 L 85 140 L 87 140 L 87 137 L 85 137 L 82 137 L 82 135 L 85 135 L 87 135 L 90 135 L 92 135 L 95 135 L 95 137 L 92 137 L 90 137 L 90 140 L 92 140 L 95 140 L 97 140 L 100 140 L 102 140 L 102 137 L 100 137 L 97 137 L 97 135 L 100 135 L 102 135 L 105 135 L 107 135 L 110 135 L 110 137 L 107 137 L 105 137 L 105 140 L 107 140 L 110 140 L 110 142 L 107 142 L 105 142 L 105 145 L 107 145 L 110 145 L 110 147 L 107 147 L 105 147 L 102 147 L 100 147 L 97 147 L 97 145 L 100 145 L 102 145 L 102 142 L 100 142 L 97 142 L 95 142 L 92 142 L 90 142 L 90 145 L 92 145 L 95 145 L 95 147 L 92 147 L 90 147" />
    <path d="M 127 142 L 125 142 L 122 142 L 120 142 L 120 145" />
    <path d="M 117 147 L 115 147 L 112 147 L 112 145 L 115 145 L 117 145 L 117 142 L 115 142 L 112 142 L 112 140 L 115 140 L 117 140 L 117 137 L 115 137 L 112 137 L 112 135 L 115 135 L 117 135 L 120 135 L 122 135 L 125 135 L 125 137 L 122 137 L 120 137 L 120 140 L 122 140 L 125 140 L 127 140 L 130 140" />
    <path d="M 132 137 L 130 137 L 127 137 L 127 135 L 130 135 L 132 135 L 135 135" />
    <path d="M 177 155 L 177 152" />
    <path d="M 177 150 L 177 147" />
    <path d="M 177 145 L 177 142" />
    <path d="M 177 140 L 177 137" />
    <path d="M 177 135 L 180 135 L 182 135" />
    <path d="M 182 137 L 180 137 L 180 140 L 182 140" />
    <path d="M 182 142 L 180 142 L 180 145 L 182 145" />
    <path d="M 182 147 L 180 147 L 180 150 L 182 150" />
    <path d="M 182 152 L 180 152 L 180 155 L 182 155" />
    <path d="M 182 157 L 180 157 L 180 160 L 182 160" />
    <path d="M 182 162 L 180 162 L 180 165 L 182 165" />
    <path d="M 182 167 L 180 167 L 180 170 L 182 170" />
    <path d="M 182 172 L 180 172 L 180 175 L 182 175" />
    <path d="M 182 177 L 180 177 L 177 177 L 175 177 L 172 177" />
    <path d="M 177 175 L 177 172" />
    <path d="M 170 177 L 167 177 L 165 177 L 162 177 L 160 177 L 157 177" />
    <path d="M 177 170 L 177 167" />
    <path d="M 177 165 L 177 162" />
    <path d="M 177 160 L 177 157" />
    <path d="M 155 177 L 152 177 L 150 177 L 147 177 L 145 177 L 142 177" />
    <path d="M 140 177 L 137 177 L 135 177 L 135 180 L 137 180 L 140 180 L 140 182 L 137 182 L 135 182" />
    <path d="M 147 182 L 145 182 L 142 182 L 142 180 L 145 180 L 147 180 L 150 180 L 152 180 L 155 180 L 155 182 L 152 182 L 150 182" />
    <path d="M 162 182 L 160 182 L 157 182 L 157 180 L 160 180 L 162 180 L 165 180 L 167 180 L 170 180 L 170 182 L 167 182 L 165 182" />
    <path d="M 177 182 L 175 182 L 172 182 L 172 180 L 175 180 L 177 180 L 180 180 L 182 180" />
    <path d="M 182 182 L 180 182" />
  </g>
</svg>
