<?xml version="1.0" encoding="UTF-8" standalone="no"?>
<svg xmlns="http://www.w3.org/2000/svg" width="200" height="200" viewBox="0 0 200 200">
  <g fill="none" stroke="black" stroke-width="1.0">
    <path d="M 17 24 L 17 22 L 17 21" />
    <path d="M 19 19 L 21 19 L 21 21 L 19 21 L 19 22 L 19 24 L 21 24 L 21 22 L 22 22 L 22 24" />
    <path d="M 24 22 L 24 21 L 22 21 L 22 19 L 24 19 L 24 17" />
    <path d="M 22 17 L 21 17" />
    <path d="M 38 17 L 39 17" />
    <path d="M 41 17 L 42 17" />
    <path d="M 49 17 L 47 17 L 46 17" />
    <path d="M 44 17 L 44 19 L 44 21 L 46 21 L 46 19 L 47 19 L 49 19 L 49 21 L 47 21 L 47 22 L 49 22" />
    <path d="M 46 22 L 44 22" />
    <path d="M 41 22 L 42 22 L 42 21 L 42 19 L 41 19 L 41 21 L 39 21 L 39 19 L 38 19 L 38 21 L 38 22 L 39 22" />
    <path d="M 36 22 L 35 22" />
    <path d="M 32 22 L 33 22 L 33 21 L 32 21 L 32 19 L 33 19 L 35 19 L 35 21 L 36 21 L 36 19 L 36 17 L 35 17" />
    <path d="M 33 17 L 32 17 L 30 17 L 28 17" />
    <path d="M 27 17 L 25 17 L 25 19 L 25 21 L 27 21 L 27 19 L 28 19 L 30 19 L 30 21 L 28 21 L 28 22 L 30 22" />
    <path d="M 27 22 L 25 22" />
    <path d="M 22 49 L 22 47" />
    <path d="M 22 44 L 22 46 L 21 46 L 21 44 L 19 44 L 19 46 L 19 47 L 21 47 L 21 49 L 19 49 L 17 49 L 17 47" />
    <path d="M 17 46 L 17 44 L 17 42 L 17 41" />
    <path d="M 17 39 L 17 38 L 19 38 L 21 38 L 21 39 L 19 39 L 19 41 L 19 42 L 21 42 L 21 41 L 22 41 L 22 42" />
    <path d="M 22 39 L 22 38" />
    <path d="M 22 35 L 22 36 L 21 36 L 19 36 L 19 35 L 21 35 L 21 33 L 19 33 L 19 32 L 21 32 L 22 32 L 22 33" />
    <path d="M 22 30 L 22 28" />
    <path d="M 22 25 L 22 27 L 21 27 L 21 25 L 19 25 L 19 27 L 19 28 L 21 28 L 21 30 L 19 30 L 17 30" />
    <path d="M 17 28 L 17 27 L 17 25" />
    <path d="M 17 32 L 17 33" />
    <path d="M 17 35 L 17 36" />
    <path d="M 17 55 L 17 53 L 17 52" />
    <path d="M 17 50 L 19 50 L 19 52 L 21 52 L 21 50 L 22 50" />
    <path d="M 22 52 L 22 53" />
    <path d="M 22 55 L 21 55 L 21 53 L 19 53 L 19 55 L 19 57 L 19 58 L 21 58 L 21 57 L 22 57" />
    <path d="M 22 58 L 22 60" />
    <path d="M 22 61 L 21 61 L 21 60 L 19 60 L 19 61 L 17 61" />
    <path d="M 17 60 L 17 58 L 17 57" />
    <path d="M 17 67 L 17 66 L 17 64" />
    <path d="M 17 63 L 19 63 L 19 64 L 21 64 L 21 63 L 22 63" />
    <path d="M 22 64 L 22 66" />
    <path d="M 22 67 L 21 67 L 21 66 L 19 66 L 19 67 L 19 69 L 19 71 L 21 71 L 21 69 L 22 69" />
    <path d="M 22 71 L 22 72" />
    <path d="M 22 74 L 21 74 L 21 72 L 19 72 L 19 74 L 17 74" />
    <path d="M 17 72 L 17 71 L 17 69" />
    <path d="M 17 88 L 17 89" />
    <path d="M 17 91 L 17 92" />
    <path d="M 17 99 L 17 97 L 17 96" />
    <path d="M 17 94 L 19 94 L 21 94 L 21 96 L 19 96 L 19 97 L 19 99 L 21 99 L 21 97 L 22 97 L 22 99" />
    <path d="M 22 96 L 22 94" />
    <path d="M 22 91 L 22 92 L 21 92 L 19 92 L 19 91 L 21 91 L 21 89 L 19 89 L 19 88 L 21 88 L 22 88 L 22 89" />
    <path d="M 22 86 L 22 85" />
    <path d="M 22 82 L 22 83 L 21 83 L 21 82 L 19 82 L 19 83 L 19 85 L 21 85 L 21 86 L 19 86 L 17 86 L 17 85" />
    <path d="M 17 83 L 17 82 L 17 80 L 17 78" />
    <path d="M 17 77 L 17 75 L 19 75 L 21 75 L 21 77 L 19 77 L 19 78 L 19 80 L 21 80 L 21 78 L 22 78 L 22 80" />
    <path d="M 22 77 L 22 75" />
    <path d="M 72 60 L 74 60 L 74 61 L 72 61 L 71 61 L 71 60" />
    <path d="M 63 67 L 64 67 L 64 66 L 66 66 L 66 67 L 67 67 L 67 66 L 67 64 L 66 64" />
    <path d="M 67 63 L 69 63 L 69 64 L 71 64 L 71 63 L 72 63 L 74 63 L 74 64 L 72 64 L 72 66 L 74 66 L 74 67 L 72 67 L 71 67 L 71 66 L 69 66 L 69 67 L 69 69 L 69 71 L 71 71 L 71 69 L 72 69 L 74 69 L 74 71 L 72 71 L 72 72 L 74 72 L 74 74 L 72 74 L 71 74 L 71 72 L 69 72 L 69 74 L 67 74 L 66 74 L 66 72 L 67 72 L 67 71 L 67 69 L 66 69 L 66 71 L 64 71 L 64 69 L 63 69 L 63 71 L 63 72 L 64 72 L 64 74 L 63 74 L 61 74 L 61 72 L 60 72 L 60 74 L 58 74" />
    <path d="M 60 71 L 61 71 L 61 69" />
    <path d="M 57 75 L 57 77 L 58 77 L 58 75 L 60 75 L 61 75 L 61 77 L 60 77 L 60 78 L 61 78 L 61 80 L 60 80 L 58 80 L 58 78 L 57 78 L 57 80 L 57 82" />
    <path d="M 58 82 L 60 82 L 61 82" />
    <path d="M 61 86 L 60 86" />
    <path d="M 55 86 L 53 86" />
    <path d="M 52 89 L 52 88 L 53 88 L 55 88 L 55 89 L 53 89 L 53 91 L 55 91 L 55 92 L 53 92 L 52 92 L 52 91" />
    <path d="M 52 94 L 52 96" />
    <path d="M 52 99 L 52 97 L 53 97 L 53 99 L 55 99 L 55 97 L 55 96 L 53 96 L 53 94 L 55 94" />
    <path d="M 60 97 L 60 99 L 61 99 L 61 97 L 61 96 L 60 96 L 60 94 L 61 94 L 61 92 L 61 91 L 60 91 L 60 92" />
    <path d="M 60 88 L 60 89 L 61 89 L 61 88 L 63 88 L 63 89 L 64 89 L 64 88 L 66 88 L 67 88 L 67 89 L 66 89 L 66 91 L 67 91 L 67 92 L 66 92 L 64 92 L 64 91 L 63 91 L 63 92 L 63 94 L 64 94 L 64 96 L 63 96 L 63 97 L 63 99 L 64 99 L 64 97 L 66 97 L 66 99 L 67 99 L 67 97 L 67 96 L 66 96 L 66 94 L 67 94" />
    <path d="M 72 97 L 72 99 L 74 99 L 74 97 L 74 96 L 72 96" />
    <path d="M 74 92 L 74 91 L 72 91 L 72 92" />
    <path d="M 72 88 L 72 89 L 74 89 L 74 88 L 74 86 L 72 86" />
    <path d="M 74 82 L 72 82" />
    <path d="M 71 82 L 69 82 L 69 83" />
    <path d="M 67 86 L 67 85 L 66 85 L 66 86 L 64 86 L 63 86" />
    <path d="M 63 82 L 64 82 L 66 82 L 66 83 L 67 83 L 67 82 L 67 80 L 67 78 L 66 78 L 66 80 L 64 80 L 63 80 L 63 78 L 64 78 L 64 77 L 63 77 L 63 75 L 64 75 L 66 75 L 66 77 L 67 77 L 67 75 L 69 75 L 71 75 L 71 77 L 69 77 L 69 78 L 69 80 L 71 80 L 71 78 L 72 78 L 72 80 L 74 80 L 74 78 L 74 77 L 72 77 L 72 75 L 74 75 L 75 75 L 77 75 L 77 77 L 75 77 L 75 78 L 75 80 L 77 80 L 77 78 L 78 78 L 78 80 L 80 80 L 80 78 L 80 77 L 78 77 L 78 75 L 80 75 L 82 75 L 82 77 L 83 77 L 83 75 L 85 75 L 86 75 L 86 77 L 85 77 L 85 78 L 86 78 L 86 80 L 85 80 L 83 80 L 83 78 L 82 78 L 82 80 L 82 82" />
    <path d="M 83 82 L 85 82 L 86 82 L 86 83 L 85 83 L 85 85 L 86 85 L 86 86 L 85 86 L 83 86" />
    <path d="M 82 86 L 80 86 L 78 86" />
    <path d="M 80 82 L 78 82" />
    <path d="M 77 82 L 75 82" />
    <path d="M 77 86 L 75 86 L 75 88 L 75 89 L 77 89 L 77 88 L 78 88 L 80 88 L 80 89 L 78 89 L 78 91 L 80 91 L 80 92 L 78 92 L 77 92 L 77 91 L 75 91 L 75 92" />
    <path d="M 77 96 L 75 96 L 75 97 L 75 99 L 77 99 L 77 97 L 78 97 L 78 99 L 80 99 L 80 97 L 80 96 L 78 96" />
    <path d="M 80 94 L 82 94 L 83 94 L 83 96 L 82 96 L 82 97 L 82 99 L 83 99 L 83 97 L 85 97 L 85 99 L 86 99 L 86 97 L 86 96 L 85 96 L 85 94 L 86 94 L 86 92 L 86 91 L 85 91 L 85 92 L 83 92 L 82 92 L 82 91 L 83 91 L 83 89 L 82 89 L 82 88 L 83 88 L 85 88 L 85 89 L 86 89 L 86 88" />
    <path d="M 91 88 L 92 88 L 92 89 L 91 89" />
    <path d="M 88 94 L 89 94 L 89 96 L 88 96 L 88 97 L 88 99 L 89 99 L 89 97 L 91 97 L 91 99 L 92 99 L 92 97 L 92 96 L 91 96 L 91 94" />
    <path d="M 96 96 L 94 96 L 94 97 L 94 99 L 96 99 L 96 97 L 97 97 L 97 99 L 99 99" />
    <path d="M 99 94 L 99 92 L 99 91 L 97 91 L 97 92 L 96 92 L 94 92 L 94 91 L 96 91 L 96 89 L 94 89 L 94 88 L 96 88 L 97 88 L 97 89 L 99 89 L 99 88" />
    <path d="M 99 83 L 99 82 L 97 82" />
    <path d="M 96 82 L 94 82" />
    <path d="M 96 86 L 94 86 L 92 86" />
    <path d="M 89 83 L 88 83 L 88 82 L 89 82 L 91 82 L 91 83" />
    <path d="M 92 82 L 92 80 L 92 78 L 91 78 L 91 80 L 89 80 L 88 80 L 88 78 L 89 78 L 89 77 L 88 77 L 88 75 L 89 75 L 91 75 L 91 77 L 92 77 L 92 75 L 94 75 L 96 75 L 96 77 L 94 77 L 94 78 L 94 80 L 96 80 L 96 78 L 97 78 L 97 80 L 99 80 L 99 78 L 99 77 L 97 77 L 97 75 L 99 75 L 99 74 L 99 72 L 97 72 L 97 74 L 96 74 L 94 74 L 94 72 L 96 72 L 96 71 L 94 71 L 94 69 L 96 69 L 97 69 L 97 71 L 99 71 L 99 69 L 99 67 L 97 67 L 97 66 L 99 66 L 99 64 L 99 63 L 97 63 L 97 64 L 96 64 L 96 63 L 94 63 L 94 64 L 94 66 L 96 66 L 96 67 L 94 67 L 92 67 L 91 67 L 91 66 L 92 66 L 92 64 L 92 63 L 91 63 L 91 64 L 89 64 L 89 63 L 88 63 L 88 64 L 88 66 L 89 66 L 89 67 L 88 67 L 88 69 L 88 71 L 89 71 L 89 69 L 91 69 L 92 69 L 92 71 L 91 71 L 91 72 L 92 72 L 92 74 L 91 74 L 89 74 L 89 72 L 88 72 L 88 74 L 86 74 L 85 74 L 85 72 L 86 72 L 86 71 L 86 69 L 85 69 L 85 71 L 83 71 L 83 69 L 82 69 L 82 71 L 82 72 L 83 72 L 83 74 L 82 74 L 80 74 L 80 72 L 78 72 L 78 74 L 77 74 L 75 74 L 75 72 L 77 72 L 77 71 L 75 71 L 75 69 L 77 69 L 78 69 L 78 71 L 80 71 L 80 69 L 80 67 L 80 66 L 78 66 L 78 67 L 77 67 L 75 67 L 75 66 L 77 66 L 77 64 L 75 64 L 75 63 L 77 63 L 78 63 L 78 64 L 80 64 L 80 63 L 82 63 L 83 63 L 83 64 L 82 64 L 82 66 L 82 67 L 83 67 L 83 66 L 85 66 L 85 67 L 86 67 L 86 66 L 86 64 L 85 64 L 85 63 L 86 63 L 86 61 L 85 61 L 85 60 L 86 60 L 86 58 L 86 57 L 85 57 L 85 58 L 83 58 L 83 57 L 82 57 L 82 58 L 82 60 L 83 60 L 83 61 L 82 61 L 80 61 L 80 60 L 78 60 L 78 61 L 77 61 L 75 61 L 75 60 L 77 60 L 77 58 L 75 58 L 75 57 L 77 57 L 78 57 L 78 58 L 80 58 L 80 57 L 80 55" />
    <path d="M 82 55 L 83 55 L 83 53 L 85 53 L 85 55 L 86 55 L 86 53 L 86 52" />
    <path d="M 88 52 L 89 52" />
    <path d="M 92 52 L 91 52 L 91 53 L 92 53 L 92 55 L 91 55 L 89 55 L 89 53 L 88 53 L 88 55 L 88 57 L 89 57 L 89 58 L 88 58 L 88 60 L 88 61 L 89 61 L 89 60 L 91 60 L 91 61 L 92 61 L 92 60 L 92 58 L 91 58 L 91 57 L 92 57 L 94 57 L 96 57 L 96 58 L 94 58 L 94 60 L 94 61 L 96 61 L 96 60 L 97 60 L 97 61 L 99 61 L 99 60 L 99 58 L 97 58 L 97 57 L 99 57 L 99 55 L 99 53 L 97 53 L 97 55 L 96 55 L 94 55 L 94 53 L 96 53 L 96 52 L 94 52" />
    <path d="M 97 52 L 99 52" />
    <path d="M 74 22 L 72 22" />
    <path d="M 69 22 L 71 22 L 71 21 L 69 21 L 69 19 L 71 19 L 72 19 L 72 21 L 74 21 L 74 19 L 74 17 L 72 17" />
    <path d="M 71 17 L 69 17 L 67 17 L 66 17" />
    <path d="M 64 17 L 63 17 L 63 19 L 63 21 L 64 21 L 64 19 L 66 19 L 67 19 L 67 21 L 66 21 L 66 22 L 67 22" />
    <path d="M 64 22 L 63 22" />
    <path d="M 60 22 L 61 22 L 61 21 L 61 19 L 60 19 L 60 21 L 58 21 L 58 19 L 57 19 L 57 21 L 57 22 L 58 22" />
    <path d="M 55 22 L 53 22" />
    <path d="M 50 22 L 52 22 L 52 21 L 50 21 L 50 19 L 52 19 L 53 19 L 53 21 L 55 21 L 55 19 L 55 17" />
    <path d="M 53 17 L 52 17 L 50 17" />
    <path d="M 57 17 L 58 17" />
    <path d="M 60 17 L 61 17" />
    <path d="M 80 17 L 78 17 L 77 17" />
    <path d="M 75 17 L 75 19 L 77 19 L 77 21 L 75 21 L 75 22" />
    <path d="M 77 22 L 78 22" />
    <path d="M 80 22 L 80 21 L 78 21 L 78 19 L 80 19 L 82 19 L 83 19 L 83 21 L 82 21 L 82 22" />
    <path d="M 83 22 L 85 22" />
    <path d="M 86 22 L 86 21 L 85 21 L 85 19 L 86 19 L 86 17" />
    <path d="M 85 17 L 83 17 L 82 17" />
    <path d="M 92 17 L 91 17 L 89 17" />
    <path d="M 88 17 L 88 19 L 89 19 L 89 21 L 88 21 L 88 22" />
    <path d="M 89 22 L 91 22" />
    <path d="M 92 22 L 92 21 L 91 21 L 91 19 L 92 19 L 94 19 L 96 19 L 96 21 L 94 21 L 94 22" />
    <path d="M 96 22 L 97 22" />
    <path d="M 99 22 L 99 21 L 97 21 L 97 19 L 99 19 L 99 17" />
    <path d="M 97 17 L 96 17 L 94 17" />
    <path d="M 113 17 L 114 17" />
    <path d="M 116 17 L 117 17" />
    <path d="M 124 17 L 122 17 L 121 17" />
    <path d="M 119 17 L 119 19 L 119 21 L 121 21 L 121 19 L 122 19 L 124 19 L 124 21 L 122 21 L 122 22 L 124 22" />
    <path d="M 121 22 L 119 22" />
    <path d="M 116 22 L 117 22 L 117 21 L 117 19 L 116 19 L 116 21 L 114 21 L 114 19 L 113 19 L 113 21 L 113 22 L 114 22" />
    <path d="M 111 22 L 110 22" />
    <path d="M 107 22 L 108 22 L 108 21 L 107 21 L 107 19 L 108 19 L 110 19 L 110 21 L 111 21 L 111 19 L 111 17 L 110 17" />
    <path d="M 108 17 L 107 17 L 105 17 L 103 17" />
    <path d="M 102 17 L 100 17 L 100 19 L 100 21 L 102 21 L 102 19 L 103 19 L 105 19 L 105 21 L 103 21 L 103 22 L 105 22" />
    <path d="M 102 22 L 100 22" />
    <path d="M 149 22 L 147 22" />
    <path d="M 144 22 L 146 22 L 146 21 L 144 21 L 144 19 L 146 19 L 147 19 L 147 21 L 149 21 L 149 19 L 149 17 L 147 17" />
    <path d="M 146 17 L 144 17 L 142 17 L 141 17" />
    <path d="M 139 17 L 138 17 L 138 19 L 138 21 L 139 21 L 139 19 L 141 19 L 142 19 L 142 21 L 141 21 L 141 22 L 142 22" />
    <path d="M 139 22 L 138 22" />
    <path d="M 135 22 L 136 22 L 136 21 L 136 19 L 135 19 L 135 21 L 133 21 L 133 19 L 132 19 L 132 21 L 132 22 L 133 22" />
    <path d="M 130 22 L 128 22" />
    <path d="M 125 22 L 127 22 L 127 21 L 125 21 L 125 19 L 127 19 L 128 19 L 128 21 L 130 21 L 130 19 L 130 17" />
    <path d="M 128 17 L 127 17 L 125 17" />
    <path d="M 132 17 L 133 17" />
    <path d="M 135 17 L 136 17" />
    <path d="M 155 17 L 153 17 L 152 17" />
    <path d="M 150 17 L 150 19 L 152 19 L 152 21 L 150 21 L 150 22" />
    <path d="M 152 22 L 153 22" />
    <path d="M 155 22 L 155 21 L 153 21 L 153 19 L 155 19 L 157 19 L 158 19 L 158 21 L 157 21 L 157 22" />
    <path d="M 158 22 L 160 22" />
    <path d="M 161 22 L 161 21 L 160 21 L 160 19 L 161 19 L 161 17" />
    <path d="M 160 17 L 158 17 L 157 17" />
    <path d="M 167 17 L 166 17 L 164 17" />
    <path d="M 163 17 L 163 19 L 164 19 L 164 21 L 163 21 L 163 22" />
    <path d="M 164 22 L 166 22" />
    <path d="M 167 22 L 167 21 L 166 21 L 166 19 L 167 19 L 169 19 L 171 19 L 171 21 L 169 21 L 169 22" />
    <path d="M 171 22 L 172 22" />
    <path d="M 174 22 L 174 21 L 172 21 L 172 19 L 174 19 L 174 17" />
    <path d="M 172 17 L 171 17 L 169 17" />
    <path d="M 183 24 L 182 24 L 182 22 L 183 22 L 183 21 L 182 21 L 182 19" />
    <path d="M 180 17 L 178 17" />
    <path d="M 177 17 L 175 17 L 175 19 L 175 21 L 177 21 L 177 19 L 178 19 L 180 19 L 180 21 L 178 21 L 178 22 L 180 22 L 180 24 L 178 24 L 177 24 L 177 22 L 175 22" />
    <path d="M 177 27 L 177 25 L 178 25 L 180 25 L 180 27 L 178 27 L 178 28 L 180 28 L 180 30 L 178 30 L 177 30 L 177 28" />
    <path d="M 177 32 L 177 33" />
    <path d="M 177 36 L 177 35 L 178 35 L 178 36 L 180 36 L 180 35 L 180 33 L 178 33 L 178 32 L 180 32 L 182 32 L 183 32 L 183 33 L 182 33 L 182 35 L 182 36 L 183 36 L 183 35" />
    <path d="M 183 30 L 182 30 L 182 28 L 183 28 L 183 27 L 182 27 L 182 25 L 183 25" />
    <path d="M 183 49 L 182 49 L 182 47 L 183 47 L 183 46 L 182 46 L 182 44 L 183 44" />
    <path d="M 183 39 L 183 38 L 182 38 L 182 39 L 182 41 L 183 41 L 183 42 L 182 42 L 180 42 L 178 42 L 178 41 L 180 41 L 180 39 L 180 38 L 178 38 L 178 39 L 177 39 L 177 38" />
    <path d="M 177 41 L 177 42" />
    <path d="M 177 46 L 177 44 L 178 44 L 180 44 L 180 46 L 178 46 L 178 47 L 180 47 L 180 49 L 178 49 L 177 49 L 177 47" />
    <path d="M 177 52 L 177 50 L 178 50 L 180 50 L 180 52 L 178 52 L 178 53 L 180 53 L 180 55 L 178 55 L 177 55 L 177 53" />
    <path d="M 177 57 L 177 58" />
    <path d="M 177 61 L 177 60 L 178 60 L 178 61 L 180 61 L 180 60 L 180 58 L 178 58 L 178 57 L 180 57 L 182 57 L 183 57 L 183 58 L 182 58 L 182 60 L 182 61 L 183 61 L 183 60" />
    <path d="M 183 55 L 182 55 L 182 53 L 183 53 L 183 52 L 182 52 L 182 50 L 183 50" />
    <path d="M 183 74 L 182 74 L 182 72 L 183 72 L 183 71 L 182 71 L 182 69 L 183 69" />
    <path d="M 183 64 L 183 63 L 182 63 L 182 64 L 182 66 L 183 66 L 183 67 L 182 67 L 180 67 L 178 67 L 178 66 L 180 66 L 180 64 L 180 63 L 178 63 L 178 64 L 177 64 L 177 63" />
    <path d="M 177 66 L 177 67" />
    <path d="M 177 71 L 177 69 L 178 69 L 180 69 L 180 71 L 178 71 L 178 72 L 180 72 L 180 74 L 178 74 L 177 74 L 177 72" />
    <path d="M 177 77 L 177 75 L 178 75 L 180 75 L 180 77 L 178 77 L 178 78 L 180 78 L 180 80 L 178 80 L 177 80 L 177 78" />
    <path d="M 177 82 L 177 83" />
    <path d="M 177 86 L 177 85 L 178 85 L 178 86 L 180 86 L 180 85 L 180 83 L 178 83 L 178 82 L 180 82 L 182 82 L 183 82 L 183 83 L 182 83 L 182 85 L 182 86 L 183 86 L 183 85" />
    <path d="M 183 80 L 182 80 L 182 78 L 183 78 L 183 77 L 182 77 L 182 75 L 183 75" />
    <path d="M 183 99 L 182 99 L 182 97 L 183 97 L 183 96 L 182 96 L 182 94 L 183 94" />
    <path d="M 183 89 L 183 88 L 182 88 L 182 89 L 182 91 L 183 91 L 183 92 L 182 92 L 180 92 L 178 92 L 178 91 L 180 91 L 180 89 L 180 88 L 178 88 L 178 89 L 177 89 L 177 88" />
    <path d="M 177 91 L 177 92" />
    <path d="M 177 96 L 177 94 L 178 94 L 180 94 L 180 96 L 178 96 L 178 97 L 180 97 L 180 99 L 178 99 L 177 99 L 177 97" />
    <path d="M 149 99 L 149 97 L 147 97 L 147 99 L 146 99 L 144 99 L 144 97 L 146 97 L 146 96 L 144 96 L 144 94 L 146 94 L 147 94 L 147 96 L 149 96 L 149 94 L 149 92 L 147 92 L 147 91 L 149 91" />
    <path d="M 147 88 L 147 89 L 146 89 L 146 88 L 144 88 L 144 89 L 144 91 L 146 91 L 146 92 L 144 92 L 142 92 L 141 92 L 141 91 L 142 91 L 142 89 L 142 88 L 141 88 L 141 89 L 139 89 L 139 88 L 138 88 L 138 89 L 138 91 L 139 91 L 139 92 L 138 92 L 138 94 L 138 96 L 139 96 L 139 94 L 141 94 L 142 94 L 142 96 L 141 96 L 141 97 L 142 97 L 142 99 L 141 99 L 139 99 L 139 97 L 138 97 L 138 99 L 136 99 L 135 99 L 135 97 L 136 97 L 136 96 L 136 94 L 135 94 L 135 96 L 133 96 L 133 94 L 132 94 L 132 96 L 132 97 L 133 97 L 133 99 L 132 99 L 130 99 L 130 97 L 128 97 L 128 99 L 127 99 L 125 99 L 125 97 L 127 97 L 127 96 L 125 96 L 125 94 L 127 94 L 128 94 L 128 96 L 130 96 L 130 94 L 130 92 L 130 91 L 128 91 L 128 92 L 127 92 L 125 92 L 125 91 L 127 91 L 127 89 L 125 89 L 125 88 L 127 88 L 128 88 L 128 89 L 130 89 L 130 88 L 132 88 L 133 88 L 133 89 L 132 89 L 132 91 L 132 92 L 133 92 L 133 91 L 135 91 L 135 92 L 136 92 L 136 91 L 136 89 L 135 89 L 135 88 L 136 88 L 136 86 L 135 86 L 135 85 L 136 85 L 136 83 L 136 82 L 135 82 L 135 83 L 133 83 L 133 82 L 132 82 L 132 83 L 132 85 L 133 85 L 133 86 L 132 86 L 130 86 L 130 85 L 128 85 L 128 86 L 127 86 L 125 86 L 125 85 L 127 85 L 127 83 L 125 83 L 125 82 L 127 82 L 128 82 L 128 83 L 130 83 L 130 82 L 130 80 L 130 78 L 128 78 L 128 80 L 127 80 L 125 80 L 125 78 L 127 78 L 127 77 L 125 77 L 125 75 L 127 75 L 128 75 L 128 77 L 130 77 L 130 75 L 132 75 L 133 75 L 133 77 L 132 77 L 132 78 L 132 80 L 133 80 L 133 78 L 135 78 L 135 80 L 136 80 L 136 78 L 136 77 L 135 77 L 135 75 L 136 75 L 138 75 L 138 77 L 139 77 L 139 75 L 141 75 L 142 75 L 142 77 L 141 77 L 141 78 L 142 78 L 142 80 L 141 80 L 139 80 L 139 78 L 138 78 L 138 80 L 138 82 L 139 82 L 139 83 L 138 83 L 138 85 L 138 86 L 139 86 L 139 85 L 141 85 L 141 86 L 142 86 L 142 85 L 142 83 L 141 83 L 141 82 L 142 82 L 144 82 L 146 82 L 146 83 L 144 83 L 144 85 L 144 86 L 146 86 L 146 85 L 147 85 L 147 86" />
    <path d="M 144 80 L 144 78" />
    <path d="M 141 72 L 141 74 L 139 74 L 138 74 L 138 72 L 139 72 L 139 71 L 138 71 L 138 69 L 139 69" />
    <path d="M 125 57 L 125 58 L 127 58" />
    <path d="M 128 60 L 130 60 L 130 61 L 128 61 L 127 61 L 127 60 L 125 60 L 125 61 L 125 63 L 127 63 L 127 64 L 125 64 L 125 66 L 125 67 L 127 67 L 127 66 L 128 66 L 128 67 L 130 67 L 130 66 L 130 64 L 128 64 L 128 63 L 130 63 L 132 63 L 132 64 L 133 64 L 133 63" />
    <path d="M 135 66 L 136 66 L 136 67 L 135 67 L 133 67 L 133 66 L 132 66 L 132 67 L 132 69 L 132 71 L 133 71 L 133 69 L 135 69 L 136 69 L 136 71 L 135 71 L 135 72 L 136 72 L 136 74 L 135 74 L 133 74 L 133 72 L 132 72 L 132 74 L 130 74 L 128 74 L 128 72 L 130 72 L 130 71 L 130 69 L 128 69 L 128 71 L 127 71 L 127 69 L 125 69 L 125 71 L 125 72 L 127 72 L 127 74 L 125 74 L 124 74 L 122 74 L 122 72 L 124 72 L 124 71 L 124 69 L 122 69 L 122 71 L 121 71 L 121 69 L 119 69 L 119 71 L 119 72 L 121 72 L 121 74 L 119 74 L 117 74 L 117 72 L 116 72 L 116 74 L 114 74 L 113 74 L 113 72 L 114 72 L 114 71 L 113 71 L 113 69 L 114 69 L 116 69 L 116 71 L 117 71 L 117 69 L 117 67 L 117 66 L 116 66 L 116 67 L 114 67 L 113 67 L 113 66 L 114 66 L 114 64 L 113 64 L 113 63 L 114 63 L 116 63 L 116 64 L 117 64 L 117 63 L 119 63 L 121 63 L 121 64 L 119 64 L 119 66 L 119 67 L 121 67 L 121 66 L 122 66 L 122 67 L 124 67 L 124 66 L 124 64 L 122 64 L 122 63 L 124 63 L 124 61 L 124 60 L 122 60 L 122 61 L 121 61 L 119 61 L 119 60 L 121 60 L 121 58 L 119 58 L 119 57 L 121 57 L 122 57 L 122 58 L 124 58 L 124 57" />
    <path d="M 121 55 L 119 55 L 117 55 L 116 55 L 116 53 L 117 53" />
    <path d="M 113 52 L 113 53 L 114 53 L 114 55 L 113 55 L 113 57 L 113 58 L 114 58 L 114 57 L 116 57 L 117 57 L 117 58 L 116 58 L 116 60 L 117 60 L 117 61 L 116 61 L 114 61 L 114 60 L 113 60 L 113 61 L 111 61 L 111 60 L 110 60 L 110 61 L 108 61 L 107 61 L 107 60 L 108 60 L 108 58 L 107 58 L 107 57 L 108 57 L 110 57 L 110 58 L 111 58 L 111 57 L 111 55 L 110 55 L 110 53 L 111 53 L 111 52" />
    <path d="M 110 52 L 108 52" />
    <path d="M 107 52 L 107 53 L 108 53 L 108 55 L 107 55 L 105 55 L 103 55 L 103 53 L 105 53 L 105 52" />
    <path d="M 103 52 L 102 52" />
    <path d="M 100 50 L 100 52 L 100 53 L 102 53 L 102 55 L 100 55 L 100 57 L 100 58 L 102 58 L 102 57 L 103 57 L 105 57 L 105 58 L 103 58 L 103 60 L 105 60 L 105 61 L 103 61 L 102 61 L 102 60 L 100 60 L 100 61 L 100 63 L 102 63 L 102 64 L 100 64 L 100 66 L 100 67 L 102 67 L 102 66 L 103 66 L 103 67 L 105 67 L 105 66 L 105 64 L 103 64 L 103 63 L 105 63 L 107 63 L 107 64 L 108 64 L 108 63 L 110 63 L 111 63 L 111 64 L 110 64 L 110 66 L 111 66 L 111 67 L 110 67 L 108 67 L 108 66 L 107 66 L 107 67 L 107 69 L 107 71 L 108 71 L 108 69 L 110 69 L 111 69 L 111 71 L 110 71 L 110 72 L 111 72 L 111 74 L 110 74 L 108 74 L 108 72 L 107 72 L 107 74 L 105 74 L 103 74 L 103 72 L 105 72 L 105 71 L 105 69 L 103 69 L 103 71 L 102 71 L 102 69 L 100 69 L 100 71 L 100 72 L 102 72 L 102 74 L 100 74 L 100 75 L 100 77 L 102 77 L 102 75 L 103 75 L 105 75 L 105 77 L 103 77 L 103 78 L 105 78 L 105 80 L 103 80 L 102 80 L 102 78 L 100 78 L 100 80 L 100 82 L 102 82 L 102 83 L 100 83" />
    <path d="M 105 86 L 105 85 L 105 83 L 103 83 L 103 82 L 105 82 L 107 82 L 108 82" />
    <path d="M 107 86 L 108 86" />
    <path d="M 110 86 L 111 86" />
    <path d="M 110 82 L 111 82 L 111 80 L 111 78 L 110 78 L 110 80 L 108 80 L 107 80 L 107 78 L 108 78 L 108 77 L 107 77 L 107 75 L 108 75 L 110 75 L 110 77 L 111 77 L 111 75 L 113 75 L 114 75 L 114 77 L 113 77 L 113 78 L 113 80 L 114 80 L 114 78 L 116 78 L 116 80 L 117 80 L 117 78 L 117 77 L 116 77 L 116 75 L 117 75 L 119 75 L 119 77 L 121 77 L 121 75 L 122 75 L 124 75 L 124 77 L 122 77 L 122 78 L 124 78 L 124 80 L 122 80 L 121 80 L 121 78 L 119 78 L 119 80 L 119 82" />
    <path d="M 121 83 L 121 82 L 122 82 L 124 82 L 124 83 L 122 83 L 122 85 L 124 85 L 124 86 L 122 86 L 121 86 L 121 85" />
    <path d="M 119 86 L 117 86 L 116 86" />
    <path d="M 117 82 L 116 82" />
    <path d="M 114 82 L 113 82" />
    <path d="M 116 91 L 116 92 L 117 92 L 117 91 L 117 89 L 116 89 L 116 88 L 117 88 L 119 88 L 119 89 L 121 89 L 121 88 L 122 88 L 124 88 L 124 89 L 122 89 L 122 91 L 124 91 L 124 92 L 122 92 L 121 92 L 121 91 L 119 91 L 119 92 L 119 94 L 119 96 L 121 96 L 121 94 L 122 94 L 124 94 L 124 96 L 122 96 L 122 97 L 124 97 L 124 99 L 122 99 L 121 99 L 121 97 L 119 97 L 119 99 L 117 99 L 116 99 L 116 97 L 117 97 L 117 96 L 117 94 L 116 94 L 116 96" />
    <path d="M 111 99 L 111 97 L 110 97 L 110 99 L 108 99 L 107 99 L 107 97 L 108 97 L 108 96 L 107 96 L 107 94 L 108 94 L 110 94 L 110 96 L 111 96 L 111 94 L 111 92 L 110 92 L 110 91 L 111 91 L 111 89 L 111 88 L 110 88 L 110 89 L 108 89 L 108 88 L 107 88 L 107 89 L 107 91 L 108 91 L 108 92 L 107 92 L 105 92 L 103 92 L 103 91 L 105 91 L 105 89 L 105 88 L 103 88 L 103 89 L 102 89" />
    <path d="M 100 88 L 100 89 L 100 91 L 102 91 L 102 92 L 100 92 L 100 94" />
    <path d="M 102 94 L 103 94 L 105 94 L 105 96 L 103 96 L 103 97 L 105 97 L 105 99" />
    <path d="M 100 99 L 100 100" />
    <path d="M 105 100 L 105 102" />
    <path d="M 105 103 L 105 105 L 103 105 L 102 105" />
    <path d="M 100 107 L 102 107 L 102 108 L 100 108 L 100 110 L 100 111 L 102 111 L 102 110 L 103 110 L 103 111 L 105 111 L 105 110 L 105 108 L 103 108 L 103 107 L 105 107 L 107 107 L 108 107 L 108 108 L 107 108 L 107 110 L 107 111 L 108 111 L 108 110 L 110 110 L 110 111 L 111 111 L 111 110 L 111 108 L 110 108 L 110 107 L 111 107 L 111 105 L 111 103 L 110 103 L 110 105 L 108 105 L 107 105 L 107 103 L 108 103 L 108 102 L 107 102 L 107 100 L 108 100 L 110 100 L 110 102 L 111 102 L 111 100" />
    <path d="M 116 103 L 116 105 L 117 105 L 117 103 L 117 102 L 116 102 L 116 100 L 117 100 L 119 100 L 119 102 L 121 102 L 121 100 L 122 100 L 124 100 L 124 102 L 122 102 L 122 103 L 124 103 L 124 105 L 122 105 L 121 105 L 121 103 L 119 103 L 119 105 L 119 107 L 119 108 L 121 108 L 121 107 L 122 107 L 124 107 L 124 108 L 122 108 L 122 110 L 124 110 L 124 111 L 122 111 L 121 111 L 121 110 L 119 110 L 119 111 L 117 111 L 116 111 L 116 110 L 117 110 L 117 108 L 117 107 L 116 107 L 116 108 L 114 108 L 114 107 L 113 107 L 113 108 L 113 110 L 114 110 L 114 111 L 113 111 L 113 113 L 114 113 L 114 114 L 113 114 L 113 116 L 113 117 L 114 117 L 114 116 L 116 116 L 116 117 L 117 117 L 117 116 L 117 114 L 116 114 L 116 113 L 117 113 L 119 113 L 119 114 L 121 114 L 121 113 L 122 113 L 124 113 L 124 114 L 122 114 L 122 116 L 124 116 L 124 117 L 122 117 L 121 117 L 121 116 L 119 116 L 119 117 L 119 119 L 119 121 L 121 121 L 121 119 L 122 119 L 124 119 L 124 121 L 122 121 L 122 122 L 124 122 L 124 124 L 122 124 L 121 124 L 121 122 L 119 122 L 119 124 L 117 124 L 116 124 L 116 122 L 117 122 L 117 121 L 117 119 L 116 119 L 116 121 L 114 121 L 114 119 L 113 119 L 113 121 L 113 122 L 114 122 L 114 124 L 113 124 L 111 124 L 111 122 L 110 122 L 110 124 L 108 124 L 107 124 L 107 122 L 108 122 L 108 121 L 107 121 L 107 119 L 108 119 L 110 119 L 110 121 L 111 121 L 111 119 L 111 117 L 110 117 L 110 116 L 111 116 L 111 114 L 111 113 L 110 113 L 110 114 L 108 114 L 108 113 L 107 113 L 107 114 L 107 116 L 108 116 L 108 117 L 107 117 L 105 117 L 103 117 L 103 116 L 105 116 L 105 114 L 105 113 L 103 113 L 103 114 L 102 114 L 102 113 L 100 113 L 100 114 L 100 116 L 102 116 L 102 117 L 100 117 L 100 119 L 100 121 L 102 121 L 102 119 L 103 119 L 105 119 L 105 121 L 103 121 L 103 122 L 105 122 L 105 124 L 103 124 L 102 124 L 102 122 L 100 122 L 100 124 L 100 125 L 102 125 L 102 127 L 100 127 L 100 128 L 100 130 L 102 130 L 102 128 L 103 128 L 103 130 L 105 130 L 105 128 L 105 127 L 103 127 L 103 125 L 105 125 L 107 125 L 107 127 L 108 127 L 108 125 L 110 125 L 111 125 L 111 127 L 110 127 L 110 128 L 111 128 L 111 130 L 110 130 L 108 130 L 108 128 L 107 128 L 107 130 L 107 132 L 107 133 L 108 133 L 108 132 L 110 132 L 111 132 L 111 133 L 110 133 L 110 135 L 111 135 L 111 136 L 110 136 L 108 136 L 108 135 L 107 135 L 107 136 L 105 136 L 103 136 L 103 135 L 105 135 L 105 133 L 105 132 L 103 132 L 103 133 L 102 133 L 102 132 L 100 132 L 100 133 L 100 135 L 102 135 L 102 136 L 100 136 L 100 138 L 100 139 L 102 139 L 102 138 L 103 138 L 105 138 L 105 139 L 103 139 L 103 141 L 105 141 L 105 142 L 103 142 L 102 142 L 102 141 L 100 141 L 100 142 L 100 144 L 102 144 L 102 146 L 100 146 L 100 147 L 100 149 L 102 149 L 102 147 L 103 147 L 103 149 L 105 149 L 105 147 L 105 146 L 103 146 L 103 144 L 105 144 L 107 144 L 108 144 L 108 146 L 107 146 L 107 147 L 107 149 L 108 149 L 108 147 L 110 147" />
    <path d="M 111 147 L 111 146 L 110 146 L 110 144 L 111 144 L 111 142 L 111 141 L 110 141 L 110 142 L 108 142 L 107 142 L 107 141 L 108 141 L 108 139 L 107 139 L 107 138 L 108 138 L 110 138 L 110 139 L 111 139 L 111 138 L 113 138 L 113 139 L 114 139 L 114 138 L 116 138 L 117 138 L 117 139 L 116 139 L 116 141 L 117 141 L 117 142 L 116 142 L 114 142 L 114 141 L 113 141 L 113 142 L 113 144 L 114 144 L 114 146 L 113 146 L 113 147" />
    <path d="M 114 147 L 116 147" />
    <path d="M 117 147 L 117 146 L 116 146 L 116 144 L 117 144 L 119 144 L 121 144" />
    <path d="M 124 142 L 124 141 L 122 141 L 122 142 L 121 142 L 119 142 L 119 141 L 121 141 L 121 139 L 119 139 L 119 138 L 121 138 L 122 138 L 122 139 L 124 139 L 124 138 L 124 136 L 122 136 L 122 135 L 124 135 L 124 133 L 124 132 L 122 132 L 122 133 L 121 133 L 121 132 L 119 132 L 119 133 L 119 135 L 121 135 L 121 136 L 119 136 L 117 136 L 117 135 L 116 135 L 116 136 L 114 136 L 113 136 L 113 135 L 114 135 L 114 133 L 113 133 L 113 132 L 114 132 L 116 132 L 116 133 L 117 133 L 117 132 L 117 130 L 117 128 L 116 128 L 116 130 L 114 130 L 113 130 L 113 128 L 114 128 L 114 127 L 113 127 L 113 125 L 114 125 L 116 125 L 116 127 L 117 127 L 117 125 L 119 125 L 121 125 L 121 127 L 119 127 L 119 128 L 119 130 L 121 130 L 121 128 L 122 128 L 122 130 L 124 130 L 124 128 L 124 127 L 122 127 L 122 125 L 124 125 L 125 125 L 127 125 L 127 127 L 125 127 L 125 128 L 125 130 L 127 130 L 127 128 L 128 128 L 128 130 L 130 130 L 130 128 L 130 127 L 128 127 L 128 125 L 130 125 L 132 125 L 132 127 L 133 127 L 133 125 L 135 125 L 136 125 L 136 127 L 135 127 L 135 128 L 136 128 L 136 130 L 135 130 L 133 130 L 133 128 L 132 128 L 132 130 L 132 132 L 132 133 L 133 133 L 133 132 L 135 132 L 136 132 L 136 133 L 135 133 L 135 135" />
    <path d="M 133 136 L 133 135 L 132 135 L 132 136 L 130 136 L 128 136 L 128 135 L 130 135 L 130 133 L 130 132 L 128 132 L 128 133 L 127 133 L 127 132 L 125 132 L 125 133 L 125 135 L 127 135 L 127 136 L 125 136 L 125 138 L 125 139 L 127 139 L 127 138 L 128 138 L 130 138 L 130 139 L 128 139 L 128 141" />
    <path d="M 127 142 L 127 141 L 125 141 L 125 142" />
    <path d="M 139 130 L 138 130 L 138 128 L 139 128 L 139 127 L 138 127 L 138 125 L 139 125 L 141 125 L 141 127 L 142 127 L 142 125" />
    <path d="M 144 121 L 144 119 L 146 119" />
    <path d="M 147 117 L 147 116" />
    <path d="M 147 113 L 147 114 L 146 114 L 146 113 L 144 113 L 144 114 L 144 116 L 146 116 L 146 117 L 144 117 L 142 117 L 141 117 L 141 116 L 142 116 L 142 114 L 142 113 L 141 113 L 141 114 L 139 114 L 139 113 L 138 113 L 138 114 L 138 116 L 139 116 L 139 117 L 138 117 L 138 119 L 138 121 L 139 121 L 139 119 L 141 119 L 142 119 L 142 121 L 141 121 L 141 122 L 142 122 L 142 124 L 141 124 L 139 124 L 139 122 L 138 122 L 138 124 L 136 124 L 135 124 L 135 122 L 136 122 L 136 121 L 136 119 L 135 119 L 135 121 L 133 121 L 133 119 L 132 119 L 132 121 L 132 122 L 133 122 L 133 124 L 132 124 L 130 124 L 130 122 L 128 122 L 128 124 L 127 124 L 125 124 L 125 122 L 127 122 L 127 121 L 125 121 L 125 119 L 127 119 L 128 119 L 128 121 L 130 121 L 130 119 L 130 117 L 130 116 L 128 116 L 128 117 L 127 117 L 125 117 L 125 116 L 127 116 L 127 114 L 125 114 L 125 113 L 127 113 L 128 113 L 128 114 L 130 114 L 130 113 L 132 113 L 133 113 L 133 114 L 132 114 L 132 116 L 132 117 L 133 117 L 133 116 L 135 116 L 135 117 L 136 117 L 136 116 L 136 114 L 135 114 L 135 113 L 136 113 L 136 111 L 135 111 L 135 110 L 136 110 L 136 108 L 136 107 L 135 107 L 135 108 L 133 108 L 133 107 L 132 107 L 132 108 L 132 110 L 133 110 L 133 111 L 132 111 L 130 111 L 130 110 L 128 110 L 128 111 L 127 111 L 125 111 L 125 110 L 127 110 L 127 108 L 125 108 L 125 107 L 127 107 L 128 107 L 128 108 L 130 108 L 130 107 L 130 105 L 130 103 L 128 103 L 128 105 L 127 105 L 125 105 L 125 103 L 127 103 L 127 102 L 125 102 L 125 100 L 127 100 L 128 100 L 128 102 L 130 102 L 130 100 L 132 100 L 133 100 L 133 102 L 132 102 L 132 103 L 132 105 L 133 105 L 133 103 L 135 103 L 135 105 L 136 105 L 136 103 L 136 102 L 135 102 L 135 100 L 136 100 L 138 100 L 138 102 L 139 102 L 139 100 L 141 100 L 142 100 L 142 102 L 141 102 L 141 103 L 142 103 L 142 105 L 141 105 L 139 105 L 139 103 L 138 103 L 138 105 L 138 107 L 139 107 L 139 108 L 138 108 L 138 110 L 138 111 L 139 111 L 139 110 L 141 110 L 141 111 L 142 111 L 142 110 L 142 108 L 141 108 L 141 107 L 142 107 L 144 107 L 146 107 L 146 108 L 144 108 L 144 110 L 144 111 L 146 111 L 146 110 L 147 110 L 147 111" />
    <path d="M 149 108 L 147 108 L 147 107 L 149 107 L 149 105 L 149 103 L 147 103 L 147 105 L 146 105 L 144 105 L 144 103 L 146 103 L 146 102 L 144 102 L 144 100 L 146 100 L 147 100 L 147 102 L 149 102 L 149 100 L 150 100" />
    <path d="M 177 102 L 177 100 L 178 100 L 180 100 L 180 102 L 178 102 L 178 103 L 180 103 L 180 105 L 178 105 L 177 105 L 177 103" />
    <path d="M 177 107 L 177 108" />
    <path d="M 177 111 L 177 110 L 178 110 L 178 111 L 180 111 L 180 110 L 180 108 L 178 108 L 178 107 L 180 107 L 182 107 L 183 107 L 183 108 L 182 108 L 182 110 L 182 111 L 183 111 L 183 110" />
    <path d="M 183 105 L 182 105 L 182 103 L 183 103 L 183 102 L 182 102 L 182 100 L 183 100" />
    <path d="M 183 124 L 182 124 L 182 122 L 183 122 L 183 121 L 182 121 L 182 119 L 183 119" />
    <path d="M 183 114 L 183 113 L 182 113 L 182 114 L 182 116 L 183 116 L 183 117 L 182 117 L 180 117 L 178 117 L 178 116 L 180 116 L 180 114 L 180 113 L 178 113 L 178 114 L 177 114 L 177 113" />
    <path d="M 177 116 L 177 117" />
    <path d="M 177 121 L 177 119 L 178 119 L 180 119 L 180 121 L 178 121 L 178 122 L 180 122 L 180 124 L 178 124 L 177 124 L 177 122" />
    <path d="M 177 127 L 177 125 L 178 125 L 180 125 L 180 127 L 178 127 L 178 128 L 180 128 L 180 130 L 178 130 L 177 130 L 177 128" />
    <path d="M 177 132 L 177 133" />
    <path d="M 177 136 L 177 135 L 178 135 L 178 136 L 180 136 L 180 135 L 180 133 L 178 133 L 178 132 L 180 132 L 182 132 L 183 132 L 183 133 L 182 133 L 182 135 L 182 136 L 183 136 L 183 135" />
    <path d="M 183 130 L 182 130 L 182 128 L 183 128 L 183 127 L 182 127 L 182 125 L 183 125" />
    <path d="M 183 149 L 182 149 L 182 147 L 183 147 L 183 146 L 182 146 L 182 144 L 183 144" />
    <path d="M 183 139 L 183 138 L 182 138 L 182 139 L 182 141 L 183 141 L 183 142 L 182 142 L 180 142 L 178 142 L 178 141 L 180 141 L 180 139 L 180 138 L 178 138 L 178 139 L 177 139 L 177 138" />
    <path d="M 177 141 L 177 142" />
    <path d="M 177 146 L 177 144 L 178 144 L 180 144 L 180 146 L 178 146 L 178 147 L 180 147 L 180 149 L 178 149 L 177 149 L 177 147" />
    <path d="M 177 152 L 177 150 L 178 150 L 180 150 L 180 152 L 178 152 L 178 153 L 180 153 L 180 155 L 178 155 L 177 155 L 177 153" />
    <path d="M 177 157 L 177 158" />
    <path d="M 177 161 L 177 160 L 178 160 L 178 161 L 180 161 L 180 160 L 180 158 L 178 158 L 178 157 L 180 157 L 182 157 L 183 157 L 183 158 L 182 158 L 182 160 L 182 161 L 183 161 L 183 160" />
    <path d="M 183 155 L 182 155 L 182 153 L 183 153 L 183 152 L 182 152 L 182 150 L 183 150" />
    <path d="M 183 174 L 182 174 L 182 172 L 183 172 L 183 171 L 182 171 L 182 169 L 183 169" />
    <path d="M 183 164 L 183 163 L 182 163 L 182 164 L 182 166 L 183 166 L 183 167 L 182 167 L 180 167 L 178 167 L 178 166 L 180 166 L 180 164 L 180 163 L 178 163 L 178 164 L 177 164 L 177 163" />
    <path d="M 177 166 L 177 167" />
    <path d="M 177 171 L 177 169 L 178 169 L 180 169 L 180 171 L 178 171 L 178 172 L 180 172 L 180 174 L 178 174 L 177 174 L 177 172" />
    <path d="M 175 177 L 177 177 L 177 175 L 178 175 L 180 175 L 180 177 L 178 177 L 178 178 L 180 178 L 180 180 L 178 180 L 177 180 L 177 178 L 175 178 L 175 180 L 175 182 L 177 182 L 177 183 L 175 183" />
    <path d="M 180 183 L 178 183 L 178 182 L 180 182 L 182 182" />
    <path d="M 183 180 L 182 180 L 182 178 L 183 178 L 183 177 L 182 177 L 182 175 L 183 175" />
    <path d="M 171 183 L 169 183 L 169 182 L 171 182 L 172 182 L 172 183 L 174 183 L 174 182 L 174 180 L 172 180 L 172 178 L 174 178 L 174 177" />
    <path d="M 172 177 L 171 177" />
    <path d="M 169 177 L 169 178 L 171 178 L 171 180 L 169 180 L 167 180 L 166 180 L 166 178 L 167 178 L 167 177" />
    <path d="M 166 177 L 164 177" />
    <path d="M 163 177 L 163 178 L 164 178 L 164 180 L 163 180 L 163 182 L 163 183 L 164 183 L 164 182 L 166 182 L 167 182 L 167 183 L 166 183" />
    <path d="M 158 183 L 157 183 L 157 182 L 158 182 L 160 182 L 160 183 L 161 183 L 161 182 L 161 180 L 160 180 L 160 178 L 161 178 L 161 177" />
    <path d="M 160 177 L 158 177" />
    <path d="M 157 177 L 157 178 L 158 178 L 158 180 L 157 180 L 155 180 L 153 180 L 153 178 L 155 178 L 155 177" />
    <path d="M 153 177 L 152 177" />
    <path d="M 150 177 L 150 178 L 152 178 L 152 180 L 150 180 L 150 182 L 150 183 L 152 183 L 152 182 L 153 182 L 155 182 L 155 183 L 153 183" />
    <path d="M 136 183 L 136 182 L 135 182 L 135 183 L 133 183 L 133 182 L 132 182 L 132 183" />
    <path d="M 127 183 L 125 183 L 125 182 L 127 182 L 128 182 L 128 183 L 130 183 L 130 182 L 130 180 L 130 178 L 128 178 L 128 180 L 127 180 L 125 180 L 125 178 L 127 178 L 127 177 L 125 177" />
    <path d="M 128 177 L 130 177" />
    <path d="M 133 177 L 132 177 L 132 178 L 132 180 L 133 180 L 133 178 L 135 178 L 135 180 L 136 180 L 136 178 L 136 177 L 135 177" />
    <path d="M 138 177 L 139 177" />
    <path d="M 142 177 L 141 177 L 141 178 L 142 178 L 142 180 L 141 180 L 139 180 L 139 178 L 138 178 L 138 180 L 138 182 L 139 182 L 139 183 L 138 183" />
    <path d="M 142 183 L 141 183 L 141 182 L 142 182 L 144 182 L 146 182 L 146 183 L 144 183" />
    <path d="M 149 183 L 147 183 L 147 182 L 149 182 L 149 180 L 149 178 L 147 178 L 147 180 L 146 180 L 144 180 L 144 178 L 146 178 L 146 177 L 144 177" />
    <path d="M 147 177 L 149 177" />
    <path d="M 100 177 L 102 177" />
    <path d="M 105 177 L 103 177 L 103 178 L 105 178 L 105 180 L 103 180 L 102 180 L 102 178 L 100 178 L 100 180 L 100 182 L 102 182 L 102 183 L 100 183" />
    <path d="M 105 183 L 103 183 L 103 182 L 105 182 L 107 182 L 108 182 L 108 183 L 107 183" />
    <path d="M 111 183 L 110 183 L 110 182 L 111 182 L 111 180 L 111 178 L 110 178 L 110 180 L 108 180 L 107 180 L 107 178 L 108 178 L 108 177 L 107 177" />
    <path d="M 110 177 L 111 177" />
    <path d="M 114 177 L 113 177 L 113 178 L 113 180 L 114 180 L 114 178 L 116 178 L 116 180 L 117 180 L 117 178 L 117 177 L 116 177" />
    <path d="M 119 177 L 121 177" />
    <path d="M 124 177 L 122 177 L 122 178 L 124 178 L 124 180 L 122 180 L 121 180 L 121 178 L 119 178 L 119 180 L 119 182 L 119 183 L 121 183 L 121 182 L 122 182 L 124 182 L 124 183 L 122 183" />
    <path d="M 117 183 L 117 182 L 116 182 L 116 183 L 114 183 L 114 182 L 113 182 L 113 183" />
    <path d="M 96 183 L 94 183 L 94 182 L 96 182 L 97 182 L 97 183 L 99 183 L 99 182 L 99 180 L 97 180 L 97 178 L 99 178 L 99 177" />
    <path d="M 97 177 L 96 177" />
    <path d="M 94 177 L 94 178 L 96 178 L 96 180 L 94 180 L 92 180 L 91 180 L 91 178 L 92 178 L 92 177" />
    <path d="M 91 177 L 89 177" />
    <path d="M 88 177 L 88 178 L 89 178 L 89 180 L 88 180 L 88 182 L 88 183 L 89 183 L 89 182 L 91 182 L 92 182 L 92 183 L 91 183" />
    <path d="M 83 183 L 82 183 L 82 182 L 83 182 L 85 182 L 85 183 L 86 183 L 86 182 L 86 180 L 85 180 L 85 178 L 86 178 L 86 177" />
    <path d="M 85 177 L 83 177" />
    <path d="M 82 177 L 82 178 L 83 178 L 83 180 L 82 180 L 80 180 L 78 180 L 78 178 L 80 178 L 80 177" />
    <path d="M 78 177 L 77 177" />
    <path d="M 75 177 L 75 178 L 77 178 L 77 180 L 75 180 L 75 182 L 75 183 L 77 183 L 77 182 L 78 182 L 80 182 L 80 183 L 78 183" />
    <path d="M 61 183 L 61 182 L 60 182 L 60 183 L 58 183 L 58 182 L 57 182 L 57 183" />
    <path d="M 52 183 L 50 183 L 50 182 L 52 182 L 53 182 L 53 183 L 55 183 L 55 182 L 55 180 L 55 178 L 53 178 L 53 180 L 52 180 L 50 180 L 50 178 L 52 178 L 52 177 L 50 177" />
    <path d="M 53 177 L 55 177" />
    <path d="M 58 177 L 57 177 L 57 178 L 57 180 L 58 180 L 58 178 L 60 178 L 60 180 L 61 180 L 61 178 L 61 177 L 60 177" />
    <path d="M 63 177 L 64 177" />
    <path d="M 67 177 L 66 177 L 66 178 L 67 178 L 67 180 L 66 180 L 64 180 L 64 178 L 63 178 L 63 180 L 63 182 L 64 182 L 64 183 L 63 183" />
    <path d="M 67 183 L 66 183 L 66 182 L 67 182 L 69 182 L 71 182 L 71 183 L 69 183" />
    <path d="M 74 183 L 72 183 L 72 182 L 74 182 L 74 180 L 74 178 L 72 178 L 72 180 L 71 180 L 69 180 L 69 178 L 71 178 L 71 177 L 69 177" />
    <path d="M 72 177 L 74 177" />
    <path d="M 99 149 L 99 147 L 97 147 L 97 149 L 96 149 L 94 149 L 94 147 L 96 147 L 96 146 L 94 146 L 94 144 L 96 144 L 97 144 L 97 146 L 99 146 L 99 144 L 99 142 L 97 142 L 97 141 L 99 141 L 99 139 L 99 138 L 97 138 L 97 139 L 96 139 L 96 138 L 94 138 L 94 139 L 94 141 L 96 141 L 96 142 L 94 142 L 92 142 L 91 142 L 91 141 L 92 141 L 92 139 L 92 138 L 91 138 L 91 139 L 89 139 L 89 138 L 88 138 L 88 139 L 88 141 L 89 141 L 89 142 L 88 142 L 88 144 L 88 146 L 89 146 L 89 144 L 91 144 L 92 144 L 92 146 L 91 146 L 91 147 L 92 147 L 92 149 L 91 149" />
    <path d="M 89 147 L 88 147" />
    <path d="M 85 147 L 86 147 L 86 146 L 86 144 L 85 144 L 85 146 L 83 146 L 83 144 L 82 144 L 82 146" />
    <path d="M 77 144 L 78 144" />
    <path d="M 80 144 L 80 142 L 80 141 L 78 141 L 78 142 L 77 142 L 75 142 L 75 141 L 77 141 L 77 139 L 75 139 L 75 138 L 77 138 L 78 138 L 78 139 L 80 139 L 80 138 L 82 138 L 83 138 L 83 139 L 82 139 L 82 141 L 82 142 L 83 142 L 83 141 L 85 141 L 85 142 L 86 142 L 86 141 L 86 139 L 85 139 L 85 138 L 86 138 L 86 136 L 85 136 L 85 135 L 86 135 L 86 133 L 86 132 L 85 132 L 85 133 L 83 133 L 83 132 L 82 132 L 82 133 L 82 135 L 83 135 L 83 136 L 82 136 L 80 136 L 80 135 L 78 135 L 78 136 L 77 136 L 75 136 L 75 135 L 77 135 L 77 133 L 75 133 L 75 132 L 77 132 L 78 132 L 78 133 L 80 133 L 80 132 L 80 130 L 80 128 L 78 128 L 78 130 L 77 130 L 75 130 L 75 128 L 77 128 L 77 127 L 75 127 L 75 125 L 77 125 L 78 125 L 78 127 L 80 127 L 80 125 L 82 125 L 83 125 L 83 127 L 82 127 L 82 128 L 82 130 L 83 130 L 83 128 L 85 128 L 85 130 L 86 130 L 86 128 L 86 127 L 85 127 L 85 125 L 86 125 L 88 125 L 88 127 L 89 127 L 89 125 L 91 125 L 92 125 L 92 127 L 91 127 L 91 128 L 92 128 L 92 130 L 91 130 L 89 130 L 89 128 L 88 128 L 88 130 L 88 132 L 89 132 L 89 133 L 88 133 L 88 135 L 88 136 L 89 136 L 89 135 L 91 135 L 91 136 L 92 136 L 92 135 L 92 133 L 91 133 L 91 132 L 92 132 L 94 132 L 96 132 L 96 133 L 94 133 L 94 135 L 94 136 L 96 136 L 96 135 L 97 135 L 97 136 L 99 136 L 99 135 L 99 133 L 97 133 L 97 132 L 99 132 L 99 130 L 99 128 L 97 128 L 97 130 L 96 130 L 94 130 L 94 128 L 96 128 L 96 127 L 94 127 L 94 125 L 96 125 L 97 125 L 97 127 L 99 127 L 99 125 L 99 124 L 97 124 L 97 122 L 99 122 L 99 121 L 99 119 L 97 119 L 97 121 L 96 121 L 96 119 L 94 119 L 94 121 L 94 122 L 96 122 L 96 124 L 94 124 L 92 124 L 92 122 L 91 122 L 91 124 L 89 124 L 88 124 L 88 122 L 89 122 L 89 121 L 88 121 L 88 119 L 89 119 L 91 119 L 91 121 L 92 121 L 92 119 L 92 117 L 92 116 L 91 116 L 91 117 L 89 117 L 88 117 L 88 116 L 89 116 L 89 114 L 88 114 L 88 113 L 89 113 L 91 113 L 91 114 L 92 114 L 92 113 L 94 113 L 96 113 L 96 114 L 94 114 L 94 116 L 94 117 L 96 117 L 96 116 L 97 116 L 97 117 L 99 117 L 99 116 L 99 114 L 97 114 L 97 113 L 99 113 L 99 111 L 99 110 L 97 110 L 97 111 L 96 111 L 94 111 L 94 110 L 96 110 L 96 108 L 94 108 L 94 107 L 96 107 L 97 107 L 97 108 L 99 108 L 99 107" />
    <path d="M 99 102 L 99 100 L 97 100 L 97 102 L 96 102 L 96 100 L 94 100 L 94 102 L 94 103 L 96 103" />
    <path d="M 92 103 L 92 102 L 92 100 L 91 100 L 91 102" />
    <path d="M 89 100 L 88 100" />
    <path d="M 88 105 L 88 107 L 88 108 L 89 108 L 89 107 L 91 107 L 92 107 L 92 108 L 91 108 L 91 110 L 92 110 L 92 111 L 91 111 L 89 111 L 89 110 L 88 110 L 88 111 L 86 111 L 86 110 L 85 110 L 85 111 L 83 111 L 82 111 L 82 110 L 83 110 L 83 108 L 82 108 L 82 107 L 83 107 L 85 107 L 85 108 L 86 108 L 86 107 L 86 105 L 85 105 L 85 103 L 86 103 L 86 102 L 86 100 L 85 100 L 85 102 L 83 102 L 83 100 L 82 100 L 82 102 L 82 103 L 83 103" />
    <path d="M 78 103 L 80 103 L 80 102 L 80 100 L 78 100 L 78 102 L 77 102 L 77 100 L 75 100 L 75 102 L 75 103 L 77 103" />
    <path d="M 75 107 L 75 108 L 77 108 L 77 107 L 78 107 L 80 107 L 80 108 L 78 108 L 78 110 L 80 110 L 80 111 L 78 111 L 77 111 L 77 110 L 75 110 L 75 111 L 75 113 L 77 113 L 77 114 L 75 114 L 75 116 L 75 117 L 77 117 L 77 116 L 78 116 L 78 117 L 80 117 L 80 116 L 80 114 L 78 114 L 78 113 L 80 113 L 82 113 L 82 114 L 83 114 L 83 113 L 85 113 L 86 113 L 86 114 L 85 114 L 85 116 L 86 116 L 86 117 L 85 117 L 83 117 L 83 116 L 82 116 L 82 117 L 82 119 L 82 121 L 83 121 L 83 119 L 85 119 L 86 119 L 86 121 L 85 121 L 85 122 L 86 122 L 86 124 L 85 124 L 83 124 L 83 122 L 82 122 L 82 124 L 80 124 L 78 124 L 78 122 L 80 122 L 80 121 L 80 119 L 78 119 L 78 121 L 77 121 L 77 119 L 75 119 L 75 121 L 75 122 L 77 122 L 77 124 L 75 124 L 74 124 L 72 124 L 72 122 L 74 122 L 74 121 L 74 119 L 72 119 L 72 121 L 71 121 L 71 119 L 69 119 L 69 121 L 69 122 L 71 122 L 71 124 L 69 124 L 67 124 L 67 122 L 66 122 L 66 124 L 64 124 L 63 124 L 63 122 L 64 122 L 64 121 L 63 121 L 63 119 L 64 119 L 66 119 L 66 121 L 67 121 L 67 119 L 67 117 L 67 116 L 66 116 L 66 117 L 64 117 L 63 117 L 63 116 L 64 116 L 64 114 L 63 114 L 63 113 L 64 113 L 66 113 L 66 114 L 67 114 L 67 113 L 69 113 L 71 113 L 71 114 L 69 114 L 69 116 L 69 117 L 71 117 L 71 116 L 72 116 L 72 117 L 74 117 L 74 116 L 74 114 L 72 114 L 72 113 L 74 113 L 74 111 L 74 110 L 72 110 L 72 111 L 71 111 L 69 111 L 69 110 L 71 110 L 71 108 L 69 108 L 69 107 L 71 107 L 72 107 L 72 108 L 74 108 L 74 107" />
    <path d="M 72 103 L 74 103 L 74 102 L 74 100 L 72 100 L 72 102" />
    <path d="M 67 105 L 66 105 L 66 103 L 67 103 L 67 102 L 67 100 L 66 100 L 66 102 L 64 102 L 64 100 L 63 100 L 63 102 L 63 103 L 64 103 L 64 105 L 63 105 L 63 107 L 63 108 L 64 108 L 64 107 L 66 107 L 67 107 L 67 108 L 66 108 L 66 110 L 67 110 L 67 111 L 66 111 L 64 111 L 64 110 L 63 110 L 63 111 L 61 111 L 61 110 L 60 110 L 60 111 L 58 111 L 57 111 L 57 110 L 58 110 L 58 108 L 57 108 L 57 107 L 58 107 L 60 107 L 60 108 L 61 108 L 61 107 L 61 105 L 60 105 L 60 103 L 61 103 L 61 102 L 61 100 L 60 100 L 60 102" />
    <path d="M 55 105 L 53 105 L 53 103 L 55 103 L 55 102 L 55 100 L 53 100 L 53 102 L 52 102 L 52 100 L 50 100" />
    <path d="M 52 103 L 52 105" />
    <path d="M 52 108 L 52 107 L 53 107 L 55 107 L 55 108 L 53 108 L 53 110 L 55 110 L 55 111 L 53 111 L 52 111 L 52 110" />
    <path d="M 52 113 L 52 114" />
    <path d="M 53 116 L 53 117 L 55 117 L 55 116 L 55 114 L 53 114 L 53 113 L 55 113 L 57 113 L 57 114 L 58 114 L 58 113 L 60 113 L 61 113 L 61 114 L 60 114 L 60 116 L 61 116 L 61 117 L 60 117 L 58 117 L 58 116 L 57 116 L 57 117 L 57 119 L 57 121 L 58 121 L 58 119 L 60 119 L 61 119 L 61 121 L 60 121 L 60 122 L 61 122 L 61 124 L 60 124 L 58 124 L 58 122 L 57 122 L 57 124" />
    <path d="M 55 121 L 55 119" />
    <path d="M 61 130 L 61 128 L 60 128 L 60 130" />
    <path d="M 57 125 L 58 125 L 60 125 L 60 127 L 61 127 L 61 125 L 63 125 L 64 125 L 64 127 L 63 127 L 63 128 L 63 130 L 64 130 L 64 128 L 66 128 L 66 130 L 67 130 L 67 128 L 67 127 L 66 127 L 66 125 L 67 125 L 69 125 L 69 127 L 71 127 L 71 125 L 72 125 L 74 125 L 74 127 L 72 127 L 72 128 L 74 128 L 74 130 L 72 130 L 71 130 L 71 128 L 69 128 L 69 130 L 69 132 L 69 133 L 71 133 L 71 132 L 72 132 L 74 132 L 74 133 L 72 133 L 72 135 L 74 135 L 74 136 L 72 136 L 71 136 L 71 135 L 69 135 L 69 136 L 67 136 L 66 136 L 66 135 L 67 135 L 67 133 L 67 132 L 66 132 L 66 133 L 64 133 L 64 132 L 63 132 L 63 133" />
    <path d="M 69 138 L 69 139 L 71 139 L 71 138 L 72 138 L 74 138 L 74 139 L 72 139 L 72 141 L 74 141 L 74 142" />
    <path d="M 22 124 L 22 122" />
    <path d="M 22 119 L 22 121 L 21 121 L 21 119 L 19 119 L 19 121 L 19 122 L 21 122 L 21 124 L 19 124 L 17 124 L 17 122" />
    <path d="M 17 121 L 17 119 L 17 117 L 17 116" />
    <path d="M 17 114 L 17 113 L 19 113 L 21 113 L 21 114 L 19 114 L 19 116 L 19 117 L 21 117 L 21 116 L 22 116 L 22 117" />
    <path d="M 22 114 L 22 113" />
    <path d="M 22 110 L 22 111 L 21 111 L 19 111 L 19 110 L 21 110 L 21 108 L 19 108 L 19 107 L 21 107 L 22 107 L 22 108" />
    <path d="M 22 105 L 22 103" />
    <path d="M 22 100 L 22 102 L 21 102 L 21 100 L 19 100 L 19 102 L 19 103 L 21 103 L 21 105 L 19 105 L 17 105" />
    <path d="M 17 103 L 17 102 L 17 100" />
    <path d="M 17 107 L 17 108" />
    <path d="M 17 110 L 17 111" />
    <path d="M 17 130 L 17 128 L 17 127" />
    <path d="M 17 125 L 19 125 L 19 127 L 21 127 L 21 125 L 22 125" />
    <path d="M 22 127 L 22 128" />
    <path d="M 22 130 L 21 130 L 21 128 L 19 128 L 19 130 L 19 132 L 19 133 L 21 133 L 21 132 L 22 132" />
    <path d="M 22 133 L 22 135" />
    <path d="M 22 136 L 21 136 L 21 135 L 19 135 L 19 136 L 17 136" />
    <path d="M 17 135 L 17 133 L 17 132" />
    <path d="M 17 142 L 17 141 L 17 139" />
    <path d="M 17 138 L 19 138 L 19 139 L 21 139 L 21 138 L 22 138" />
    <path d="M 22 139 L 22 141" />
    <path d="M 22 142 L 21 142 L 21 141 L 19 141 L 19 142 L 19 144 L 19 146 L 21 146 L 21 144 L 22 144" />
    <path d="M 22 146 L 22 147" />
    <path d="M 22 149 L 21 149 L 21 147 L 19 147 L 19 149 L 17 149" />
    <path d="M 17 147 L 17 146 L 17 144" />
    <path d="M 17 163 L 17 164" />
    <path d="M 17 166 L 17 167" />
    <path d="M 17 174 L 17 172 L 17 171" />
    <path d="M 17 169 L 19 169 L 21 169 L 21 171 L 19 171 L 19 172 L 19 174 L 21 174 L 21 172 L 22 172 L 22 174" />
    <path d="M 22 171 L 22 169" />
    <path d="M 22 166 L 22 167 L 21 167 L 19 167 L 19 166 L 21 166 L 21 164 L 19 164 L 19 163 L 21 163 L 22 163 L 22 164" />
    <path d="M 22 161 L 22 160" />
    <path d="M 22 157 L 22 158 L 21 158 L 21 157 L 19 157 L 19 158 L 19 160 L 21 160 L 21 161 L 19 161 L 17 161 L 17 160" />
    <path d="M 17 158 L 17 157 L 17 155 L 17 153" />
    <path d="M 17 152 L 17 150 L 19 150 L 21 150 L 21 152 L 19 152 L 19 153 L 19 155 L 21 155 L 21 153 L 22 153 L 22 155" />
    <path d="M 22 152 L 22 150" />
    <path d="M 25 177 L 27 177" />
    <path d="M 30 177 L 28 177 L 28 178 L 30 178 L 30 180 L 28 180 L 27 180 L 27 178 L 25 178 L 25 180 L 25 182 L 27 182 L 27 183 L 25 183" />
    <path d="M 30 183 L 28 183 L 28 182 L 30 182 L 32 182 L 33 182 L 33 183 L 32 183" />
    <path d="M 36 183 L 35 183 L 35 182 L 36 182 L 36 180 L 36 178 L 35 178 L 35 180 L 33 180 L 32 180 L 32 178 L 33 178 L 33 177 L 32 177" />
    <path d="M 35 177 L 36 177" />
    <path d="M 39 177 L 38 177 L 38 178 L 38 180 L 39 180 L 39 178 L 41 178 L 41 180 L 42 180 L 42 178 L 42 177 L 41 177" />
    <path d="M 44 177 L 46 177" />
    <path d="M 49 177 L 47 177 L 47 178 L 49 178 L 49 180 L 47 180 L 46 180 L 46 178 L 44 178 L 44 180 L 44 182 L 44 183 L 46 183 L 46 182 L 47 182 L 49 182 L 49 183 L 47 183" />
    <path d="M 42 183 L 42 182 L 41 182 L 41 183 L 39 183 L 39 182 L 38 182 L 38 183" />
    <path d="M 19 182 L 21 182 L 22 182 L 22 183 L 24 183 L 24 182 L 24 180 L 22 180 L 22 178 L 24 178 L 24 177" />
    <path d="M 22 175 L 22 177 L 21 177 L 21 175 L 19 175 L 19 177 L 19 178 L 21 178 L 21 180 L 19 180 L 17 180" />
    <path d="M 17 178 L 17 177 L 17 175" />
  </g>
</svg>
