<?xml version="1.0" encoding="UTF-8"?>
<svg xmlns="http://www.w3.org/2000/svg" xmlns:inkscape="http://www.inkscape.org/namespaces/inkscape" width="210mm" height="297mm" viewBox="0 0 210 297">
  <g id="pen_0" inkscape:label="Pen 0">
    <path d="M183.005,241.515 L177.972,244.256 L185.415,250.793 L166.071,250.822 L164.343,240.196 L172.656,233.880 L195.545,227.529 L202.871,223.431 L193.068,215.323 L196.871,203.747 L200.028,191.969 L196.448,172.426 L166.043,188.691 L166.226,195.540 L148.030,174.674 L145.453,171.553 L145.972,166.203 L139.982,170.191 L149.790,153.680 L149.151,146.686 L156.726,132.123 L158.172,127.174 L162.472,132.789 L169.586,134.328 L144.960,109.211 L136.480,105.381 L131.790,104.020 L133.597,98.063 L134.264,92.391 L139.210,95.656 L140.982,90.390 L139.628,101.206 L122.590,78.694 L126.993,67.499 L130.098,62.688 L129.101,55.778 L132.519,71.812 L106.072,79.958 L96.756,91.097 L98.458,97.750 L99.539,103.587 L101.125,109.722 L106.167,106.067 L110.034,108.897 L105.625,116.581 L99.708,116.956 L95.982,113.260 L89.505,135.260 L84.393,133.600 L81.953,135.458 L85.355,138.839 L90.174,164.508 L85.520,165.751 L85.847,169.763 L83.741,175.644 L65.939,167.429 L50.974,198.744 L43.228,215.246 L55.696,219.804 L66.480,220.125 L68.659,209.808 L66.791,234.224 L64.123,241.254 L68.283,242.296 L68.682,247.538 L63.652,250.119 L47.276,252.070 L1.493,208.730 L26.241,168.852 L113.377,216.752 L113.390,226.412 L200.724,238.480 L97.046,65.164 L74.906,71.986" fill="none" stroke="#0F0F3C" stroke-width="0.3" stroke-linecap="round" stroke-linejoin="round"/>
  </g>
</svg>
