<?xml version="1.0" encoding="UTF-8"?>
<svg xmlns="http://www.w3.org/2000/svg" xmlns:inkscape="http://www.inkscape.org/namespaces/inkscape" width="210mm" height="297mm" viewBox="0 0 210 297">
  <g id="pen_0" inkscape:label="Pen 0">
    <path d="M90.682,57.916 L85.909,62.683" fill="none" stroke="#0F0F3C" stroke-width="0.3" stroke-linecap="round" stroke-linejoin="round"/>
    <path d="M76.364,72.219 L71.591,76.986 L76.364,81.754" fill="none" stroke="#0F0F3C" stroke-width="0.3" stroke-linecap="round" stroke-linejoin="round"/>
    <path d="M71.591,124.662 L66.818,129.430" fill="none" stroke="#0F0F3C" stroke-width="0.3" stroke-linecap="round" stroke-linejoin="round"/>
    <path d="M71.591,134.197 L76.364,129.430" fill="none" stroke="#0F0F3C" stroke-width="0.3" stroke-linecap="round" stroke-linejoin="round"/>
    <path d="M85.909,119.894 L90.682,124.662 L95.455,119.894 L100.227,115.127 L105.000,110.359 L109.773,115.127 L105.000,119.894 L100.227,124.662 L105.000,129.430" fill="none" stroke="#0F0F3C" stroke-width="0.3" stroke-linecap="round" stroke-linejoin="round"/>
    <path d="M95.455,158.035 L100.227,162.803 L105.000,167.570" fill="none" stroke="#0F0F3C" stroke-width="0.3" stroke-linecap="round" stroke-linejoin="round"/>
    <path d="M133.636,167.570 L138.409,172.338" fill="none" stroke="#0F0F3C" stroke-width="0.3" stroke-linecap="round" stroke-linejoin="round"/>
    <path d="M128.864,191.408 L124.091,186.641 L119.318,181.873" fill="none" stroke="#0F0F3C" stroke-width="0.3" stroke-linecap="round" stroke-linejoin="round"/>
    <path d="M100.227,172.338 L95.455,167.570 L90.682,172.338 L85.909,177.105 L90.682,181.873 L95.455,177.105 L100.227,181.873" fill="none" stroke="#0F0F3C" stroke-width="0.3" stroke-linecap="round" stroke-linejoin="round"/>
    <path d="M109.773,200.943 L114.545,196.176" fill="none" stroke="#0F0F3C" stroke-width="0.3" stroke-linecap="round" stroke-linejoin="round"/>
    <path d="M119.318,210.479 L124.091,215.246 L119.318,220.014" fill="none" stroke="#0F0F3C" stroke-width="0.3" stroke-linecap="round" stroke-linejoin="round"/>
    <path d="M109.773,220.014 L114.545,224.781 L119.318,229.549" fill="none" stroke="#0F0F3C" stroke-width="0.3" stroke-linecap="round" stroke-linejoin="round"/>
    <path d="M124.091,234.317 L128.864,229.549 L124.091,224.781 L128.864,220.014" fill="none" stroke="#0F0F3C" stroke-width="0.3" stroke-linecap="round" stroke-linejoin="round"/>
    <path d="M128.864,210.479 L133.636,205.711" fill="none" stroke="#0F0F3C" stroke-width="0.3" stroke-linecap="round" stroke-linejoin="round"/>
    <path d="M157.500,200.943 L152.727,196.176" fill="none" stroke="#0F0F3C" stroke-width="0.3" stroke-linecap="round" stroke-linejoin="round"/>
    <path d="M167.045,191.408 L162.273,196.176 L167.045,191.408" fill="none" stroke="#0F0F3C" stroke-width="0.3" stroke-linecap="round" stroke-linejoin="round"/>
    <path d="M167.045,143.732 L171.818,138.965 L176.591,134.197" fill="none" stroke="#0F0F3C" stroke-width="0.3" stroke-linecap="round" stroke-linejoin="round"/>
    <path d="M171.818,158.035 L167.045,153.268 L171.818,158.035" fill="none" stroke="#0F0F3C" stroke-width="0.3" stroke-linecap="round" stroke-linejoin="round"/>
    <path d="M195.682,153.268 L200.455,148.500" fill="none" stroke="#0F0F3C" stroke-width="0.3" stroke-linecap="round" stroke-linejoin="round"/>
    <path d="M205.227,143.732 L200.455,138.965" fill="none" stroke="#0F0F3C" stroke-width="0.3" stroke-linecap="round" stroke-linejoin="round"/>
    <path d="M167.045,124.662 L162.273,129.430 L157.500,124.662 L162.273,119.894 L167.045,115.127" fill="none" stroke="#0F0F3C" stroke-width="0.3" stroke-linecap="round" stroke-linejoin="round"/>
    <path d="M143.182,100.824 L138.409,96.057 L133.636,91.289 L138.409,86.521 L133.636,81.754" fill="none" stroke="#0F0F3C" stroke-width="0.3" stroke-linecap="round" stroke-linejoin="round"/>
    <path d="M119.318,57.916 L124.091,62.683 L128.864,67.451 L133.636,72.219" fill="none" stroke="#0F0F3C" stroke-width="0.3" stroke-linecap="round" stroke-linejoin="round"/>
    <path d="M147.955,86.521 L143.182,91.289" fill="none" stroke="#0F0F3C" stroke-width="0.3" stroke-linecap="round" stroke-linejoin="round"/>
    <path d="M143.182,91.289 L147.955,86.521" fill="none" stroke="#0F0F3C" stroke-width="0.3" stroke-linecap="round" stroke-linejoin="round"/>
    <path d="M133.636,72.219 L128.864,67.451 L124.091,62.683 L119.318,57.916 L114.545,53.148 L109.773,57.916" fill="none" stroke="#0F0F3C" stroke-width="0.3" stroke-linecap="round" stroke-linejoin="round"/>
    <path d="M133.636,100.824 L138.409,105.592 L143.182,110.359" fill="none" stroke="#0F0F3C" stroke-width="0.3" stroke-linecap="round" stroke-linejoin="round"/>
    <path d="M157.500,134.197 L152.727,138.965" fill="none" stroke="#0F0F3C" stroke-width="0.3" stroke-linecap="round" stroke-linejoin="round"/>
    <path d="M119.318,115.127 L114.545,110.359" fill="none" stroke="#0F0F3C" stroke-width="0.3" stroke-linecap="round" stroke-linejoin="round"/>
    <path d="M114.545,100.824 L109.773,96.057 L105.000,100.824 L100.227,105.592 L95.455,100.824 L100.227,96.057" fill="none" stroke="#0F0F3C" stroke-width="0.3" stroke-linecap="round" stroke-linejoin="round"/>
    <path d="M105.000,81.754 L100.227,76.986" fill="none" stroke="#0F0F3C" stroke-width="0.3" stroke-linecap="round" stroke-linejoin="round"/>
    <path d="M100.227,67.451 L95.455,72.219" fill="none" stroke="#0F0F3C" stroke-width="0.3" stroke-linecap="round" stroke-linejoin="round"/>
    <path d="M85.909,72.219 L81.136,76.986 L85.909,81.754 L81.136,86.521" fill="none" stroke="#0F0F3C" stroke-width="0.3" stroke-linecap="round" stroke-linejoin="round"/>
    <path d="M85.909,110.359 L90.682,115.127 L95.455,110.359 L90.682,115.127 L85.909,110.359" fill="none" stroke="#0F0F3C" stroke-width="0.3" stroke-linecap="round" stroke-linejoin="round"/>
    <path d="M81.136,86.521 L85.909,81.754 L81.136,76.986 L85.909,72.219" fill="none" stroke="#0F0F3C" stroke-width="0.3" stroke-linecap="round" stroke-linejoin="round"/>
    <path d="M95.455,72.219 L100.227,67.451" fill="none" stroke="#0F0F3C" stroke-width="0.3" stroke-linecap="round" stroke-linejoin="round"/>
    <path d="M100.227,76.986 L105.000,81.754" fill="none" stroke="#0F0F3C" stroke-width="0.3" stroke-linecap="round" stroke-linejoin="round"/>
    <path d="M100.227,96.057 L95.455,100.824 L100.227,105.592 L105.000,100.824 L109.773,105.592 L105.000,100.824 L109.773,96.057 L114.545,100.824" fill="none" stroke="#0F0F3C" stroke-width="0.3" stroke-linecap="round" stroke-linejoin="round"/>
    <path d="M114.545,110.359 L119.318,115.127" fill="none" stroke="#0F0F3C" stroke-width="0.3" stroke-linecap="round" stroke-linejoin="round"/>
    <path d="M143.182,148.500 L147.955,153.268 L143.182,158.035 L138.409,162.803 L143.182,167.570 L147.955,162.803 L152.727,158.035 L147.955,162.803 L143.182,167.570 L147.955,172.338 L143.182,167.570 L138.409,162.803 L133.636,158.035 L138.409,162.803 L143.182,158.035 L147.955,153.268" fill="none" stroke="#0F0F3C" stroke-width="0.3" stroke-linecap="round" stroke-linejoin="round"/>
    <path d="M162.273,138.965 L167.045,134.197 L171.818,129.430 L167.045,134.197 L162.273,138.965" fill="none" stroke="#0F0F3C" stroke-width="0.3" stroke-linecap="round" stroke-linejoin="round"/>
    <path d="M147.955,153.268 L143.182,148.500" fill="none" stroke="#0F0F3C" stroke-width="0.3" stroke-linecap="round" stroke-linejoin="round"/>
    <path d="M152.727,138.965 L157.500,134.197" fill="none" stroke="#0F0F3C" stroke-width="0.3" stroke-linecap="round" stroke-linejoin="round"/>
    <path d="M143.182,110.359 L138.409,105.592 L133.636,100.824" fill="none" stroke="#0F0F3C" stroke-width="0.3" stroke-linecap="round" stroke-linejoin="round"/>
    <path d="M109.773,57.916 L114.545,53.148 L119.318,57.916" fill="none" stroke="#0F0F3C" stroke-width="0.3" stroke-linecap="round" stroke-linejoin="round"/>
    <path d="M133.636,81.754 L138.409,86.521 L133.636,91.289 L138.409,96.057 L143.182,100.824" fill="none" stroke="#0F0F3C" stroke-width="0.3" stroke-linecap="round" stroke-linejoin="round"/>
    <path d="M167.045,115.127 L162.273,119.894 L157.500,124.662 L162.273,129.430 L167.045,124.662" fill="none" stroke="#0F0F3C" stroke-width="0.3" stroke-linecap="round" stroke-linejoin="round"/>
    <path d="M200.455,138.965 L205.227,143.732" fill="none" stroke="#0F0F3C" stroke-width="0.3" stroke-linecap="round" stroke-linejoin="round"/>
    <path d="M200.455,148.500 L195.682,153.268" fill="none" stroke="#0F0F3C" stroke-width="0.3" stroke-linecap="round" stroke-linejoin="round"/>
    <path d="M176.591,134.197 L171.818,138.965 L167.045,143.732" fill="none" stroke="#0F0F3C" stroke-width="0.3" stroke-linecap="round" stroke-linejoin="round"/>
    <path d="M152.727,196.176 L157.500,200.943" fill="none" stroke="#0F0F3C" stroke-width="0.3" stroke-linecap="round" stroke-linejoin="round"/>
    <path d="M133.636,205.711 L128.864,210.479" fill="none" stroke="#0F0F3C" stroke-width="0.3" stroke-linecap="round" stroke-linejoin="round"/>
    <path d="M128.864,220.014 L124.091,224.781 L128.864,229.549 L124.091,234.317" fill="none" stroke="#0F0F3C" stroke-width="0.3" stroke-linecap="round" stroke-linejoin="round"/>
    <path d="M105.000,253.387 L100.227,248.619 L95.455,243.852 L90.682,239.084 L95.455,234.317 L100.227,239.084" fill="none" stroke="#0F0F3C" stroke-width="0.3" stroke-linecap="round" stroke-linejoin="round"/>
    <path d="M90.682,191.408 L95.455,186.641 L90.682,191.408 L95.455,196.176" fill="none" stroke="#0F0F3C" stroke-width="0.3" stroke-linecap="round" stroke-linejoin="round"/>
    <path d="M95.455,196.176 L90.682,191.408" fill="none" stroke="#0F0F3C" stroke-width="0.3" stroke-linecap="round" stroke-linejoin="round"/>
    <path d="M81.136,172.338 L85.909,167.570 L90.682,162.803 L85.909,158.035 L90.682,153.268 L85.909,148.500 L81.136,153.268" fill="none" stroke="#0F0F3C" stroke-width="0.3" stroke-linecap="round" stroke-linejoin="round"/>
    <path d="M81.136,143.732 L76.364,138.965 L81.136,134.197 L85.909,129.430 L90.682,134.197 L85.909,138.965 L90.682,143.732 L95.455,138.965 L100.227,134.197" fill="none" stroke="#0F0F3C" stroke-width="0.3" stroke-linecap="round" stroke-linejoin="round"/>
    <path d="M100.227,134.197 L95.455,129.430 L100.227,134.197 L95.455,138.965 L90.682,143.732 L85.909,138.965 L90.682,134.197 L85.909,129.430 L81.136,134.197 L76.364,138.965 L71.591,143.732 L66.818,148.500" fill="none" stroke="#0F0F3C" stroke-width="0.3" stroke-linecap="round" stroke-linejoin="round"/>
    <path d="M62.045,162.803 L57.273,167.570" fill="none" stroke="#0F0F3C" stroke-width="0.3" stroke-linecap="round" stroke-linejoin="round"/>
    <path d="M38.182,148.500 L42.955,143.732" fill="none" stroke="#0F0F3C" stroke-width="0.3" stroke-linecap="round" stroke-linejoin="round"/>
    <path d="M9.545,138.965 L4.773,143.732" fill="none" stroke="#0F0F3C" stroke-width="0.3" stroke-linecap="round" stroke-linejoin="round"/>
    <path d="M28.636,167.570 L33.409,162.803" fill="none" stroke="#0F0F3C" stroke-width="0.3" stroke-linecap="round" stroke-linejoin="round"/>
    <path d="M19.091,148.500 L14.318,143.732 L19.091,148.500" fill="none" stroke="#0F0F3C" stroke-width="0.3" stroke-linecap="round" stroke-linejoin="round"/>
    <path d="M33.409,162.803 L38.182,167.570" fill="none" stroke="#0F0F3C" stroke-width="0.3" stroke-linecap="round" stroke-linejoin="round"/>
    <path d="M42.955,181.873 L38.182,177.105 L42.955,172.338 L47.727,177.105 L52.500,181.873" fill="none" stroke="#0F0F3C" stroke-width="0.3" stroke-linecap="round" stroke-linejoin="round"/>
    <path d="M81.136,210.479 L85.909,215.246 L81.136,220.014 L76.364,224.781 L81.136,229.549 L85.909,224.781 L90.682,229.549 L85.909,234.317 L90.682,229.549 L85.909,224.781 L81.136,229.549 L76.364,224.781 L71.591,220.014 L76.364,215.246 L71.591,210.479 L66.818,215.246 L62.045,210.479 L57.273,205.711" fill="none" stroke="#0F0F3C" stroke-width="0.3" stroke-linecap="round" stroke-linejoin="round"/>
    <path d="M57.273,205.711 L62.045,210.479 L66.818,215.246 L71.591,210.479 L76.364,215.246 L71.591,220.014 L76.364,224.781 L81.136,220.014 L85.909,215.246 L81.136,210.479" fill="none" stroke="#0F0F3C" stroke-width="0.3" stroke-linecap="round" stroke-linejoin="round"/>
    <path d="M66.818,167.570 L62.045,172.338 L66.818,167.570" fill="none" stroke="#0F0F3C" stroke-width="0.3" stroke-linecap="round" stroke-linejoin="round"/>
    <path d="M52.500,181.873 L47.727,177.105 L42.955,172.338 L38.182,177.105 L42.955,181.873" fill="none" stroke="#0F0F3C" stroke-width="0.3" stroke-linecap="round" stroke-linejoin="round"/>
    <path d="M38.182,167.570 L33.409,162.803 L28.636,167.570" fill="none" stroke="#0F0F3C" stroke-width="0.3" stroke-linecap="round" stroke-linejoin="round"/>
    <path d="M4.773,143.732 L9.545,138.965" fill="none" stroke="#0F0F3C" stroke-width="0.3" stroke-linecap="round" stroke-linejoin="round"/>
    <path d="M42.955,143.732 L38.182,148.500" fill="none" stroke="#0F0F3C" stroke-width="0.3" stroke-linecap="round" stroke-linejoin="round"/>
    <path d="M57.273,167.570 L62.045,162.803" fill="none" stroke="#0F0F3C" stroke-width="0.3" stroke-linecap="round" stroke-linejoin="round"/>
    <path d="M66.818,148.500 L71.591,143.732 L76.364,138.965 L81.136,143.732" fill="none" stroke="#0F0F3C" stroke-width="0.3" stroke-linecap="round" stroke-linejoin="round"/>
    <path d="M81.136,153.268 L85.909,148.500 L90.682,153.268 L85.909,158.035 L90.682,162.803 L85.909,167.570 L81.136,172.338" fill="none" stroke="#0F0F3C" stroke-width="0.3" stroke-linecap="round" stroke-linejoin="round"/>
    <path d="M100.227,239.084 L95.455,234.317 L90.682,239.084 L95.455,243.852 L100.227,248.619 L105.000,253.387" fill="none" stroke="#0F0F3C" stroke-width="0.3" stroke-linecap="round" stroke-linejoin="round"/>
    <path d="M119.318,229.549 L114.545,224.781 L109.773,220.014" fill="none" stroke="#0F0F3C" stroke-width="0.3" stroke-linecap="round" stroke-linejoin="round"/>
    <path d="M119.318,220.014 L124.091,215.246 L119.318,210.479" fill="none" stroke="#0F0F3C" stroke-width="0.3" stroke-linecap="round" stroke-linejoin="round"/>
    <path d="M114.545,196.176 L109.773,200.943" fill="none" stroke="#0F0F3C" stroke-width="0.3" stroke-linecap="round" stroke-linejoin="round"/>
    <path d="M100.227,181.873 L95.455,177.105 L90.682,181.873 L85.909,177.105 L90.682,172.338 L95.455,167.570 L100.227,172.338" fill="none" stroke="#0F0F3C" stroke-width="0.3" stroke-linecap="round" stroke-linejoin="round"/>
    <path d="M119.318,181.873 L124.091,186.641 L128.864,181.873 L133.636,177.105 L128.864,181.873 L124.091,186.641 L128.864,191.408" fill="none" stroke="#0F0F3C" stroke-width="0.3" stroke-linecap="round" stroke-linejoin="round"/>
    <path d="M138.409,172.338 L133.636,167.570" fill="none" stroke="#0F0F3C" stroke-width="0.3" stroke-linecap="round" stroke-linejoin="round"/>
    <path d="M105.000,167.570 L100.227,162.803 L95.455,158.035" fill="none" stroke="#0F0F3C" stroke-width="0.3" stroke-linecap="round" stroke-linejoin="round"/>
    <path d="M105.000,129.430 L100.227,124.662 L105.000,119.894 L109.773,115.127 L105.000,110.359 L100.227,115.127 L95.455,119.894 L90.682,124.662 L85.909,119.894" fill="none" stroke="#0F0F3C" stroke-width="0.3" stroke-linecap="round" stroke-linejoin="round"/>
    <path d="M76.364,129.430 L71.591,134.197" fill="none" stroke="#0F0F3C" stroke-width="0.3" stroke-linecap="round" stroke-linejoin="round"/>
    <path d="M66.818,129.430 L71.591,124.662" fill="none" stroke="#0F0F3C" stroke-width="0.3" stroke-linecap="round" stroke-linejoin="round"/>
    <path d="M76.364,81.754 L71.591,76.986 L76.364,72.219" fill="none" stroke="#0F0F3C" stroke-width="0.3" stroke-linecap="round" stroke-linejoin="round"/>
    <path d="M85.909,62.683 L90.682,57.916" fill="none" stroke="#0F0F3C" stroke-width="0.3" stroke-linecap="round" stroke-linejoin="round"/>
  </g>
</svg>
